<svg width="19" height="19" viewBox="0 0 19 19" fill="none" xmlns="http://www.w3.org/2000/svg">
<path d="M8.66699 0C13.4533 0.000176009 17.333 3.88063 17.333 8.66699C17.3329 10.3355 16.8611 11.8935 16.0439 13.2158L18.4141 15.5859C19.1951 16.367 19.1951 17.633 18.4141 18.4141C17.633 19.1951 16.367 19.1951 15.5859 18.4141L13.2158 16.0439C11.8935 16.8611 10.3355 17.3329 8.66699 17.333C3.88063 17.333 0.000176006 13.4533 0 8.66699C0 3.88052 3.88052 0 8.66699 0ZM8.66699 4C7.8746 4 7.12825 4.19741 6.47461 4.5459C7.62827 4.76769 8.5 5.78163 8.5 7C8.5 8.38071 7.38071 9.5 6 9.5C5.18297 9.5 4.4601 9.10611 4.00391 8.5C4.00196 8.55544 4 8.61108 4 8.66699C4.00018 11.2442 6.08977 13.333 8.66699 13.333C9.91403 13.3329 11.0457 12.8429 11.8828 12.0459C11.9083 12.0174 11.9335 11.9883 11.9609 11.9609C11.9883 11.9335 12.0174 11.9083 12.0459 11.8828C12.8429 11.0457 13.3329 9.91403 13.333 8.66699C13.333 6.08977 11.2442 4.00018 8.66699 4Z" fill="#1C1C1C"/>
</svg>
