<svg width="18" height="20" viewBox="0 0 18 20" fill="none" xmlns="http://www.w3.org/2000/svg">
<path d="M8 20H2C0.895446 20 2.46104e-05 19.1045 0 18V5.25586C0 4.15129 0.895431 3.25586 2 3.25586H8V20ZM16 3.25586C17.1046 3.25586 18 4.15129 18 5.25586V18C18 19.1045 17.1046 20 16 20H10V3.25586H16ZM4.5 6.60449C3.67163 6.60449 3.0001 7.16685 3 7.86035C3.00003 8.5539 3.67159 9.11621 4.5 9.11621C5.32841 9.11621 5.99997 8.5539 6 7.86035C5.9999 7.16685 5.32837 6.60449 4.5 6.60449ZM13.5 6.60449C12.6716 6.60449 12.0001 7.16685 12 7.86035C12 8.5539 12.6716 9.11621 13.5 9.11621C14.3284 9.11621 15 8.5539 15 7.86035C14.9999 7.16685 14.3284 6.60449 13.5 6.60449ZM3 0C4.38071 0 5.5 1.11929 5.5 2.5V2.79102H0.5V2.5C0.5 1.11929 1.61929 0 3 0ZM15 0C16.3807 0 17.5 1.11929 17.5 2.5V2.79102H12.5V2.5C12.5 1.11929 13.6193 0 15 0Z" fill="#ED8422"/>
</svg>
