<svg width="22" height="21" viewBox="0 0 22 21" fill="none" xmlns="http://www.w3.org/2000/svg">
<path d="M2.68555 11.0332C3.12267 8.39734 5.61414 6.61464 8.25 7.05176L12.748 7.79785C15.3839 8.23497 17.1666 10.7264 16.7295 13.3623L16.5684 14.334C15.9252 18.212 12.2598 20.8345 8.38184 20.1914C4.50402 19.5483 1.8816 15.8837 2.52441 12.0059L2.68555 11.0332ZM19.4121 6.4707C20.8414 6.47088 22 7.63024 22 9.05957C21.9998 10.4887 20.8412 11.6473 19.4121 11.6475C17.9828 11.6475 16.8235 10.4888 16.8232 9.05957C16.8232 7.63013 17.9827 6.4707 19.4121 6.4707ZM2.58789 2.58887C4.01733 2.58887 5.17675 3.74732 5.17676 5.17676C5.17676 6.6062 4.01733 7.76465 2.58789 7.76465C1.15861 7.76446 0 6.60609 0 5.17676C8.50358e-06 3.74744 1.15861 2.58905 2.58789 2.58887ZM15.5293 1.29395C16.9587 1.29395 18.1172 2.45337 18.1172 3.88281C18.1171 5.31218 16.9587 6.4707 15.5293 6.4707C14.1 6.47063 12.9415 5.31214 12.9414 3.88281C12.9414 2.45342 14.0999 1.29402 15.5293 1.29395ZM9.05859 0C10.488 0 11.6475 1.15942 11.6475 2.58887C11.6473 4.01816 10.4879 5.17676 9.05859 5.17676C7.62936 5.17664 6.47088 4.01809 6.4707 2.58887C6.4707 1.1595 7.62925 0.000114142 9.05859 0Z" fill="#ED8422"/>
</svg>
