<svg width="60" height="60" viewBox="0 0 60 60" fill="none" xmlns="http://www.w3.org/2000/svg">
<path d="M45.2334 6.73334H14.7667C11.5334 6.73334 8.90002 9.56667 8.90002 13.1V40.6C8.90002 44.1 11.5334 46.9667 14.7667 46.9667H23.4334C26.4334 51.9667 29.2334 55.4 30 55.4C30.7667 55.4 33.5667 51.9333 36.5667 46.9667H45.2334C48.4667 46.9667 51.1 44.1333 51.1 40.6V13.1C51.1 9.6 48.4667 6.73334 45.2334 6.73334Z" fill="#8C6239" stroke="white" stroke-width="2" stroke-miterlimit="10"/>
<path d="M41.0999 38.3667C36.3999 39.3667 28.2333 39.3 23.3333 38.9667C21.3333 38.8333 18.0666 38.4667 16.3999 37.4667C15.7999 37.1 15.2666 36.3667 15.5666 35.9C15.6333 35.8 15.7333 35.7 15.9666 35.7H43.9999C44.1999 35.7 44.3333 35.7667 44.3999 35.8667C44.4666 35.9667 44.4999 36.1333 44.4666 36.3C44.2666 37.6 42.1666 38.1333 41.0666 38.3667H41.0999Z" fill="white"/>
<path d="M37.8333 30.2333C37 32.3 35.6333 34 33.2666 34.0667H26.7666C24.4666 34.0667 23 32.2333 22.2333 30.2333C21.2333 27.5667 21.0333 24.0333 21.1333 21.2C21.1333 20.7 21.5 20.3333 22.0333 20.3333H37.9333C38.4 20.3333 38.7666 20.6667 38.8 21.1L38.9 22.8C40.8666 22.1333 42.9 22.9333 43.9 24.6C44.9 26.2667 44.6333 28.5333 43.1666 29.9C41.7 31.2667 39.5 31.4333 37.8333 30.2333ZM41.8666 26.8C41.8666 25.9333 41.1666 25.2 40.2666 25.2C39.3666 25.2 38.6666 25.9 38.6666 26.8C38.6666 27.7 39.3666 28.4 40.2666 28.4C41.1666 28.4 41.8666 27.7 41.8666 26.8Z" fill="white"/>
</svg>
