<svg width="59" height="59" viewBox="0 0 59 59" fill="none" xmlns="http://www.w3.org/2000/svg">
<g clip-path="url(#clip0_214_243)">
<g filter="url(#filter0_d_214_243)">
<path d="M44.4794 6.62111H14.5205C11.3411 6.62111 8.75165 9.40722 8.75165 12.8817V39.9233C8.75165 43.365 11.3411 46.1839 14.5205 46.1839H23.0428C25.9928 51.1006 28.7461 54.4767 29.5 54.4767C30.2539 54.4767 33.0072 51.0678 35.9572 46.1839H44.4794C47.6589 46.1839 50.2483 43.3978 50.2483 39.9233V12.8817C50.2483 9.44 47.6589 6.62111 44.4794 6.62111Z" fill="#8C6239" shape-rendering="crispEdges"/>
<path d="M44.4794 6.62111H14.5205C11.3411 6.62111 8.75165 9.40722 8.75165 12.8817V39.9233C8.75165 43.365 11.3411 46.1839 14.5205 46.1839H23.0428C25.9928 51.1006 28.7461 54.4767 29.5 54.4767C30.2539 54.4767 33.0072 51.0678 35.9572 46.1839H44.4794C47.6589 46.1839 50.2483 43.3978 50.2483 39.9233V12.8817C50.2483 9.44 47.6589 6.62111 44.4794 6.62111Z" fill="url(#paint0_linear_214_243)" fill-opacity="0.3" shape-rendering="crispEdges"/>
<path d="M44.4794 6.62111H14.5205C11.3411 6.62111 8.75165 9.40722 8.75165 12.8817V39.9233C8.75165 43.365 11.3411 46.1839 14.5205 46.1839H23.0428C25.9928 51.1006 28.7461 54.4767 29.5 54.4767C30.2539 54.4767 33.0072 51.0678 35.9572 46.1839H44.4794C47.6589 46.1839 50.2483 43.3978 50.2483 39.9233V12.8817C50.2483 9.44 47.6589 6.62111 44.4794 6.62111Z" stroke="#E3E3E3" stroke-opacity="0.5" stroke-width="2" stroke-miterlimit="10" shape-rendering="crispEdges"/>
</g>
<g filter="url(#filter1_d_214_243)">
<path d="M40.415 37.7272C35.7934 38.7106 27.7628 38.645 22.9445 38.3172C20.9778 38.1861 17.7656 37.8256 16.1267 36.8422C15.5367 36.4817 15.0122 35.7606 15.3072 35.3017C15.3728 35.2033 15.4711 35.105 15.7006 35.105H43.2667C43.4634 35.105 43.5945 35.1706 43.66 35.2689C43.7256 35.3672 43.7584 35.5311 43.7256 35.695C43.5289 36.9733 41.4639 37.4978 40.3822 37.7272H40.415Z" fill="white"/>
<path d="M37.2028 29.7294C36.3833 31.7617 35.0394 33.4333 32.7122 33.4989H26.3205C24.0589 33.4989 22.6167 31.6961 21.8628 29.7294C20.8794 27.1072 20.6828 23.6328 20.7811 20.8467C20.7811 20.355 21.1417 19.9944 21.6661 19.9944H37.3011C37.76 19.9944 38.1206 20.3222 38.1533 20.7483L38.2517 22.42C40.1855 21.7644 42.185 22.5511 43.1683 24.19C44.1517 25.8289 43.8894 28.0578 42.4472 29.4017C41.005 30.7456 38.8417 30.9094 37.2028 29.7294ZM41.1689 26.3533C41.1689 25.5011 40.4805 24.78 39.5955 24.78C38.7105 24.78 38.0222 25.4683 38.0222 26.3533C38.0222 27.2383 38.7105 27.9267 39.5955 27.9267C40.4805 27.9267 41.1689 27.2383 41.1689 26.3533Z" fill="white"/>
</g>
</g>
<defs>
<filter id="filter0_d_214_243" x="3.75165" y="5.62111" width="51.4966" height="57.8556" filterUnits="userSpaceOnUse" color-interpolation-filters="sRGB">
<feFlood flood-opacity="0" result="BackgroundImageFix"/>
<feColorMatrix in="SourceAlpha" type="matrix" values="0 0 0 0 0 0 0 0 0 0 0 0 0 0 0 0 0 0 127 0" result="hardAlpha"/>
<feOffset dy="4"/>
<feGaussianBlur stdDeviation="2"/>
<feComposite in2="hardAlpha" operator="out"/>
<feColorMatrix type="matrix" values="0 0 0 0 0 0 0 0 0 0 0 0 0 0 0 0 0 0 0.25 0"/>
<feBlend mode="normal" in2="BackgroundImageFix" result="effect1_dropShadow_214_243"/>
<feBlend mode="normal" in="SourceGraphic" in2="effect1_dropShadow_214_243" result="shape"/>
</filter>
<filter id="filter1_d_214_243" x="11.2225" y="19.9944" width="36.5321" height="26.54" filterUnits="userSpaceOnUse" color-interpolation-filters="sRGB">
<feFlood flood-opacity="0" result="BackgroundImageFix"/>
<feColorMatrix in="SourceAlpha" type="matrix" values="0 0 0 0 0 0 0 0 0 0 0 0 0 0 0 0 0 0 127 0" result="hardAlpha"/>
<feOffset dy="4"/>
<feGaussianBlur stdDeviation="2"/>
<feComposite in2="hardAlpha" operator="out"/>
<feColorMatrix type="matrix" values="0 0 0 0 0 0 0 0 0 0 0 0 0 0 0 0 0 0 0.25 0"/>
<feBlend mode="normal" in2="BackgroundImageFix" result="effect1_dropShadow_214_243"/>
<feBlend mode="normal" in="SourceGraphic" in2="effect1_dropShadow_214_243" result="shape"/>
</filter>
<linearGradient id="paint0_linear_214_243" x1="8.75165" y1="13.7028" x2="50.2483" y2="47.395" gradientUnits="userSpaceOnUse">
<stop stop-color="white"/>
<stop offset="1" stop-color="#666666" stop-opacity="0"/>
</linearGradient>
<clipPath id="clip0_214_243">
<rect width="59" height="59" fill="white"/>
</clipPath>
</defs>
</svg>
