<svg width="39" height="51" viewBox="0 0 39 51" fill="none" xmlns="http://www.w3.org/2000/svg">
<g filter="url(#filter0_d_215_699)">
<path d="M35 15.5C35 24.0604 19.5 43 19.5 43C19.5 43 4 24.0604 4 15.5C4 6.93959 10.9396 0 19.5 0C28.0604 0 35 6.93959 35 15.5Z" fill="#8A6440"/>
<path d="M35 15.5C35 24.0604 19.5 43 19.5 43C19.5 43 4 24.0604 4 15.5C4 6.93959 10.9396 0 19.5 0C28.0604 0 35 6.93959 35 15.5Z" fill="url(#paint0_linear_215_699)" fill-opacity="0.4"/>
<path d="M19.5 1C27.5081 1 34 7.49187 34 15.5C34 17.3977 33.1224 20.0116 31.6797 22.9697C30.2542 25.8925 28.343 29.0215 26.418 31.9053C24.4954 34.7854 22.5708 37.4033 21.126 39.3018C20.4692 40.1647 19.9116 40.8776 19.5 41.3984C19.0884 40.8776 18.5308 40.1647 17.874 39.3018C16.4292 37.4033 14.5046 34.7854 12.582 31.9053C10.657 29.0215 8.74585 25.8925 7.32031 22.9697C5.87757 20.0116 5 17.3977 5 15.5C5 7.49187 11.4919 1 19.5 1Z" stroke="white" stroke-opacity="0.4" stroke-width="2"/>
<path d="M26.0745 21.4849C23.1255 22.1124 18.0015 22.0706 14.9271 21.8614C13.6722 21.7777 11.6226 21.5477 10.5769 20.9203C10.2004 20.6902 9.86582 20.2301 10.054 19.9373C10.0959 19.8745 10.1586 19.8118 10.305 19.8118H27.894C28.0195 19.8118 28.1032 19.8536 28.145 19.9164C28.1868 19.9791 28.2077 20.0837 28.1868 20.1883C28.0613 21.0039 26.7437 21.3385 26.0535 21.4849H26.0745Z" fill="white"/>
<path d="M24.0249 18.2116C23.502 19.5083 22.6445 20.5749 21.1596 20.6167H17.0813C15.6382 20.6167 14.718 19.4664 14.2369 18.2116C13.6095 16.5384 13.484 14.3215 13.5468 12.5438C13.5468 12.2301 13.7768 12 14.1114 12H24.0876C24.3804 12 24.6105 12.2091 24.6314 12.481L24.6941 13.5477C25.9281 13.1294 27.2039 13.6313 27.8313 14.677C28.4587 15.7228 28.2914 17.1449 27.3712 18.0024C26.4509 18.8599 25.0706 18.9645 24.0249 18.2116ZM26.5555 16.0574C26.5555 15.5136 26.1163 15.0535 25.5516 15.0535C24.9869 15.0535 24.5477 15.4927 24.5477 16.0574C24.5477 16.6221 24.9869 17.0613 25.5516 17.0613C26.1163 17.0613 26.5555 16.6221 26.5555 16.0574Z" fill="white"/>
</g>
<defs>
<filter id="filter0_d_215_699" x="0" y="0" width="39" height="51" filterUnits="userSpaceOnUse" color-interpolation-filters="sRGB">
<feFlood flood-opacity="0" result="BackgroundImageFix"/>
<feColorMatrix in="SourceAlpha" type="matrix" values="0 0 0 0 0 0 0 0 0 0 0 0 0 0 0 0 0 0 127 0" result="hardAlpha"/>
<feOffset dy="4"/>
<feGaussianBlur stdDeviation="2"/>
<feComposite in2="hardAlpha" operator="out"/>
<feColorMatrix type="matrix" values="0 0 0 0 0 0 0 0 0 0 0 0 0 0 0 0 0 0 0.25 0"/>
<feBlend mode="normal" in2="BackgroundImageFix" result="effect1_dropShadow_215_699"/>
<feBlend mode="normal" in="SourceGraphic" in2="effect1_dropShadow_215_699" result="shape"/>
</filter>
<linearGradient id="paint0_linear_215_699" x1="10.5" y1="5" x2="29" y2="31" gradientUnits="userSpaceOnUse">
<stop stop-color="#D9D9D9"/>
<stop offset="1" stop-color="#737373" stop-opacity="0"/>
</linearGradient>
</defs>
</svg>
