<svg width="50" height="50" viewBox="0 0 50 50" fill="none" xmlns="http://www.w3.org/2000/svg">
<path d="M37.6944 5.61111H12.3055C9.61107 5.61111 7.41663 7.97222 7.41663 10.9167V33.8333C7.41663 36.75 9.61107 39.1389 12.3055 39.1389H19.5277C22.0277 43.3056 24.3611 46.1667 25 46.1667C25.6388 46.1667 27.9722 43.2778 30.4722 39.1389H37.6944C40.3888 39.1389 42.5833 36.7778 42.5833 33.8333V10.9167C42.5833 8 40.3888 5.61111 37.6944 5.61111Z" fill="#8C6239" stroke="black" stroke-width="0.75" stroke-miterlimit="10"/>
<path d="M34.25 31.9722C30.3333 32.8056 23.5277 32.75 19.4444 32.4722C17.7777 32.3611 15.0555 32.0556 13.6666 31.2222C13.1666 30.9167 12.7222 30.3056 12.9722 29.9167C13.0277 29.8333 13.1111 29.75 13.3055 29.75H36.6666C36.8333 29.75 36.9444 29.8056 37 29.8889C37.0555 29.9722 37.0833 30.1111 37.0555 30.25C36.8888 31.3333 35.1388 31.7778 34.2222 31.9722H34.25Z" fill="white"/>
<path d="M31.5277 25.1944C30.8332 26.9167 29.6944 28.3333 27.7221 28.3889H22.3055C20.3888 28.3889 19.1666 26.8611 18.5277 25.1944C17.6944 22.9722 17.5277 20.0278 17.611 17.6667C17.611 17.25 17.9166 16.9444 18.361 16.9444H31.611C31.9999 16.9444 32.3055 17.2222 32.3332 17.5833L32.4166 19C34.0555 18.4444 35.7499 19.1111 36.5832 20.5C37.4166 21.8889 37.1944 23.7778 35.9721 24.9167C34.7499 26.0556 32.9166 26.1944 31.5277 25.1944ZM34.8888 22.3333C34.8888 21.6111 34.3055 21 33.5555 21C32.8055 21 32.2221 21.5833 32.2221 22.3333C32.2221 23.0833 32.8055 23.6667 33.5555 23.6667C34.3055 23.6667 34.8888 23.0833 34.8888 22.3333Z" fill="white"/>
</svg>
