<svg width="27" height="27" viewBox="0 0 27 27" fill="none" xmlns="http://www.w3.org/2000/svg">
<g filter="url(#filter0_d_215_308)">
<rect x="4" width="19" height="19" rx="9.5" fill="#B0423F" shape-rendering="crispEdges"/>
<rect x="4" width="19" height="19" rx="9.5" fill="url(#paint0_linear_215_308)" fill-opacity="0.4" shape-rendering="crispEdges"/>
<rect x="4.5" y="0.5" width="18" height="18" rx="9" stroke="#E6E6E6" shape-rendering="crispEdges"/>
<path d="M16.044 13.2708C16.3367 13.5706 16.3601 14.1826 16.1259 14.5198L16.0557 14.6197C16.0089 14.6947 15.8567 14.8071 15.8567 14.8071C15.7631 14.8446 15.6811 14.932 15.5875 14.957C15.4587 14.982 15.2948 14.982 15.1543 14.957C14.9904 14.932 14.8383 14.8321 14.7095 14.7322C14.651 14.6822 14.4988 14.4823 14.4754 14.4199C14.4051 14.2575 14.4051 14.1076 14.37 13.9578C14.3349 13.8079 14.4637 13.5206 14.5456 13.3832C14.5573 13.3582 14.6275 13.3207 14.6041 13.2708C14.452 13.2208 14.2764 13.2708 14.0539 13.2708C13.9135 13.2583 13.773 13.2583 13.6325 13.2708C13.4569 13.2833 13.2111 13.2458 13.1174 13.2708C12.9184 13.2958 12.7194 13.2708 12.5087 13.2708C12.5672 13.3707 12.6258 13.4082 12.6492 13.4956C12.6492 13.5331 12.6843 13.5581 12.7194 13.583C12.7077 13.658 12.7545 13.7329 12.7663 13.8079C12.778 13.9328 12.778 14.0702 12.7663 14.1951C12.7663 14.2076 12.6258 14.5448 12.6375 14.5448L12.5438 14.6572C12.4736 14.7446 12.3799 14.8071 12.298 14.882C12.298 14.882 12.099 14.982 12.0873 14.9944C11.9234 14.9944 11.7361 15.0069 11.5722 14.9944L11.4552 14.932C11.3849 14.8945 11.303 14.8695 11.2561 14.8196L11.104 14.6697C11.104 14.6697 11.0337 14.6073 11.0103 14.5573C10.9635 14.4449 10.905 14.32 10.8815 14.2076C10.8815 14.1576 10.8815 14.1076 10.8464 14.0577C10.8113 13.9952 10.8698 13.9328 10.8698 13.8703C10.8698 13.7454 10.905 13.633 10.9635 13.5206C11.022 13.3957 11.1274 13.3582 11.0806 13.2958C10.9167 13.2708 10.6942 13.3832 10.6123 13.1584C10.5772 13.0585 10.5772 12.971 10.6123 12.8711C10.6474 12.7837 10.6591 12.6713 10.706 12.5838C10.7411 12.5214 10.7528 12.4589 10.7762 12.3965C10.7996 12.334 10.8347 12.2591 10.8347 12.1716C10.8347 12.1342 10.8815 12.0842 10.8933 12.0467L10.9986 11.6845C10.9986 11.6845 11.0454 11.5846 11.0571 11.5346C11.0688 11.4347 11.1508 11.3972 11.221 11.3473C11.2561 11.2474 11.1742 11.1349 11.1391 11.0475C11.104 10.9601 11.0923 10.8851 11.0688 10.7977C11.0454 10.6978 10.9986 10.6104 10.9752 10.5104L10.9167 10.3106C10.8815 10.1857 10.823 10.0733 10.7879 9.94837C10.7645 9.84845 10.7294 9.76101 10.6825 9.67358C10.706 9.72354 10.5889 9.34883 10.5889 9.33634L10.4835 9.02409L10.3665 8.67436C10.3431 8.53696 10.2962 8.41206 10.2377 8.28716C10.2026 8.19973 10.1909 8.08731 10.1558 7.98739L10.0972 7.85C10.0738 7.78755 10.0504 7.72509 10.027 7.65015L9.96846 7.43782C10.027 7.63766 9.82799 7.00066 9.8631 7.13805L9.68751 6.61346C9.6641 6.53852 9.64069 6.48856 9.61727 6.41361C9.59386 6.35116 9.59386 6.23875 9.51192 6.21377C9.40656 6.18879 9.32462 6.12634 9.23097 6.08887C9.1022 6.0389 8.97343 6.00143 8.84466 5.914C8.87978 5.93898 8.52859 5.80159 8.552 5.81408C8.48177 5.77661 8.42324 5.73914 8.32959 5.71416C8.20082 5.67669 8.07205 5.58925 8.01352 5.45186C8.00181 5.38941 7.9901 5.277 8.01352 5.20205C8.03693 5.12711 8.15399 5.03968 8.21252 5.0147C8.37641 4.97723 8.50518 5.0147 8.63395 5.08964C8.7276 5.1396 8.83295 5.17707 8.9266 5.21454L9.16073 5.31447C9.24267 5.35194 9.33632 5.36443 9.41827 5.41439C9.4885 5.45186 9.94505 5.65171 9.95675 5.6642C10.0738 5.75163 10.1206 5.90151 10.1558 6.0389C10.1675 6.10136 10.2143 6.13883 10.226 6.20128L10.3079 6.48856C10.3314 6.57599 10.3548 6.67591 10.4016 6.76334C10.6825 6.75085 10.6123 6.8133 10.9518 6.76334C11.2561 6.72587 11.3147 6.8133 11.6307 6.76334C11.7361 6.75085 11.8415 6.75085 11.9468 6.76334C12.2512 6.8133 12.3448 6.72587 12.6258 6.76334C12.9301 6.8133 13.0238 6.72587 13.3047 6.76334C13.6091 6.8133 13.7028 6.72587 13.9837 6.76334C14.2881 6.8133 14.3817 6.72587 14.6627 6.76334C14.967 6.8133 15.0607 6.72587 15.3416 6.76334C15.646 6.8133 15.7396 6.72587 16.0206 6.76334C16.3132 6.8133 16.4186 6.72587 16.6878 6.76334C16.9571 6.80081 17.1561 6.71338 17.3551 6.76334C17.4956 6.80081 17.6126 6.76334 17.7531 6.76334C17.8351 6.76334 17.9521 6.90073 17.9755 6.97568C17.9989 7.05062 18.0107 7.16303 17.9872 7.23797C17.917 7.43782 17.8468 7.62517 17.7999 7.82502C17.7882 7.88747 17.7648 7.96241 17.7414 8.01237C17.6946 8.11229 17.6946 8.19973 17.6712 8.29965C17.6126 8.51198 17.5073 8.71183 17.4722 8.93665C17.4722 8.98661 17.4722 8.99911 17.4488 9.04907C17.3902 9.14899 17.3902 9.27389 17.3434 9.3863C17.2615 9.59864 17.2615 9.59864 17.2029 9.82346C17.1795 9.89841 17.1444 9.94837 17.1561 10.0233C17.1561 10.0858 17.0976 10.1357 17.0859 10.1982L17.0273 10.4355C17.0156 10.5104 17.0039 10.5479 16.9688 10.6104C16.922 10.7228 16.8986 10.8477 16.8517 10.9601C16.8283 11.035 16.8166 11.11 16.7932 11.1849L16.7464 11.3598C16.7113 11.4847 16.6527 11.722 16.5708 11.7969C16.5005 11.8469 16.3835 11.8719 16.3484 11.9093H11.6425C11.6425 11.9093 11.5371 11.8594 11.5137 11.9093L11.221 12.7462H11.5839C11.7361 12.7462 11.8883 12.7587 12.0405 12.7462C12.1341 12.7462 12.2278 12.7462 12.3214 12.7462C12.579 12.7712 12.7428 12.7212 13.0004 12.7462C13.2579 12.7712 13.4218 12.7212 13.6793 12.7462C13.9369 12.7712 14.1008 12.7212 14.3583 12.7462C14.6158 12.7712 14.7797 12.7212 15.0373 12.7462C15.2948 12.7712 15.4587 12.7212 15.7162 12.7462C15.9738 12.7712 16.1259 12.7212 16.3952 12.7462C16.4771 12.7462 16.5825 12.8211 16.6176 12.8961C16.6878 12.996 16.6527 13.1334 16.5942 13.2333C16.5123 13.3582 16.2313 13.2833 16.0908 13.3207L16.044 13.2708ZM12.6258 8.13727V7.41284C12.5087 7.41284 12.4034 7.41284 12.3097 7.41284C12.0639 7.36288 11.9234 7.4628 11.619 7.41284C11.5137 7.40035 11.4083 7.40035 11.3147 7.41284C11.022 7.4628 10.9284 7.37537 10.6357 7.41284C10.6825 7.50027 10.6942 7.55023 10.7177 7.61268L10.8581 8.08731C10.8581 8.08731 10.8815 8.13727 10.8933 8.14976C10.8933 8.14976 11.1976 8.14976 11.2913 8.14976C11.4083 8.14976 11.5254 8.14976 11.6425 8.14976C11.8883 8.12478 12.099 8.17474 12.3097 8.14976C12.4151 8.13727 12.497 8.16226 12.6141 8.13727H12.6258ZM14.7329 8.16226V7.38786C14.4402 7.47529 14.3115 7.36288 14.0071 7.40035C13.9018 7.41284 13.7847 7.42533 13.6793 7.40035C13.6091 7.38786 13.3164 7.37537 13.2579 7.42533V8.13727C13.4101 8.17475 13.5506 8.16226 13.691 8.13727C13.9018 8.12478 14.1008 8.16226 14.2412 8.13727C14.4051 8.12478 14.5573 8.12478 14.7446 8.13727L14.7329 8.16226ZM17.0976 7.86249C17.1444 7.7126 17.2146 7.5877 17.2263 7.42533C17.0156 7.42533 16.922 7.37537 16.6996 7.42533C16.4303 7.47529 16.2898 7.38786 16.044 7.42533C15.7396 7.47529 15.6577 7.38786 15.3885 7.42533V8.17475C15.5055 8.17475 15.5992 8.17475 15.6928 8.17475C15.9621 8.14976 16.0908 8.19973 16.3601 8.17475C16.6059 8.14976 16.7581 8.19973 17.0039 8.17475C17.039 8.07482 17.0624 7.9749 17.0859 7.87498L17.0976 7.86249ZM12.6258 9.72354V8.86171C12.5204 8.86171 12.4268 8.8742 12.3214 8.86171C12.2044 8.83673 12.0756 8.83673 11.9585 8.86171C11.6776 8.91167 11.5488 8.79926 11.2444 8.86171C11.2093 8.86171 11.1625 8.83673 11.1274 8.88669C11.1508 8.94914 11.1742 9.0116 11.1976 9.07405L11.2796 9.31136C11.2796 9.31136 11.3849 9.72354 11.4669 9.72354H12.6375H12.6258ZM14.7329 8.84922C14.3466 8.91167 14.2881 8.78677 13.9486 8.86171C13.8666 8.8742 13.7964 8.86171 13.7145 8.86171C13.5623 8.82424 13.3984 8.82424 13.2462 8.86171V9.71105H14.6393C14.6627 9.71105 14.7329 9.71105 14.7329 9.68607V8.83673V8.84922ZM16.7932 8.84922C16.442 8.92416 16.2781 8.81175 16.0089 8.86171C15.9152 8.88669 15.8216 8.86171 15.7279 8.86171C15.6109 8.83673 15.4938 8.82424 15.3767 8.86171V9.72354H16.4888C16.5474 9.72354 16.5708 9.67358 16.5708 9.61113C16.6059 9.51121 16.641 9.41129 16.6644 9.31136L16.7932 8.83673V8.84922ZM11.8766 11.1724H12.6258V10.4355H11.6307L11.7244 10.7353C11.7478 10.8227 11.7712 10.9101 11.818 10.9851C11.8532 11.035 11.818 11.1225 11.8766 11.1724ZM14.7329 10.423H13.2462V11.1599H14.7329V10.423ZM16.1259 11.085C16.2079 10.8726 16.2664 10.6478 16.3132 10.423H15.3767V11.1599H16.044C16.044 11.1599 16.1025 11.1599 16.1142 11.1474C16.1142 11.1349 16.1142 11.11 16.1142 11.085H16.1259ZM11.9117 14.3949C12.0639 14.345 12.1458 14.245 12.2044 14.0951C12.2629 13.9203 12.2161 13.7579 12.0873 13.633C11.9351 13.4956 11.7127 13.4831 11.5371 13.608C11.4083 13.6955 11.3732 13.8578 11.3849 14.0077C11.3849 14.1701 11.4434 14.2825 11.5839 14.3699C11.7478 14.4699 11.8063 14.4449 11.9117 14.4074V14.3949ZM15.6343 14.2825C15.6343 14.2825 15.6928 14.1701 15.7279 14.1201C15.7982 14.0077 15.7279 13.683 15.564 13.5955C15.3885 13.4956 15.166 13.5081 15.1075 13.5706L15.0021 13.683C14.8266 13.8828 14.8968 14.2325 15.0724 14.32C15.1543 14.3574 15.2246 14.4199 15.3182 14.4199C15.4236 14.4199 15.5406 14.3574 15.6226 14.2825H15.6343Z" fill="white"/>
</g>
<defs>
<filter id="filter0_d_215_308" x="0" y="0" width="27" height="27" filterUnits="userSpaceOnUse" color-interpolation-filters="sRGB">
<feFlood flood-opacity="0" result="BackgroundImageFix"/>
<feColorMatrix in="SourceAlpha" type="matrix" values="0 0 0 0 0 0 0 0 0 0 0 0 0 0 0 0 0 0 127 0" result="hardAlpha"/>
<feOffset dy="4"/>
<feGaussianBlur stdDeviation="2"/>
<feComposite in2="hardAlpha" operator="out"/>
<feColorMatrix type="matrix" values="0 0 0 0 0 0 0 0 0 0 0 0 0 0 0 0 0 0 0.25 0"/>
<feBlend mode="normal" in2="BackgroundImageFix" result="effect1_dropShadow_215_308"/>
<feBlend mode="normal" in="SourceGraphic" in2="effect1_dropShadow_215_308" result="shape"/>
</filter>
<linearGradient id="paint0_linear_215_308" x1="4" y1="7.09734" x2="23" y2="11.9027" gradientUnits="userSpaceOnUse">
<stop stop-color="white"/>
<stop offset="1" stop-color="#666666" stop-opacity="0"/>
</linearGradient>
</defs>
</svg>
