<svg width="60" height="60" viewBox="0 0 60 60" fill="none" xmlns="http://www.w3.org/2000/svg">
<path d="M45.2334 5.66666H14.7667C11.5334 5.66666 8.90002 8.49999 8.90002 12.0333V39.5333C8.90002 43.0333 11.5334 45.9 14.7667 45.9H23.4334C26.4334 50.9 29.2334 54.3333 30 54.3333C30.7667 54.3333 33.5667 50.8667 36.5667 45.9H45.2334C48.4667 45.9 51.1 43.0667 51.1 39.5333V12.0333C51.1 8.53332 48.4667 5.66666 45.2334 5.66666Z" fill="#B02E2A" stroke="white" stroke-width="2" stroke-miterlimit="10"/>
<path d="M37 34.9667C37.8333 35.7667 37.9 37.4 37.2333 38.3L37.0333 38.5667C36.9 38.7667 36.4667 39.0667 36.4667 39.0667C36.2 39.1667 35.9667 39.4 35.7 39.4667C35.3333 39.5333 34.8667 39.5333 34.4667 39.4667C34 39.4 33.5667 39.1333 33.2 38.8667C33.0333 38.7333 32.6 38.2 32.5333 38.0333C32.3333 37.6 32.3333 37.2 32.2333 36.8C32.1333 36.4 32.5 35.6333 32.7333 35.2667C32.7667 35.2 32.9667 35.1 32.9 34.9667C32.4667 34.8333 31.9667 34.9667 31.3333 34.9667C30.9333 34.9333 30.5333 34.9333 30.1333 34.9667C29.6333 35 28.9333 34.9 28.6667 34.9667C28.1 35.0333 27.5333 34.9667 26.9333 34.9667C27.1 35.2333 27.2667 35.3333 27.3333 35.5667C27.3333 35.6667 27.4333 35.7333 27.5333 35.8C27.5 36 27.6333 36.2 27.6667 36.4C27.7 36.7333 27.7 37.1 27.6667 37.4333C27.6667 37.4667 27.2667 38.3667 27.3 38.3667L27.0333 38.6667C26.8333 38.9 26.5667 39.0667 26.3333 39.2667C26.3333 39.2667 25.7667 39.5333 25.7333 39.5667C25.2667 39.5667 24.7333 39.6 24.2667 39.5667L23.9333 39.4C23.7333 39.3 23.5 39.2333 23.3667 39.1L22.9333 38.7C22.9333 38.7 22.7333 38.5333 22.6667 38.4C22.5333 38.1 22.3667 37.7667 22.3 37.4667C22.3 37.3333 22.3 37.2 22.2 37.0667C22.1 36.9 22.2667 36.7333 22.2667 36.5667C22.2667 36.2333 22.3667 35.9333 22.5333 35.6333C22.7 35.3 23 35.2 22.8667 35.0333C22.4 34.9667 21.7667 35.2667 21.5333 34.6667C21.4333 34.4 21.4333 34.1667 21.5333 33.9C21.6333 33.6667 21.6667 33.3667 21.8 33.1333C21.9 32.9667 21.9333 32.8 22 32.6333C22.0667 32.4667 22.1667 32.2667 22.1667 32.0333C22.1667 31.9333 22.3 31.8 22.3333 31.7L22.6333 30.7333C22.6333 30.7333 22.7667 30.4667 22.8 30.3333C22.8333 30.0667 23.0667 29.9667 23.2667 29.8333C23.3667 29.5667 23.1333 29.2667 23.0333 29.0333C22.9333 28.8 22.9 28.6 22.8333 28.3667C22.7667 28.1 22.6333 27.8667 22.5667 27.6L22.4 27.0667C22.3 26.7333 22.1333 26.4333 22.0333 26.1C21.9667 25.8333 21.8667 25.6 21.7333 25.3667C21.8 25.5 21.4667 24.5 21.4667 24.4667L21.1667 23.6333L20.8333 22.7C20.7667 22.3333 20.6333 22 20.4667 21.6667C20.3667 21.4333 20.3333 21.1333 20.2333 20.8667L20.0667 20.5C20 20.3333 19.9333 20.1667 19.8667 19.9667L19.7 19.4C19.8667 19.9333 19.3 18.2333 19.4 18.6L18.9 17.2C18.8333 17 18.7667 16.8667 18.7 16.6667C18.6333 16.5 18.6333 16.2 18.4 16.1333C18.1 16.0667 17.8667 15.9 17.6 15.8C17.2333 15.6667 16.8667 15.5667 16.5 15.3333C16.6 15.4 15.6 15.0333 15.6667 15.0667C15.4667 14.9667 15.3 14.8667 15.0333 14.8C14.6667 14.7 14.3 14.4667 14.1333 14.1C14.1 13.9333 14.0667 13.6333 14.1333 13.4333C14.2 13.2333 14.5333 13 14.7 12.9333C15.1667 12.8333 15.5333 12.9333 15.9 13.1333C16.1667 13.2667 16.4667 13.3667 16.7333 13.4667L17.4 13.7333C17.6333 13.8333 17.9 13.8667 18.1333 14C18.3333 14.1 19.6333 14.6333 19.6667 14.6667C20 14.9 20.1333 15.3 20.2333 15.6667C20.2667 15.8333 20.4 15.9333 20.4333 16.1L20.6667 16.8667C20.7333 17.1 20.8 17.3667 20.9333 17.6C21.7333 17.5667 21.5333 17.7333 22.5 17.6C23.3667 17.5 23.5333 17.7333 24.4333 17.6C24.7333 17.5667 25.0333 17.5667 25.3333 17.6C26.2 17.7333 26.4667 17.5 27.2667 17.6C28.1333 17.7333 28.4 17.5 29.2 17.6C30.0667 17.7333 30.3333 17.5 31.1333 17.6C32 17.7333 32.2667 17.5 33.0667 17.6C33.9333 17.7333 34.2 17.5 35 17.6C35.8667 17.7333 36.1333 17.5 36.9333 17.6C37.7667 17.7333 38.0667 17.5 38.8333 17.6C39.6 17.7 40.1667 17.4667 40.7333 17.6C41.1333 17.7 41.4667 17.6 41.8667 17.6C42.1 17.6 42.4333 17.9667 42.5 18.1667C42.5667 18.3667 42.6 18.6667 42.5333 18.8667C42.3333 19.4 42.1333 19.9 42 20.4333C41.9667 20.6 41.9 20.8 41.8333 20.9333C41.7 21.2 41.7 21.4333 41.6333 21.7C41.4667 22.2667 41.1667 22.8 41.0667 23.4C41.0667 23.5333 41.0667 23.5667 41 23.7C40.8333 23.9667 40.8333 24.3 40.7 24.6C40.4667 25.1667 40.4667 25.1667 40.3 25.7667C40.2333 25.9667 40.1333 26.1 40.1667 26.3C40.1667 26.4667 40 26.6 39.9667 26.7667L39.8 27.4C39.7667 27.6 39.7333 27.7 39.6333 27.8667C39.5 28.1667 39.4333 28.5 39.3 28.8C39.2333 29 39.2 29.2 39.1333 29.4L39 29.8667C38.9 30.2 38.7333 30.8333 38.5 31.0333C38.3 31.1667 37.9667 31.2333 37.8667 31.3333H24.4667C24.4667 31.3333 24.1667 31.2 24.1 31.3333L23.2667 33.5667H24.3C24.7333 33.5667 25.1667 33.6 25.6 33.5667C25.8667 33.5667 26.1333 33.5667 26.4 33.5667C27.1333 33.6333 27.6 33.5 28.3333 33.5667C29.0667 33.6333 29.5333 33.5 30.2667 33.5667C31 33.6333 31.4667 33.5 32.2 33.5667C32.9333 33.6333 33.4 33.5 34.1333 33.5667C34.8667 33.6333 35.3333 33.5 36.0667 33.5667C36.8 33.6333 37.2333 33.5 38 33.5667C38.2333 33.5667 38.5333 33.7667 38.6333 33.9667C38.8333 34.2333 38.7333 34.6 38.5667 34.8667C38.3333 35.2 37.5333 35 37.1333 35.1L37 34.9667ZM27.2667 21.2667V19.3333C26.9333 19.3333 26.6333 19.3333 26.3667 19.3333C25.6667 19.2 25.2667 19.4667 24.4 19.3333C24.1 19.3 23.8 19.3 23.5333 19.3333C22.7 19.4667 22.4333 19.2333 21.6 19.3333C21.7333 19.5667 21.7667 19.7 21.8333 19.8667L22.2333 21.1333C22.2333 21.1333 22.3 21.2667 22.3333 21.3C22.3333 21.3 23.2 21.3 23.4667 21.3C23.8 21.3 24.1333 21.3 24.4667 21.3C25.1667 21.2333 25.7667 21.3667 26.3667 21.3C26.6667 21.2667 26.9 21.3333 27.2333 21.2667H27.2667ZM33.2667 21.3333V19.2667C32.4333 19.5 32.0667 19.2 31.2 19.3C30.9 19.3333 30.5667 19.3667 30.2667 19.3C30.0667 19.2667 29.2333 19.2333 29.0667 19.3667V21.2667C29.5 21.3667 29.9 21.3333 30.3 21.2667C30.9 21.2333 31.4667 21.3333 31.8667 21.2667C32.3333 21.2333 32.7667 21.2333 33.3 21.2667L33.2667 21.3333ZM40 20.5333C40.1333 20.1333 40.3333 19.8 40.3667 19.3667C39.7667 19.3667 39.5 19.2333 38.8667 19.3667C38.1 19.5 37.7 19.2667 37 19.3667C36.1333 19.5 35.9 19.2667 35.1333 19.3667V21.3667C35.4667 21.3667 35.7333 21.3667 36 21.3667C36.7667 21.3 37.1333 21.4333 37.9 21.3667C38.6 21.3 39.0333 21.4333 39.7333 21.3667C39.8333 21.1 39.9 20.8333 39.9667 20.5667L40 20.5333ZM27.2667 25.5V23.2C26.9667 23.2 26.7 23.2333 26.4 23.2C26.0667 23.1333 25.7 23.1333 25.3667 23.2C24.5667 23.3333 24.2 23.0333 23.3333 23.2C23.2333 23.2 23.1 23.1333 23 23.2667C23.0667 23.4333 23.1333 23.6 23.2 23.7667L23.4333 24.4C23.4333 24.4 23.7333 25.5 23.9667 25.5H27.3H27.2667ZM33.2667 23.1667C32.1667 23.3333 32 23 31.0333 23.2C30.8 23.2333 30.6 23.2 30.3667 23.2C29.9333 23.1 29.4667 23.1 29.0333 23.2V25.4667H33C33.0667 25.4667 33.2667 25.4667 33.2667 25.4V23.1333V23.1667ZM39.1333 23.1667C38.1333 23.3667 37.6667 23.0667 36.9 23.2C36.6333 23.2667 36.3667 23.2 36.1 23.2C35.7667 23.1333 35.4333 23.1 35.1 23.2V25.5H38.2667C38.4333 25.5 38.5 25.3667 38.5 25.2C38.6 24.9333 38.7 24.6667 38.7667 24.4L39.1333 23.1333V23.1667ZM25.1333 29.3667H27.2667V27.4H24.4333L24.7 28.2C24.7667 28.4333 24.8333 28.6667 24.9667 28.8667C25.0667 29 24.9667 29.2333 25.1333 29.3667ZM33.2667 27.3667H29.0333V29.3333H33.2667V27.3667ZM37.2333 29.1333C37.4667 28.5667 37.6333 27.9667 37.7667 27.3667H35.1V29.3333H37C37 29.3333 37.1667 29.3333 37.2 29.3C37.2 29.2667 37.2 29.2 37.2 29.1333H37.2333ZM25.2333 37.9667C25.6667 37.8333 25.9 37.5667 26.0667 37.1667C26.2333 36.7 26.1 36.2667 25.7333 35.9333C25.3 35.5667 24.6667 35.5333 24.1667 35.8667C23.8 36.1 23.7 36.5333 23.7333 36.9333C23.7333 37.3667 23.9 37.6667 24.3 37.9C24.7667 38.1667 24.9333 38.1 25.2333 38V37.9667ZM35.8333 37.6667C35.8333 37.6667 36 37.3667 36.1 37.2333C36.3 36.9333 36.1 36.0667 35.6333 35.8333C35.1333 35.5667 34.5 35.6 34.3333 35.7667L34.0333 36.0667C33.5333 36.6 33.7333 37.5333 34.2333 37.7667C34.4667 37.8667 34.6667 38.0333 34.9333 38.0333C35.2333 38.0333 35.5667 37.8667 35.8 37.6667H35.8333Z" fill="white"/>
</svg>
