<svg width="39" height="51" viewBox="0 0 39 51" fill="none" xmlns="http://www.w3.org/2000/svg">
<g filter="url(#filter0_d_215_696)">
<path d="M35 15.5C35 24.0604 19.5 43 19.5 43C19.5 43 4 24.0604 4 15.5C4 6.93959 10.9396 0 19.5 0C28.0604 0 35 6.93959 35 15.5Z" fill="#AD4542"/>
<path d="M35 15.5C35 24.0604 19.5 43 19.5 43C19.5 43 4 24.0604 4 15.5C4 6.93959 10.9396 0 19.5 0C28.0604 0 35 6.93959 35 15.5Z" fill="url(#paint0_linear_215_696)" fill-opacity="0.4"/>
<path d="M19.5 1C27.5081 1 34 7.49187 34 15.5C34 17.3977 33.1224 20.0116 31.6797 22.9697C30.2542 25.8925 28.343 29.0215 26.418 31.9053C24.4954 34.7854 22.5708 37.4033 21.126 39.3018C20.4692 40.1647 19.9116 40.8776 19.5 41.3984C19.0884 40.8776 18.5308 40.1647 17.874 39.3018C16.4292 37.4033 14.5046 34.7854 12.582 31.9053C10.657 29.0215 8.74585 25.8925 7.32031 22.9697C5.87757 20.0116 5 17.3977 5 15.5C5 7.49187 11.4919 1 19.5 1Z" stroke="white" stroke-opacity="0.4" stroke-width="2"/>
<path d="M22.8704 23.2333C23.3387 23.7129 23.3761 24.6921 23.0015 25.2317L22.8891 25.3916C22.8142 25.5115 22.5707 25.6914 22.5707 25.6914C22.4209 25.7513 22.2898 25.8912 22.1399 25.9312C21.9339 25.9711 21.6717 25.9711 21.4469 25.9312C21.1847 25.8912 20.9412 25.7313 20.7352 25.5714C20.6415 25.4915 20.398 25.1718 20.3606 25.0718C20.2482 24.812 20.2482 24.5722 20.192 24.3324C20.1358 24.0926 20.3419 23.6329 20.473 23.4131C20.4917 23.3732 20.6041 23.3132 20.5666 23.2333C20.3231 23.1533 20.0422 23.2333 19.6863 23.2333C19.4615 23.2133 19.2368 23.2133 19.012 23.2333C18.7311 23.2532 18.3377 23.1933 18.1879 23.2333C17.8695 23.2732 17.5511 23.2333 17.2139 23.2333C17.3076 23.3931 17.4012 23.4531 17.4387 23.593C17.4387 23.6529 17.4949 23.6929 17.5511 23.7329C17.5324 23.8528 17.6073 23.9727 17.626 24.0926C17.6447 24.2924 17.6447 24.5123 17.626 24.7121C17.626 24.7321 17.4012 25.2717 17.42 25.2717L17.2701 25.4515C17.1578 25.5914 17.0079 25.6914 16.8768 25.8113C16.8768 25.8113 16.5584 25.9711 16.5397 25.9911C16.2774 25.9911 15.9778 26.0111 15.7155 25.9911L15.5282 25.8912C15.4159 25.8312 15.2848 25.7913 15.2098 25.7113L14.9663 25.4715C14.9663 25.4715 14.854 25.3716 14.8165 25.2917C14.7416 25.1118 14.6479 24.912 14.6105 24.7321C14.6105 24.6522 14.6105 24.5722 14.5543 24.4923C14.4981 24.3924 14.5917 24.2924 14.5917 24.1925C14.5917 23.9927 14.6479 23.8128 14.7416 23.6329C14.8352 23.4331 15.0038 23.3732 14.9289 23.2732C14.6667 23.2333 14.3108 23.4131 14.1797 23.0534C14.1235 22.8935 14.1235 22.7536 14.1797 22.5938C14.2359 22.4539 14.2546 22.274 14.3295 22.1341C14.3857 22.0342 14.4044 21.9343 14.4419 21.8343C14.4794 21.7344 14.5356 21.6145 14.5356 21.4746C14.5356 21.4147 14.6105 21.3347 14.6292 21.2748L14.7978 20.6952C14.7978 20.6952 14.8727 20.5354 14.8914 20.4554C14.9102 20.2955 15.0413 20.2356 15.1536 20.1557C15.2098 19.9958 15.0787 19.8159 15.0225 19.676C14.9663 19.5361 14.9476 19.4162 14.9102 19.2763C14.8727 19.1165 14.7978 18.9766 14.7603 18.8167L14.6667 18.4969C14.6105 18.2971 14.5168 18.1172 14.4606 17.9174C14.4232 17.7575 14.367 17.6176 14.2921 17.4777C14.3295 17.5577 14.1422 16.9581 14.1422 16.9381L13.9737 16.4385L13.7864 15.879C13.7489 15.6591 13.674 15.4593 13.5803 15.2595C13.5241 15.1196 13.5054 14.9397 13.4492 14.7798L13.3556 14.56C13.3181 14.4601 13.2806 14.3602 13.2432 14.2402L13.1495 13.9005C13.2432 14.2203 12.9248 13.2011 12.981 13.4209L12.7 12.5815C12.6626 12.4616 12.6251 12.3817 12.5876 12.2618C12.5502 12.1619 12.5502 11.982 12.4191 11.942C12.2505 11.9021 12.1194 11.8021 11.9695 11.7422C11.7635 11.6622 11.5575 11.6023 11.3515 11.4624C11.4076 11.5024 10.8457 11.2825 10.8832 11.3025C10.7708 11.2426 10.6772 11.1826 10.5273 11.1427C10.3213 11.0827 10.1153 10.9428 10.0216 10.723C10.0029 10.6231 9.98417 10.4432 10.0216 10.3233C10.0591 10.2034 10.2464 10.0635 10.34 10.0235C10.6023 9.96357 10.8083 10.0235 11.0143 10.1434C11.1642 10.2234 11.3327 10.2833 11.4826 10.3433L11.8572 10.5031C11.9883 10.5631 12.1381 10.5831 12.2692 10.663C12.3816 10.723 13.1121 11.0427 13.1308 11.0627C13.3181 11.2026 13.393 11.4424 13.4492 11.6622C13.4679 11.7622 13.5429 11.8221 13.5616 11.922L13.6927 12.3817C13.7302 12.5216 13.7676 12.6815 13.8425 12.8213C14.2921 12.8014 14.1797 12.9013 14.7229 12.8213C15.2098 12.7614 15.3035 12.9013 15.8092 12.8213C15.9778 12.8014 16.1463 12.8014 16.3149 12.8213C16.8019 12.9013 16.9517 12.7614 17.4012 12.8213C17.8882 12.9013 18.0381 12.7614 18.4876 12.8213C18.9746 12.9013 19.1244 12.7614 19.5739 12.8213C20.0609 12.9013 20.2107 12.7614 20.6603 12.8213C21.1472 12.9013 21.2971 12.7614 21.7466 12.8213C22.2336 12.9013 22.3834 12.7614 22.8329 12.8213C23.3012 12.9013 23.4698 12.7614 23.9006 12.8213C24.3313 12.8813 24.6498 12.7414 24.9682 12.8213C25.1929 12.8813 25.3802 12.8213 25.605 12.8213C25.7361 12.8213 25.9234 13.0412 25.9609 13.1611C25.9983 13.281 26.017 13.4609 25.9796 13.5808C25.8672 13.9005 25.7548 14.2003 25.6799 14.52C25.6612 14.62 25.6237 14.7399 25.5863 14.8198C25.5113 14.9797 25.5113 15.1196 25.4739 15.2794C25.3802 15.6192 25.2117 15.9389 25.1555 16.2986C25.1555 16.3786 25.1555 16.3986 25.118 16.4785C25.0244 16.6384 25.0244 16.8382 24.9494 17.0181C24.8183 17.3578 24.8183 17.3578 24.7247 17.7175C24.6872 17.8375 24.631 17.9174 24.6498 18.0373C24.6498 18.1372 24.5561 18.2172 24.5374 18.3171L24.4437 18.6968C24.425 18.8167 24.4063 18.8766 24.3501 18.9766C24.2752 19.1564 24.2377 19.3563 24.1628 19.5361C24.1253 19.656 24.1066 19.7759 24.0691 19.8959L23.9942 20.1756C23.938 20.3755 23.8444 20.7552 23.7133 20.8751C23.6009 20.955 23.4136 20.995 23.3574 21.055H15.8279C15.8279 21.055 15.6594 20.975 15.6219 21.055L15.1536 22.3939H15.7343C15.9778 22.3939 16.2213 22.4139 16.4647 22.3939C16.6146 22.3939 16.7644 22.3939 16.9143 22.3939C17.3263 22.4339 17.5885 22.3539 18.0006 22.3939C18.4127 22.4339 18.6749 22.3539 19.0869 22.3939C19.499 22.4339 19.7612 22.3539 20.1733 22.3939C20.5853 22.4339 20.8476 22.3539 21.2596 22.3939C21.6717 22.4339 21.9339 22.3539 22.346 22.3939C22.758 22.4339 23.0015 22.3539 23.4323 22.3939C23.5634 22.3939 23.732 22.5138 23.7882 22.6337C23.9006 22.7936 23.8444 23.0134 23.7507 23.1733C23.6196 23.3732 23.1701 23.2532 22.9453 23.3132L22.8704 23.2333ZM17.4012 15.0196V13.8605C17.2139 13.8605 17.0454 13.8605 16.8955 13.8605C16.5022 13.7806 16.2774 13.9405 15.7905 13.8605C15.6219 13.8406 15.4533 13.8406 15.3035 13.8605C14.8352 13.9405 14.6854 13.8006 14.2171 13.8605C14.2921 14.0004 14.3108 14.0804 14.3483 14.1803L14.573 14.9397C14.573 14.9397 14.6105 15.0196 14.6292 15.0396C14.6292 15.0396 15.1162 15.0396 15.266 15.0396C15.4533 15.0396 15.6406 15.0396 15.8279 15.0396C16.2213 14.9997 16.5584 15.0796 16.8955 15.0396C17.0641 15.0196 17.1952 15.0596 17.3825 15.0196H17.4012ZM20.7726 15.0596V13.8206C20.3044 13.9605 20.0984 13.7806 19.6114 13.8406C19.4428 13.8605 19.2555 13.8805 19.0869 13.8406C18.9746 13.8206 18.5063 13.8006 18.4127 13.8805V15.0196C18.6562 15.0796 18.8809 15.0596 19.1057 15.0196C19.4428 14.9997 19.7612 15.0596 19.986 15.0196C20.2482 14.9997 20.4917 14.9997 20.7914 15.0196L20.7726 15.0596ZM24.5561 14.58C24.631 14.3402 24.7434 14.1403 24.7621 13.8805C24.425 13.8805 24.2752 13.8006 23.9193 13.8805C23.4885 13.9605 23.2637 13.8206 22.8704 13.8805C22.3834 13.9605 22.2523 13.8206 21.8215 13.8805V15.0796C22.0088 15.0796 22.1587 15.0796 22.3085 15.0796C22.7393 15.0396 22.9453 15.1196 23.3761 15.0796C23.7694 15.0396 24.0129 15.1196 24.4063 15.0796C24.4625 14.9197 24.4999 14.7598 24.5374 14.6L24.5561 14.58ZM17.4012 17.5577V16.1787C17.2327 16.1787 17.0828 16.1987 16.9143 16.1787C16.727 16.1388 16.5209 16.1388 16.3336 16.1787C15.8841 16.2587 15.6781 16.0788 15.1911 16.1787C15.1349 16.1787 15.06 16.1388 15.0038 16.2187C15.0413 16.3186 15.0787 16.4186 15.1162 16.5185L15.2473 16.8982C15.2473 16.8982 15.4159 17.5577 15.547 17.5577H17.42H17.4012ZM20.7726 16.1588C20.1546 16.2587 20.0609 16.0588 19.5177 16.1787C19.3866 16.1987 19.2742 16.1787 19.1431 16.1787C18.8996 16.1188 18.6374 16.1188 18.3939 16.1787V17.5377H20.6228C20.6603 17.5377 20.7726 17.5377 20.7726 17.4977V16.1388V16.1588ZM24.0691 16.1588C23.5072 16.2787 23.245 16.0988 22.8142 16.1787C22.6644 16.2187 22.5145 16.1787 22.3647 16.1787C22.1774 16.1388 21.9901 16.1188 21.8028 16.1787V17.5577H23.5821C23.6758 17.5577 23.7133 17.4777 23.7133 17.3778C23.7694 17.2179 23.8256 17.0581 23.8631 16.8982L24.0691 16.1388V16.1588ZM16.2025 19.8759H17.4012V18.6968H15.8092L15.959 19.1764C15.9965 19.3163 16.034 19.4562 16.1089 19.5761C16.1651 19.656 16.1089 19.7959 16.2025 19.8759ZM20.7726 18.6768H18.3939V19.8559H20.7726V18.6768ZM23.0015 19.736C23.1326 19.3962 23.2263 19.0365 23.3012 18.6768H21.8028V19.8559H22.8704C22.8704 19.8559 22.9641 19.8559 22.9828 19.8359C22.9828 19.8159 22.9828 19.7759 22.9828 19.736H23.0015ZM16.2587 25.0319C16.5022 24.9519 16.6333 24.792 16.727 24.5522C16.8206 24.2725 16.7457 24.0127 16.5397 23.8128C16.2962 23.593 15.9403 23.573 15.6594 23.7728C15.4533 23.9127 15.3971 24.1725 15.4159 24.4123C15.4159 24.6721 15.5095 24.852 15.7343 24.9919C15.9965 25.1518 16.0901 25.1118 16.2587 25.0518V25.0319ZM22.2149 24.852C22.2149 24.852 22.3085 24.6721 22.3647 24.5922C22.4771 24.4123 22.3647 23.8927 22.1025 23.7529C21.8215 23.593 21.4657 23.613 21.372 23.7129L21.2034 23.8927C20.9225 24.2125 21.0349 24.7721 21.3158 24.912C21.4469 24.9719 21.5593 25.0718 21.7091 25.0718C21.8777 25.0718 22.065 24.9719 22.1961 24.852H22.2149Z" fill="white"/>
</g>
<defs>
<filter id="filter0_d_215_696" x="0" y="0" width="39" height="51" filterUnits="userSpaceOnUse" color-interpolation-filters="sRGB">
<feFlood flood-opacity="0" result="BackgroundImageFix"/>
<feColorMatrix in="SourceAlpha" type="matrix" values="0 0 0 0 0 0 0 0 0 0 0 0 0 0 0 0 0 0 127 0" result="hardAlpha"/>
<feOffset dy="4"/>
<feGaussianBlur stdDeviation="2"/>
<feComposite in2="hardAlpha" operator="out"/>
<feColorMatrix type="matrix" values="0 0 0 0 0 0 0 0 0 0 0 0 0 0 0 0 0 0 0.25 0"/>
<feBlend mode="normal" in2="BackgroundImageFix" result="effect1_dropShadow_215_696"/>
<feBlend mode="normal" in="SourceGraphic" in2="effect1_dropShadow_215_696" result="shape"/>
</filter>
<linearGradient id="paint0_linear_215_696" x1="10.5" y1="5" x2="29" y2="31" gradientUnits="userSpaceOnUse">
<stop stop-color="#D9D9D9"/>
<stop offset="1" stop-color="#737373" stop-opacity="0"/>
</linearGradient>
</defs>
</svg>
