<svg width="59" height="59" viewBox="0 0 59 59" fill="none" xmlns="http://www.w3.org/2000/svg">
<g clip-path="url(#clip0_214_187)">
<g filter="url(#filter0_d_214_187)">
<path d="M44.4794 5.57222H14.5205C11.3411 5.57222 8.75165 8.35833 8.75165 11.8328V38.8744C8.75165 42.3161 11.3411 45.135 14.5205 45.135H23.0428C25.9928 50.0517 28.7461 53.4278 29.5 53.4278C30.2539 53.4278 33.0072 50.0189 35.9572 45.135H44.4794C47.6589 45.135 50.2483 42.3489 50.2483 38.8744V11.8328C50.2483 8.39111 47.6589 5.57222 44.4794 5.57222Z" fill="#B02E2A" shape-rendering="crispEdges"/>
<path d="M44.4794 5.57222H14.5205C11.3411 5.57222 8.75165 8.35833 8.75165 11.8328V38.8744C8.75165 42.3161 11.3411 45.135 14.5205 45.135H23.0428C25.9928 50.0517 28.7461 53.4278 29.5 53.4278C30.2539 53.4278 33.0072 50.0189 35.9572 45.135H44.4794C47.6589 45.135 50.2483 42.3489 50.2483 38.8744V11.8328C50.2483 8.39111 47.6589 5.57222 44.4794 5.57222Z" fill="url(#paint0_linear_214_187)" fill-opacity="0.3" shape-rendering="crispEdges"/>
<path d="M44.4794 5.57222H14.5205C11.3411 5.57222 8.75165 8.35833 8.75165 11.8328V38.8744C8.75165 42.3161 11.3411 45.135 14.5205 45.135H23.0428C25.9928 50.0517 28.7461 53.4278 29.5 53.4278C30.2539 53.4278 33.0072 50.0189 35.9572 45.135H44.4794C47.6589 45.135 50.2483 42.3489 50.2483 38.8744V11.8328C50.2483 8.39111 47.6589 5.57222 44.4794 5.57222Z" stroke="#E3E3E3" stroke-opacity="0.5" stroke-width="2" stroke-miterlimit="10" shape-rendering="crispEdges"/>
</g>
<g filter="url(#filter1_d_214_187)">
<path d="M36.3833 34.3839C37.2028 35.1706 37.2683 36.7767 36.6128 37.6617L36.4161 37.9239C36.285 38.1206 35.8589 38.4156 35.8589 38.4156C35.5967 38.5139 35.3672 38.7433 35.105 38.8089C34.7444 38.8744 34.2856 38.8744 33.8922 38.8089C33.4333 38.7433 33.0072 38.4811 32.6467 38.2189C32.4828 38.0878 32.0567 37.5633 31.9911 37.3994C31.7944 36.9733 31.7944 36.58 31.6961 36.1867C31.5978 35.7933 31.9583 35.0394 32.1878 34.6789C32.2206 34.6133 32.4172 34.515 32.3517 34.3839C31.9256 34.2528 31.4339 34.3839 30.8111 34.3839C30.4178 34.3511 30.0244 34.3511 29.6311 34.3839C29.1394 34.4167 28.4511 34.3183 28.1889 34.3839C27.6317 34.4494 27.0744 34.3839 26.4844 34.3839C26.6483 34.6461 26.8122 34.7444 26.8778 34.9739C26.8778 35.0722 26.9761 35.1378 27.0744 35.2033C27.0417 35.4 27.1728 35.5967 27.2056 35.7933C27.2383 36.1211 27.2383 36.4817 27.2056 36.8094C27.2056 36.8422 26.8122 37.7272 26.845 37.7272L26.5828 38.0222C26.3861 38.2517 26.1239 38.4156 25.8944 38.6122C25.8944 38.6122 25.3372 38.8744 25.3044 38.9072C24.8456 38.9072 24.3211 38.94 23.8622 38.9072L23.5344 38.7433C23.3378 38.645 23.1083 38.5794 22.9772 38.4483L22.5511 38.055C22.5511 38.055 22.3544 37.8911 22.2889 37.76C22.1578 37.465 21.9939 37.1372 21.9283 36.8422C21.9283 36.7111 21.9283 36.58 21.83 36.4489C21.7317 36.285 21.8956 36.1211 21.8956 35.9572C21.8956 35.6294 21.9939 35.3344 22.1578 35.0394C22.3217 34.7117 22.6167 34.6133 22.4856 34.4494C22.0267 34.3839 21.4039 34.6789 21.1744 34.0889C21.0761 33.8267 21.0761 33.5972 21.1744 33.335C21.2728 33.1056 21.3056 32.8106 21.4367 32.5811C21.535 32.4172 21.5678 32.2533 21.6333 32.0894C21.6989 31.9256 21.7972 31.7289 21.7972 31.4994C21.7972 31.4011 21.9283 31.27 21.9611 31.1717L22.2561 30.2211C22.2561 30.2211 22.3872 29.9589 22.42 29.8278C22.4528 29.5656 22.6822 29.4672 22.8789 29.3361C22.9772 29.0739 22.7478 28.7789 22.6494 28.5494C22.5511 28.32 22.5183 28.1233 22.4528 27.8939C22.3872 27.6317 22.2561 27.4022 22.1906 27.14L22.0267 26.6156C21.9283 26.2878 21.7644 25.9928 21.6661 25.665C21.6006 25.4028 21.5022 25.1733 21.3711 24.9439C21.4367 25.075 21.1089 24.0917 21.1089 24.0589L20.8139 23.2394L20.4861 22.3217C20.4206 21.9611 20.2894 21.6333 20.1256 21.3056C20.0272 21.0761 19.9944 20.7811 19.8961 20.5189L19.7322 20.1583C19.6667 19.9944 19.6011 19.8306 19.5356 19.6339L19.3717 19.0767C19.5356 19.6011 18.9783 17.9294 19.0767 18.29L18.585 16.9133C18.5194 16.7167 18.4539 16.5856 18.3883 16.3889C18.3228 16.225 18.3228 15.93 18.0933 15.8644C17.7983 15.7989 17.5689 15.635 17.3067 15.5367C16.9461 15.4056 16.5856 15.3072 16.225 15.0778C16.3233 15.1433 15.34 14.7828 15.4056 14.8156C15.2089 14.7172 15.045 14.6189 14.7828 14.5533C14.4222 14.455 14.0617 14.2256 13.8978 13.865C13.865 13.7011 13.8322 13.4061 13.8978 13.2094C13.9633 13.0128 14.2911 12.7833 14.455 12.7178C14.9139 12.6194 15.2744 12.7178 15.635 12.9144C15.8972 13.0456 16.1922 13.1439 16.4544 13.2422L17.11 13.5044C17.3394 13.6028 17.6017 13.6356 17.8311 13.7667C18.0278 13.865 19.3061 14.3894 19.3389 14.4222C19.6667 14.6517 19.7978 15.045 19.8961 15.4056C19.9289 15.5694 20.06 15.6678 20.0928 15.8317L20.3222 16.5856C20.3878 16.815 20.4533 17.0772 20.5844 17.3067C21.3711 17.2739 21.1744 17.4378 22.125 17.3067C22.9772 17.2083 23.1411 17.4378 24.0261 17.3067C24.3211 17.2739 24.6161 17.2739 24.9111 17.3067C25.7633 17.4378 26.0256 17.2083 26.8122 17.3067C27.6644 17.4378 27.9267 17.2083 28.7133 17.3067C29.5656 17.4378 29.8278 17.2083 30.6144 17.3067C31.4667 17.4378 31.7289 17.2083 32.5156 17.3067C33.3678 17.4378 33.63 17.2083 34.4167 17.3067C35.2689 17.4378 35.5311 17.2083 36.3178 17.3067C37.1372 17.4378 37.4322 17.2083 38.1861 17.3067C38.94 17.405 39.4972 17.1756 40.0544 17.3067C40.4478 17.405 40.7756 17.3067 41.1689 17.3067C41.3983 17.3067 41.7261 17.6672 41.7917 17.8639C41.8572 18.0606 41.89 18.3556 41.8244 18.5522C41.6278 19.0767 41.4311 19.5683 41.3 20.0928C41.2672 20.2567 41.2017 20.4533 41.1361 20.5844C41.005 20.8467 41.005 21.0761 40.9394 21.3383C40.7756 21.8956 40.4806 22.42 40.3822 23.01C40.3822 23.1411 40.3822 23.1739 40.3167 23.305C40.1528 23.5672 40.1528 23.895 40.0217 24.19C39.7922 24.7472 39.7922 24.7472 39.6283 25.3372C39.5628 25.5339 39.4644 25.665 39.4972 25.8617C39.4972 26.0256 39.3333 26.1567 39.3006 26.3206L39.1367 26.9433C39.1039 27.14 39.0711 27.2383 38.9728 27.4022C38.8417 27.6972 38.7761 28.025 38.645 28.32C38.5794 28.5167 38.5467 28.7133 38.4811 28.91L38.35 29.3689C38.2517 29.6967 38.0878 30.3194 37.8583 30.5161C37.6617 30.6472 37.3339 30.7128 37.2356 30.8111H24.0589C24.0589 30.8111 23.7639 30.68 23.6983 30.8111L22.8789 33.0072H23.895C24.3211 33.0072 24.7472 33.04 25.1733 33.0072C25.4356 33.0072 25.6978 33.0072 25.96 33.0072C26.6811 33.0728 27.14 32.9417 27.8611 33.0072C28.5822 33.0728 29.0411 32.9417 29.7622 33.0072C30.4833 33.0728 30.9422 32.9417 31.6633 33.0072C32.3844 33.0728 32.8433 32.9417 33.5644 33.0072C34.2856 33.0728 34.7444 32.9417 35.4656 33.0072C36.1867 33.0728 36.6128 32.9417 37.3667 33.0072C37.5961 33.0072 37.8911 33.2039 37.9894 33.4006C38.1861 33.6628 38.0878 34.0233 37.9239 34.2856C37.6944 34.6133 36.9078 34.4167 36.5144 34.515L36.3833 34.3839ZM26.8122 20.9122V19.0111C26.4844 19.0111 26.1894 19.0111 25.9272 19.0111C25.2389 18.88 24.8456 19.1422 23.9933 19.0111C23.6983 18.9783 23.4033 18.9783 23.1411 19.0111C22.3217 19.1422 22.0594 18.9128 21.24 19.0111C21.3711 19.2406 21.4039 19.3717 21.4694 19.5356L21.8628 20.7811C21.8628 20.7811 21.9283 20.9122 21.9611 20.945C21.9611 20.945 22.8133 20.945 23.0756 20.945C23.4033 20.945 23.7311 20.945 24.0589 20.945C24.7472 20.8794 25.3372 21.0106 25.9272 20.945C26.2222 20.9122 26.4517 20.9778 26.7794 20.9122H26.8122ZM32.7122 20.9778V18.9456C31.8928 19.175 31.5322 18.88 30.68 18.9783C30.385 19.0111 30.0572 19.0439 29.7622 18.9783C29.5656 18.9456 28.7461 18.9128 28.5822 19.0439V20.9122C29.0083 21.0106 29.4017 20.9778 29.795 20.9122C30.385 20.8794 30.9422 20.9778 31.3356 20.9122C31.7944 20.8794 32.2206 20.8794 32.745 20.9122L32.7122 20.9778ZM39.3333 20.1911C39.4644 19.7978 39.6611 19.47 39.6939 19.0439C39.1039 19.0439 38.8417 18.9128 38.2189 19.0439C37.465 19.175 37.0717 18.9456 36.3833 19.0439C35.5311 19.175 35.3017 18.9456 34.5478 19.0439V21.0106C34.8756 21.0106 35.1378 21.0106 35.4 21.0106C36.1539 20.945 36.5144 21.0761 37.2683 21.0106C37.9567 20.945 38.3828 21.0761 39.0711 21.0106C39.1694 20.7483 39.235 20.4861 39.3006 20.2239L39.3333 20.1911ZM26.8122 25.075V22.8133C26.5172 22.8133 26.255 22.8461 25.96 22.8133C25.6322 22.7478 25.2717 22.7478 24.9439 22.8133C24.1572 22.9444 23.7967 22.6494 22.9444 22.8133C22.8461 22.8133 22.715 22.7478 22.6167 22.8789C22.6822 23.0428 22.7478 23.2067 22.8133 23.3706L23.0428 23.9933C23.0428 23.9933 23.3378 25.075 23.5672 25.075H26.845H26.8122ZM32.7122 22.7806C31.6306 22.9444 31.4667 22.6167 30.5161 22.8133C30.2867 22.8461 30.09 22.8133 29.8606 22.8133C29.4344 22.715 28.9756 22.715 28.5494 22.8133V25.0422H32.45C32.5156 25.0422 32.7122 25.0422 32.7122 24.9767V22.7478V22.7806ZM38.4811 22.7806C37.4978 22.9772 37.0389 22.6822 36.285 22.8133C36.0228 22.8789 35.7606 22.8133 35.4983 22.8133C35.1706 22.7478 34.8428 22.715 34.515 22.8133V25.075H37.6289C37.7928 25.075 37.8583 24.9439 37.8583 24.78C37.9567 24.5178 38.055 24.2556 38.1206 23.9933L38.4811 22.7478V22.7806ZM24.7144 28.8772H26.8122V26.9433H24.0261L24.2883 27.73C24.3539 27.9594 24.4194 28.1889 24.5506 28.3856C24.6489 28.5167 24.5506 28.7461 24.7144 28.8772ZM32.7122 26.9106H28.5494V28.8444H32.7122V26.9106ZM36.6128 28.6478C36.8422 28.0906 37.0061 27.5006 37.1372 26.9106H34.515V28.8444H36.3833C36.3833 28.8444 36.5472 28.8444 36.58 28.8117C36.58 28.7789 36.58 28.7133 36.58 28.6478H36.6128ZM24.8128 37.3339C25.2389 37.2028 25.4683 36.9406 25.6322 36.5472C25.7961 36.0883 25.665 35.6622 25.3044 35.3344C24.8783 34.9739 24.2556 34.9411 23.7639 35.2689C23.4033 35.4983 23.305 35.9244 23.3378 36.3178C23.3378 36.7439 23.5017 37.0389 23.895 37.2683C24.3539 37.5306 24.5178 37.465 24.8128 37.3667V37.3339ZM35.2361 37.0389C35.2361 37.0389 35.4 36.7439 35.4983 36.6128C35.695 36.3178 35.4983 35.4656 35.0394 35.2361C34.5478 34.9739 33.925 35.0067 33.7611 35.1706L33.4661 35.4656C32.9744 35.99 33.1711 36.9078 33.6628 37.1372C33.8922 37.2356 34.0889 37.3994 34.3511 37.3994C34.6461 37.3994 34.9739 37.2356 35.2033 37.0389H35.2361Z" fill="white"/>
</g>
</g>
<defs>
<filter id="filter0_d_214_187" x="3.75165" y="4.57222" width="51.4966" height="57.8556" filterUnits="userSpaceOnUse" color-interpolation-filters="sRGB">
<feFlood flood-opacity="0" result="BackgroundImageFix"/>
<feColorMatrix in="SourceAlpha" type="matrix" values="0 0 0 0 0 0 0 0 0 0 0 0 0 0 0 0 0 0 127 0" result="hardAlpha"/>
<feOffset dy="4"/>
<feGaussianBlur stdDeviation="2"/>
<feComposite in2="hardAlpha" operator="out"/>
<feColorMatrix type="matrix" values="0 0 0 0 0 0 0 0 0 0 0 0 0 0 0 0 0 0 0.25 0"/>
<feBlend mode="normal" in2="BackgroundImageFix" result="effect1_dropShadow_214_187"/>
<feBlend mode="normal" in="SourceGraphic" in2="effect1_dropShadow_214_187" result="shape"/>
</filter>
<filter id="filter1_d_214_187" x="9.85992" y="12.6792" width="36.0002" height="34.2426" filterUnits="userSpaceOnUse" color-interpolation-filters="sRGB">
<feFlood flood-opacity="0" result="BackgroundImageFix"/>
<feColorMatrix in="SourceAlpha" type="matrix" values="0 0 0 0 0 0 0 0 0 0 0 0 0 0 0 0 0 0 127 0" result="hardAlpha"/>
<feOffset dy="4"/>
<feGaussianBlur stdDeviation="2"/>
<feComposite in2="hardAlpha" operator="out"/>
<feColorMatrix type="matrix" values="0 0 0 0 0 0 0 0 0 0 0 0 0 0 0 0 0 0 0.25 0"/>
<feBlend mode="normal" in2="BackgroundImageFix" result="effect1_dropShadow_214_187"/>
<feBlend mode="normal" in="SourceGraphic" in2="effect1_dropShadow_214_187" result="shape"/>
</filter>
<linearGradient id="paint0_linear_214_187" x1="8.75165" y1="10.3775" x2="50.2483" y2="48.6225" gradientUnits="userSpaceOnUse">
<stop stop-color="white"/>
<stop offset="1" stop-color="#666666" stop-opacity="0"/>
</linearGradient>
<clipPath id="clip0_214_187">
<rect width="59" height="59" fill="white"/>
</clipPath>
</defs>
</svg>
