<svg width="50" height="50" viewBox="0 0 50 50" fill="none" xmlns="http://www.w3.org/2000/svg">
<path d="M37.6944 4.72223H12.3055C9.61107 4.72223 7.41663 7.08334 7.41663 10.0278V32.9444C7.41663 35.8611 9.61107 38.25 12.3055 38.25H19.5277C22.0277 42.4167 24.3611 45.2778 25 45.2778C25.6388 45.2778 27.9722 42.3889 30.4722 38.25H37.6944C40.3888 38.25 42.5833 35.8889 42.5833 32.9444V10.0278C42.5833 7.11112 40.3888 4.72223 37.6944 4.72223Z" fill="#B02E2A" stroke="black" stroke-width="0.75" stroke-miterlimit="10"/>
<path d="M30.8334 29.1389C31.5278 29.8056 31.5834 31.1667 31.0278 31.9167L30.8611 32.1389C30.75 32.3056 30.3889 32.5556 30.3889 32.5556C30.1667 32.6389 29.9722 32.8333 29.75 32.8889C29.4445 32.9444 29.0556 32.9444 28.7222 32.8889C28.3334 32.8333 27.9722 32.6111 27.6667 32.3889C27.5278 32.2778 27.1667 31.8333 27.1111 31.6944C26.9445 31.3333 26.9445 31 26.8611 30.6667C26.7778 30.3333 27.0834 29.6944 27.2778 29.3889C27.3056 29.3333 27.4722 29.25 27.4167 29.1389C27.0556 29.0278 26.6389 29.1389 26.1111 29.1389C25.7778 29.1111 25.4445 29.1111 25.1111 29.1389C24.6945 29.1667 24.1111 29.0833 23.8889 29.1389C23.4167 29.1944 22.9445 29.1389 22.4445 29.1389C22.5834 29.3611 22.7222 29.4444 22.7778 29.6389C22.7778 29.7222 22.8611 29.7778 22.9445 29.8333C22.9167 30 23.0278 30.1667 23.0556 30.3333C23.0834 30.6111 23.0834 30.9167 23.0556 31.1944C23.0556 31.2222 22.7222 31.9722 22.75 31.9722L22.5278 32.2222C22.3611 32.4167 22.1389 32.5556 21.9445 32.7222C21.9445 32.7222 21.4722 32.9444 21.4445 32.9722C21.0556 32.9722 20.6111 33 20.2222 32.9722L19.9445 32.8333C19.7778 32.75 19.5834 32.6944 19.4722 32.5833L19.1111 32.25C19.1111 32.25 18.9445 32.1111 18.8889 32C18.7778 31.75 18.6389 31.4722 18.5834 31.2222C18.5834 31.1111 18.5834 31 18.5 30.8889C18.4167 30.75 18.5556 30.6111 18.5556 30.4722C18.5556 30.1944 18.6389 29.9444 18.7778 29.6944C18.9167 29.4167 19.1667 29.3333 19.0556 29.1944C18.6667 29.1389 18.1389 29.3889 17.9445 28.8889C17.8611 28.6667 17.8611 28.4722 17.9445 28.25C18.0278 28.0556 18.0556 27.8056 18.1667 27.6111C18.25 27.4722 18.2778 27.3333 18.3334 27.1944C18.3889 27.0556 18.4722 26.8889 18.4722 26.6944C18.4722 26.6111 18.5834 26.5 18.6111 26.4167L18.8611 25.6111C18.8611 25.6111 18.9722 25.3889 19 25.2778C19.0278 25.0556 19.2222 24.9722 19.3889 24.8611C19.4722 24.6389 19.2778 24.3889 19.1945 24.1944C19.1111 24 19.0834 23.8333 19.0278 23.6389C18.9722 23.4167 18.8611 23.2222 18.8056 23L18.6667 22.5556C18.5834 22.2778 18.4445 22.0278 18.3611 21.75C18.3056 21.5278 18.2222 21.3333 18.1111 21.1389C18.1667 21.25 17.8889 20.4167 17.8889 20.3889L17.6389 19.6944L17.3611 18.9167C17.3056 18.6111 17.1945 18.3333 17.0556 18.0556C16.9722 17.8611 16.9445 17.6111 16.8611 17.3889L16.7222 17.0833C16.6667 16.9444 16.6111 16.8056 16.5556 16.6389L16.4167 16.1667C16.5556 16.6111 16.0834 15.1944 16.1667 15.5L15.75 14.3333C15.6945 14.1667 15.6389 14.0556 15.5834 13.8889C15.5278 13.75 15.5278 13.5 15.3334 13.4444C15.0834 13.3889 14.8889 13.25 14.6667 13.1667C14.3611 13.0556 14.0556 12.9722 13.75 12.7778C13.8334 12.8333 13 12.5278 13.0556 12.5556C12.8889 12.4722 12.75 12.3889 12.5278 12.3333C12.2222 12.25 11.9167 12.0556 11.7778 11.75C11.75 11.6111 11.7222 11.3611 11.7778 11.1944C11.8334 11.0278 12.1111 10.8333 12.25 10.7778C12.6389 10.6944 12.9445 10.7778 13.25 10.9444C13.4722 11.0556 13.7222 11.1389 13.9445 11.2222L14.5 11.4444C14.6945 11.5278 14.9167 11.5556 15.1111 11.6667C15.2778 11.75 16.3611 12.1944 16.3889 12.2222C16.6667 12.4167 16.7778 12.75 16.8611 13.0556C16.8889 13.1944 17 13.2778 17.0278 13.4167L17.2222 14.0556C17.2778 14.25 17.3334 14.4722 17.4445 14.6667C18.1111 14.6389 17.9445 14.7778 18.75 14.6667C19.4722 14.5833 19.6111 14.7778 20.3611 14.6667C20.6111 14.6389 20.8611 14.6389 21.1111 14.6667C21.8334 14.7778 22.0556 14.5833 22.7222 14.6667C23.4445 14.7778 23.6667 14.5833 24.3334 14.6667C25.0556 14.7778 25.2778 14.5833 25.9445 14.6667C26.6667 14.7778 26.8889 14.5833 27.5556 14.6667C28.2778 14.7778 28.5 14.5833 29.1667 14.6667C29.8889 14.7778 30.1111 14.5833 30.7778 14.6667C31.4722 14.7778 31.7222 14.5833 32.3611 14.6667C33 14.75 33.4722 14.5556 33.9445 14.6667C34.2778 14.75 34.5556 14.6667 34.8889 14.6667C35.0834 14.6667 35.3611 14.9722 35.4167 15.1389C35.4722 15.3056 35.5 15.5556 35.4445 15.7222C35.2778 16.1667 35.1111 16.5833 35 17.0278C34.9722 17.1667 34.9167 17.3333 34.8611 17.4444C34.75 17.6667 34.75 17.8611 34.6945 18.0833C34.5556 18.5556 34.3056 19 34.2222 19.5C34.2222 19.6111 34.2222 19.6389 34.1667 19.75C34.0278 19.9722 34.0278 20.25 33.9167 20.5C33.7222 20.9722 33.7222 20.9722 33.5834 21.4722C33.5278 21.6389 33.4445 21.75 33.4722 21.9167C33.4722 22.0556 33.3334 22.1667 33.3056 22.3056L33.1667 22.8333C33.1389 23 33.1111 23.0833 33.0278 23.2222C32.9167 23.4722 32.8611 23.75 32.75 24C32.6945 24.1667 32.6667 24.3333 32.6111 24.5L32.5 24.8889C32.4167 25.1667 32.2778 25.6944 32.0834 25.8611C31.9167 25.9722 31.6389 26.0278 31.5556 26.1111H20.3889C20.3889 26.1111 20.1389 26 20.0834 26.1111L19.3889 27.9722H20.25C20.6111 27.9722 20.9722 28 21.3334 27.9722C21.5556 27.9722 21.7778 27.9722 22 27.9722C22.6111 28.0278 23 27.9167 23.6111 27.9722C24.2222 28.0278 24.6111 27.9167 25.2222 27.9722C25.8334 28.0278 26.2222 27.9167 26.8334 27.9722C27.4445 28.0278 27.8334 27.9167 28.4445 27.9722C29.0556 28.0278 29.4445 27.9167 30.0556 27.9722C30.6667 28.0278 31.0278 27.9167 31.6667 27.9722C31.8611 27.9722 32.1111 28.1389 32.1945 28.3056C32.3611 28.5278 32.2778 28.8333 32.1389 29.0556C31.9445 29.3333 31.2778 29.1667 30.9445 29.25L30.8334 29.1389ZM22.7222 17.7222V16.1111C22.4445 16.1111 22.1945 16.1111 21.9722 16.1111C21.3889 16 21.0556 16.2222 20.3334 16.1111C20.0834 16.0833 19.8334 16.0833 19.6111 16.1111C18.9167 16.2222 18.6945 16.0278 18 16.1111C18.1111 16.3056 18.1389 16.4167 18.1945 16.5556L18.5278 17.6111C18.5278 17.6111 18.5834 17.7222 18.6111 17.75C18.6111 17.75 19.3334 17.75 19.5556 17.75C19.8334 17.75 20.1111 17.75 20.3889 17.75C20.9722 17.6944 21.4722 17.8056 21.9722 17.75C22.2222 17.7222 22.4167 17.7778 22.6945 17.7222H22.7222ZM27.7222 17.7778V16.0556C27.0278 16.25 26.7222 16 26 16.0833C25.75 16.1111 25.4722 16.1389 25.2222 16.0833C25.0556 16.0556 24.3611 16.0278 24.2222 16.1389V17.7222C24.5834 17.8056 24.9167 17.7778 25.25 17.7222C25.75 17.6944 26.2222 17.7778 26.5556 17.7222C26.9445 17.6944 27.3056 17.6944 27.75 17.7222L27.7222 17.7778ZM33.3334 17.1111C33.4445 16.7778 33.6111 16.5 33.6389 16.1389C33.1389 16.1389 32.9167 16.0278 32.3889 16.1389C31.75 16.25 31.4167 16.0556 30.8334 16.1389C30.1111 16.25 29.9167 16.0556 29.2778 16.1389V17.8056C29.5556 17.8056 29.7778 17.8056 30 17.8056C30.6389 17.75 30.9445 17.8611 31.5834 17.8056C32.1667 17.75 32.5278 17.8611 33.1111 17.8056C33.1945 17.5833 33.25 17.3611 33.3056 17.1389L33.3334 17.1111ZM22.7222 21.25V19.3333C22.4722 19.3333 22.25 19.3611 22 19.3333C21.7222 19.2778 21.4167 19.2778 21.1389 19.3333C20.4722 19.4444 20.1667 19.1944 19.4445 19.3333C19.3611 19.3333 19.25 19.2778 19.1667 19.3889C19.2222 19.5278 19.2778 19.6667 19.3334 19.8056L19.5278 20.3333C19.5278 20.3333 19.7778 21.25 19.9722 21.25H22.75H22.7222ZM27.7222 19.3056C26.8056 19.4444 26.6667 19.1667 25.8611 19.3333C25.6667 19.3611 25.5 19.3333 25.3056 19.3333C24.9445 19.25 24.5556 19.25 24.1945 19.3333V21.2222H27.5C27.5556 21.2222 27.7222 21.2222 27.7222 21.1667V19.2778V19.3056ZM32.6111 19.3056C31.7778 19.4722 31.3889 19.2222 30.75 19.3333C30.5278 19.3889 30.3056 19.3333 30.0834 19.3333C29.8056 19.2778 29.5278 19.25 29.25 19.3333V21.25H31.8889C32.0278 21.25 32.0834 21.1389 32.0834 21C32.1667 20.7778 32.25 20.5556 32.3056 20.3333L32.6111 19.2778V19.3056ZM20.9445 24.4722H22.7222V22.8333H20.3611L20.5834 23.5C20.6389 23.6944 20.6945 23.8889 20.8056 24.0556C20.8889 24.1667 20.8056 24.3611 20.9445 24.4722ZM27.7222 22.8056H24.1945V24.4444H27.7222V22.8056ZM31.0278 24.2778C31.2222 23.8056 31.3611 23.3056 31.4722 22.8056H29.25V24.4444H30.8334C30.8334 24.4444 30.9722 24.4444 31 24.4167C31 24.3889 31 24.3333 31 24.2778H31.0278ZM21.0278 31.6389C21.3889 31.5278 21.5834 31.3056 21.7222 30.9722C21.8611 30.5833 21.75 30.2222 21.4445 29.9444C21.0834 29.6389 20.5556 29.6111 20.1389 29.8889C19.8334 30.0833 19.75 30.4444 19.7778 30.7778C19.7778 31.1389 19.9167 31.3889 20.25 31.5833C20.6389 31.8056 20.7778 31.75 21.0278 31.6667V31.6389ZM29.8611 31.3889C29.8611 31.3889 30 31.1389 30.0834 31.0278C30.25 30.7778 30.0834 30.0556 29.6945 29.8611C29.2778 29.6389 28.75 29.6667 28.6111 29.8056L28.3611 30.0556C27.9445 30.5 28.1111 31.2778 28.5278 31.4722C28.7222 31.5556 28.8889 31.6944 29.1111 31.6944C29.3611 31.6944 29.6389 31.5556 29.8334 31.3889H29.8611Z" fill="white"/>
</svg>
