<svg width="59" height="59" viewBox="0 0 59 59" fill="none" xmlns="http://www.w3.org/2000/svg">
<g clip-path="url(#clip0_214_219)">
<g filter="url(#filter0_d_214_219)">
<path d="M44.4794 5.57222H14.5205C11.3411 5.57222 8.75165 8.35833 8.75165 11.8328V38.8744C8.75165 42.3161 11.3411 45.135 14.5205 45.135H23.0428C25.9928 50.0517 28.7461 53.4278 29.5 53.4278C30.2539 53.4278 33.0072 50.0189 35.9572 45.135H44.4794C47.6589 45.135 50.2483 42.3489 50.2483 38.8744V11.8328C50.2483 8.39111 47.6589 5.57222 44.4794 5.57222Z" fill="#55A462"/>
</g>
<g filter="url(#filter1_d_214_219)">
<mask id="mask0_214_219" style="mask-type:luminance" maskUnits="userSpaceOnUse" x="8" y="5" width="43" height="49">
<path d="M44.4794 5.57222H14.5205C11.3411 5.57222 8.75165 8.35833 8.75165 11.8328V38.8744C8.75165 42.3161 11.3411 45.135 14.5205 45.135H23.0428C25.9928 50.0517 28.7461 53.4278 29.5 53.4278C30.2539 53.4278 33.0072 50.0189 35.9572 45.135H44.4794C47.6589 45.135 50.2483 42.3489 50.2483 38.8744V11.8328C50.2483 8.39111 47.6589 5.57222 44.4794 5.57222Z" fill="white"/>
<path d="M14.5202 6.07222H44.4792C47.3443 6.07222 49.7487 8.62768 49.7487 11.833V38.874C49.7487 42.1103 47.346 44.6347 44.4792 44.6347H35.6755L35.529 44.8769C34.0619 47.3057 32.6479 49.361 31.5124 50.8037C30.9435 51.5264 30.4522 52.0854 30.0651 52.4589C29.8708 52.6465 29.7134 52.7766 29.5944 52.8564C29.553 52.8842 29.5208 52.8991 29.4997 52.9101C29.4785 52.8992 29.4459 52.8843 29.404 52.8564C29.2852 52.7774 29.1282 52.6488 28.9343 52.4628C28.5475 52.092 28.0557 51.5359 27.487 50.8154C26.3519 49.3772 24.9381 47.3224 23.4714 44.8779L23.3259 44.6347H14.5202C11.6552 44.6345 9.25165 42.0791 9.25165 38.874V11.833C9.25165 8.59679 11.6536 6.07242 14.5202 6.07222Z" stroke="white"/>
</mask>
<g mask="url(#mask0_214_219)">
<path d="M8.84995 27.3081C17.7655 24.6203 25.2716 23.6042 30.6799 23.2109C31.3027 23.1781 45.7905 22.162 46.5116 25.2431C46.8722 26.7836 43.4633 27.9964 43.2338 31.3725C43.0699 33.7653 44.6433 35.6664 45.2333 36.4203C49.4616 41.5992 58.1149 40.1242 58.8361 39.9931C52.3788 44.4509 45.9216 48.9086 39.4644 53.3664C36.1866 50.5148 33.6299 47.9253 31.8272 45.9259C29.7622 43.6642 29.1394 42.812 29.0738 41.632C28.9755 40.0259 29.8933 39.0753 33.0727 34.4209C35.7605 30.4875 36.2849 29.4386 35.8916 28.6192C35.3672 27.5703 33.4988 27.4392 32.2533 27.4392C25.2716 27.4064 13.3077 30.7825 8.25995 32.2575C8.45662 30.5859 8.65328 28.947 8.84995 27.2753V27.3081Z" fill="white"/>
<path d="M30.7062 23.7102C31.0258 23.6934 34.7787 23.4327 38.5422 23.5588C40.4274 23.622 42.2872 23.782 43.7092 24.1086C44.422 24.2724 44.9961 24.4712 45.4016 24.7034C45.8124 24.9386 45.9797 25.1656 46.0246 25.3567C46.0657 25.5324 46.019 25.7453 45.7766 26.0862C45.5274 26.4364 45.167 26.7969 44.7248 27.2825C43.8742 28.2165 42.8615 29.4721 42.7346 31.3381C42.5556 33.9505 44.2684 35.9996 44.8391 36.7288L44.8459 36.7366C47.0837 39.4774 50.4653 40.4281 53.3029 40.6956C54.6587 40.8234 55.9118 40.7946 56.8937 40.7249C54.2178 42.5722 51.5424 44.4204 48.8664 46.2678C45.7449 48.4228 42.6227 50.5777 39.5012 52.7327C36.3792 49.9956 33.9342 47.5162 32.1984 45.5911L32.1965 45.5891L31.4836 44.7981C29.988 43.1092 29.6206 42.4521 29.5734 41.6038L29.5724 41.6018L29.5676 41.3577C29.5777 40.7984 29.7586 40.2814 30.2726 39.428C30.8776 38.4238 31.8807 37.0527 33.4855 34.7034C34.825 32.7432 35.6503 31.4666 36.0871 30.5715C36.5257 29.6728 36.6399 29.0232 36.342 28.4026L36.3391 28.3958L36.2658 28.2629C35.8748 27.6216 35.1365 27.3112 34.4582 27.1497C33.7124 26.9721 32.8877 26.9388 32.2551 26.9387C28.7028 26.9221 23.9187 27.77 19.4201 28.7952C15.3167 29.7303 11.4168 30.8234 8.84393 31.5686C8.91285 30.9857 8.983 30.4057 9.05194 29.8254C9.13607 29.1174 9.21973 28.409 9.30389 27.6956C18.0364 25.0913 25.3899 24.0964 30.7053 23.7092L30.7062 23.7102Z" stroke="white" stroke-opacity="0.5"/>
<path d="M40.9066 24.1287C40.0544 24.6859 38.8088 24.7187 37.9566 24.1287C38.5466 23.3748 38.8416 22.5225 38.4811 21.5064C37.4977 22.0637 34.9411 22.3259 34.7116 21.1459C35.1377 20.8509 35.7605 20.982 36.1866 20.4575C35.6622 20.1298 35.1377 20.1625 34.7444 19.6381C35.4655 19.1792 36.2522 18.8842 36.7111 18.1631C36.1538 17.9009 35.5638 17.9009 35.2033 17.3764C36.0555 16.6553 36.9077 16.1637 37.6288 15.377C37.2355 15.1148 36.8422 15.1803 36.4488 14.8198C37.4649 13.5414 38.3172 12.2959 39.1038 10.9192C39.1694 10.7881 39.3333 10.657 39.4316 10.6242C39.5299 10.5914 39.7266 10.7553 39.8249 10.9192C40.6116 12.2959 41.4638 13.5414 42.4799 14.8198C42.0866 15.1803 41.7261 15.1148 41.2999 15.377C41.7588 16.0325 43.6599 17.0814 43.6272 17.442C43.6272 17.8353 42.2833 17.9664 42.2505 18.2287C42.7749 18.917 43.4961 19.212 44.1844 19.6381C43.7583 20.1625 43.2338 20.1298 42.7094 20.4575C43.1683 20.9164 43.7255 20.8837 44.2172 21.1131C44.0205 22.2275 41.4966 22.1292 40.4805 21.5064C40.0216 22.3587 40.2838 23.3092 40.9394 24.1287H40.9066Z" fill="white"/>
<path d="M39.4645 11.2919C40.1486 12.4763 40.8817 13.5681 41.7263 14.6669C41.5622 14.7179 41.3029 14.7879 41.0378 14.951L40.5866 15.2294L40.8903 15.6639C41.0488 15.8903 41.3033 16.1165 41.5475 16.3143C41.8008 16.5194 42.0914 16.7314 42.3513 16.9227C42.5749 17.0874 42.7706 17.2365 42.9235 17.3632C42.8829 17.3779 42.8394 17.3949 42.7917 17.411C42.6415 17.4617 42.4384 17.5247 42.2849 17.5897C42.2074 17.6225 42.1093 17.669 42.0222 17.7333C41.9487 17.7875 41.7847 17.9262 41.7546 18.1669L41.7292 18.369L41.8532 18.5321C42.1631 18.9387 42.5259 19.2212 42.8854 19.452C43.0074 19.5303 43.1316 19.6037 43.2526 19.6737C43.0522 19.7487 42.7341 19.8518 42.444 20.0331L41.9118 20.3671L42.3561 20.8114C42.6681 21.1233 43.0108 21.2606 43.3054 21.3495C43.1245 21.4089 42.896 21.4494 42.6325 21.4618C41.915 21.4956 41.1388 21.3232 40.7419 21.08L40.2907 20.8036L40.0407 21.2694C39.5564 22.1688 39.722 23.1155 40.194 23.9247C39.7131 24.0953 39.1621 24.1036 38.6882 23.9403C39.1225 23.1982 39.3046 22.3329 38.9518 21.3387L38.7526 20.7772L38.2341 21.0712C37.8379 21.2956 37.046 21.4887 36.321 21.4774C36.0267 21.4728 35.7765 21.4325 35.5856 21.368C35.8815 21.2889 36.2646 21.1551 36.5749 20.7733L36.9313 20.3339L36.4518 20.0331C36.1693 19.8565 35.8566 19.7521 35.6608 19.6786C35.804 19.5968 35.9526 19.5122 36.0964 19.4198C36.4702 19.1795 36.8483 18.8781 37.1325 18.4315L37.4382 17.952L36.9235 17.7108C36.755 17.6315 36.5896 17.574 36.445 17.5272C36.2911 17.4774 36.1759 17.444 36.0593 17.4003C36.0395 17.3929 36.021 17.3833 36.0026 17.3759C36.2541 17.1824 36.5064 16.9979 36.7673 16.7997C37.184 16.483 37.6066 16.1415 37.9977 15.7147L38.3913 15.285L37.9059 14.9608C37.6439 14.7862 37.3715 14.7141 37.2048 14.663C38.0482 13.5653 38.7812 12.475 39.4645 11.2919Z" stroke="white" stroke-opacity="0.5"/>
<path d="M31.8272 24.5548C31.0405 25.0792 29.8605 25.0792 29.0738 24.5548C29.6311 23.8664 29.8933 23.047 29.5655 22.0964C28.6477 22.6209 26.255 22.8503 26.0255 21.7687C26.4516 21.5064 27.0088 21.6048 27.4022 21.1459C26.9105 20.8181 26.4188 20.8509 26.0583 20.392C26.7466 19.9659 27.4677 19.7037 27.8938 19.0153C27.3694 18.7531 26.8122 18.7531 26.4844 18.2942C27.2711 17.6387 28.0905 17.1798 28.7461 16.4259C28.3527 16.1964 28.025 16.262 27.6644 15.9014C28.615 14.7214 29.4016 13.5414 30.1227 12.2631C30.1883 12.132 30.3194 12.0337 30.4177 12.0009C30.5161 11.9681 30.7127 12.132 30.7783 12.2631C31.4994 13.5414 32.3188 14.7214 33.2366 15.9014C32.8761 16.262 32.5155 16.1964 32.155 16.4259C32.5811 17.0487 34.3511 18.032 34.3183 18.3598C34.3183 18.7203 33.0727 18.8514 33.04 19.1137C33.5316 19.7364 34.1872 20.0314 34.8427 20.4248C34.4494 20.9164 33.9577 20.8837 33.4661 21.2114C33.8922 21.6376 34.4166 21.6048 34.8755 21.8014C34.6788 22.8503 32.3516 22.752 31.3683 22.162C30.9422 22.9487 31.2044 23.8337 31.7944 24.6203L31.8272 24.5548Z" fill="white"/>
<path d="M30.4503 12.6939C31.0653 13.7625 31.7453 14.7641 32.4913 15.7515C32.3462 15.7947 32.1088 15.8632 31.8868 16.0045L31.4503 16.2818L31.7423 16.7086C31.8924 16.9278 32.1326 17.1446 32.3605 17.3316C32.5973 17.5259 32.8686 17.7255 33.1105 17.9048C33.2957 18.0422 33.4592 18.1679 33.5929 18.2759C33.5714 18.2837 33.549 18.2931 33.5255 18.3013C33.3856 18.3504 33.1952 18.4136 33.048 18.48C32.9736 18.5136 32.8786 18.5617 32.7941 18.6285C32.7186 18.6881 32.5725 18.8249 32.5441 19.0513L32.5177 19.2593L32.6476 19.4234C33.0117 19.8846 33.465 20.1965 33.8995 20.4556C33.7097 20.5273 33.4402 20.6278 33.1886 20.7955L32.6808 21.1334L33.1124 21.565C33.3635 21.8161 33.6377 21.9453 33.8859 22.0289C33.745 22.0633 33.58 22.0889 33.3947 22.0972C32.7339 22.1269 32.0103 21.9641 31.6251 21.733L31.1779 21.4644L30.9288 21.9234C30.4811 22.7501 30.6362 23.618 31.0402 24.3677C30.6462 24.4782 30.2045 24.4727 29.8146 24.3531C30.2071 23.6603 30.3526 22.845 30.0382 21.9332L29.8419 21.3629L29.3175 21.6627C28.9564 21.869 28.2235 22.0459 27.546 22.0347C27.3357 22.0312 27.1497 22.0067 26.9943 21.9703C27.2433 21.8908 27.534 21.7597 27.7814 21.4713L28.1486 21.0425L27.6798 20.73C27.4508 20.5774 27.209 20.4834 27.0245 20.4146C27.1307 20.354 27.2385 20.2907 27.3439 20.2232C27.697 19.9969 28.0521 19.7107 28.3195 19.2789L28.6075 18.813L28.1173 18.5679C27.8448 18.4317 27.508 18.3346 27.3243 18.2711C27.5327 18.1155 27.7445 17.9627 27.9659 17.7955C28.3601 17.4977 28.7614 17.1704 29.1232 16.7545L29.5197 16.2984L28.9982 15.9937C28.7786 15.8656 28.5553 15.8012 28.4132 15.7584C29.1797 14.7638 29.8391 13.76 30.4503 12.6939Z" stroke="white" stroke-opacity="0.5"/>
<path d="M22.6494 24.9153C21.9611 25.3742 20.9122 25.407 20.1911 24.9153C20.6827 24.2925 20.9122 23.5714 20.6172 22.752C19.7977 23.2109 17.6672 23.4075 17.4705 22.457C17.8311 22.2275 18.3555 22.3259 18.7161 21.8998C18.29 21.6375 17.8311 21.6375 17.5361 21.2114C18.1261 20.8181 18.7816 20.5887 19.175 19.9659C18.7161 19.7364 18.2244 19.7364 17.9294 19.3103C18.6177 18.7203 19.3389 18.327 19.9289 17.6387C19.6011 17.442 19.2733 17.4748 18.9455 17.1798C19.765 16.1309 20.4861 15.082 21.1416 13.9675C21.2072 13.8692 21.3383 13.7381 21.4039 13.7381C21.4694 13.7381 21.6661 13.8692 21.7316 13.9675C22.3872 15.1148 23.0755 16.1309 23.9277 17.1798C23.6 17.4748 23.305 17.442 22.9444 17.6387C23.3377 18.1959 24.8783 19.0481 24.8783 19.3431C24.8783 19.6709 23.7639 19.7692 23.7311 19.9987C24.19 20.5559 24.7472 20.8181 25.3372 21.1787C24.9766 21.6048 24.5505 21.572 24.1244 21.867C24.5177 22.2603 24.9439 22.2275 25.37 22.3914C25.2061 23.3092 23.1083 23.2109 22.2561 22.7192C21.8955 23.4075 22.0922 24.1942 22.6166 24.8825L22.6494 24.9153Z" fill="white"/>
<path d="M21.4344 14.451C21.9613 15.3525 22.5152 16.1805 23.159 17.0135C23.0339 17.0534 22.8692 17.1104 22.7049 17.2L22.2127 17.4686L22.5359 17.9266C22.6766 18.1258 22.8931 18.3203 23.0965 18.4861C23.3079 18.6586 23.5487 18.8347 23.7625 18.992C23.8898 19.0856 24.0054 19.172 24.1063 19.2498C23.9896 19.2881 23.8432 19.3361 23.7274 19.3856C23.6596 19.4145 23.5703 19.4572 23.4891 19.5184C23.4181 19.5718 23.2684 19.7026 23.2361 19.9276L23.2049 20.1463L23.3455 20.3162C23.6582 20.6959 24.0198 20.9618 24.3738 21.1844C24.2177 21.2456 24.0237 21.3284 23.8397 21.4559L23.3475 21.7967L23.7713 22.2205C23.9326 22.3818 24.1002 22.4882 24.2625 22.5662C24.1957 22.5744 24.1247 22.5815 24.0496 22.5848C23.4623 22.6106 22.8261 22.4708 22.5057 22.2859L22.0545 22.0262L21.8133 22.4871C21.4236 23.2311 21.5421 24.0217 21.909 24.7049C21.5929 24.7912 21.2418 24.7945 20.9236 24.7068C21.2536 24.0901 21.3725 23.374 21.0877 22.5828L20.8875 22.0272L20.3729 22.3152C20.0602 22.4903 19.4158 22.6437 18.8192 22.6326C18.7298 22.631 18.6461 22.6246 18.5682 22.616C18.7458 22.5365 18.9326 22.4173 19.0975 22.2225L19.4734 21.7791L18.9783 21.4734C18.8105 21.3702 18.619 21.292 18.4676 21.2332C18.5441 21.1882 18.6238 21.1445 18.7 21.0955C19.0171 20.8916 19.3461 20.631 19.5975 20.2332L19.8924 19.7654L19.3983 19.5184C19.2529 19.4457 19.1106 19.3947 18.9881 19.3533C18.902 19.3243 18.8355 19.3005 18.7723 19.2791C18.9321 19.1593 19.0963 19.0406 19.2684 18.91C19.6179 18.6447 19.9788 18.3483 20.3084 17.9637L20.6942 17.5145L20.1863 17.2098C20.0166 17.1079 19.8374 17.0488 19.7059 17.0076C20.334 16.1733 20.9051 15.3317 21.4344 14.451Z" stroke="white" stroke-opacity="0.5"/>
</g>
<path d="M44.4794 5.57222H14.5205C11.3411 5.57222 8.75165 8.35833 8.75165 11.8328V38.8744C8.75165 42.3161 11.3411 45.135 14.5205 45.135H23.0428C25.9928 50.0517 28.7461 53.4278 29.5 53.4278C30.2539 53.4278 33.0072 50.0189 35.9572 45.135H44.4794C47.6589 45.135 50.2483 42.3489 50.2483 38.8744V11.8328C50.2483 8.39111 47.6589 5.57222 44.4794 5.57222Z" fill="url(#paint0_linear_214_219)" fill-opacity="0.5" stroke="white" stroke-opacity="0.5" stroke-width="0.75" stroke-miterlimit="10"/>
</g>
</g>
<defs>
<filter id="filter0_d_214_219" x="4.75165" y="5.57222" width="49.4966" height="55.8555" filterUnits="userSpaceOnUse" color-interpolation-filters="sRGB">
<feFlood flood-opacity="0" result="BackgroundImageFix"/>
<feColorMatrix in="SourceAlpha" type="matrix" values="0 0 0 0 0 0 0 0 0 0 0 0 0 0 0 0 0 0 127 0" result="hardAlpha"/>
<feOffset dy="4"/>
<feGaussianBlur stdDeviation="2"/>
<feComposite in2="hardAlpha" operator="out"/>
<feColorMatrix type="matrix" values="0 0 0 0 0 0 0 0 0 0 0 0 0 0 0 0 0 0 0.25 0"/>
<feBlend mode="normal" in2="BackgroundImageFix" result="effect1_dropShadow_214_219"/>
<feBlend mode="normal" in="SourceGraphic" in2="effect1_dropShadow_214_219" result="shape"/>
</filter>
<filter id="filter1_d_214_219" x="4.37665" y="5.19722" width="50.2466" height="56.6055" filterUnits="userSpaceOnUse" color-interpolation-filters="sRGB">
<feFlood flood-opacity="0" result="BackgroundImageFix"/>
<feColorMatrix in="SourceAlpha" type="matrix" values="0 0 0 0 0 0 0 0 0 0 0 0 0 0 0 0 0 0 127 0" result="hardAlpha"/>
<feOffset dy="4"/>
<feGaussianBlur stdDeviation="2"/>
<feComposite in2="hardAlpha" operator="out"/>
<feColorMatrix type="matrix" values="0 0 0 0 0 0 0 0 0 0 0 0 0 0 0 0 0 0 0.25 0"/>
<feBlend mode="normal" in2="BackgroundImageFix" result="effect1_dropShadow_214_219"/>
<feBlend mode="normal" in="SourceGraphic" in2="effect1_dropShadow_214_219" result="shape"/>
</filter>
<linearGradient id="paint0_linear_214_219" x1="8.75165" y1="11.094" x2="50.2483" y2="47.906" gradientUnits="userSpaceOnUse">
<stop stop-color="white"/>
<stop offset="1" stop-color="#737373" stop-opacity="0"/>
</linearGradient>
<clipPath id="clip0_214_219">
<rect width="59" height="59" fill="white"/>
</clipPath>
</defs>
</svg>
