<svg width="60" height="60" viewBox="0 0 60 60" fill="none" xmlns="http://www.w3.org/2000/svg">
<path d="M45.2334 5.66666H14.7667C11.5334 5.66666 8.90002 8.49999 8.90002 12.0333V39.5333C8.90002 43.0333 11.5334 45.9 14.7667 45.9H23.4334C26.4334 50.9 29.2334 54.3333 30 54.3333C30.7667 54.3333 33.5667 50.8667 36.5667 45.9H45.2334C48.4667 45.9 51.1 43.0667 51.1 39.5333V12.0333C51.1 8.53332 48.4667 5.66666 45.2334 5.66666Z" fill="#55A462" stroke="black" stroke-miterlimit="10"/>
<mask id="mask0_62_1063" style="mask-type:luminance" maskUnits="userSpaceOnUse" x="8" y="5" width="44" height="50">
<path d="M45.2334 5.66666H14.7667C11.5334 5.66666 8.90002 8.49999 8.90002 12.0333V39.5333C8.90002 43.0333 11.5334 45.9 14.7667 45.9H23.4334C26.4334 50.9 29.2334 54.3333 30 54.3333C30.7667 54.3333 33.5667 50.8667 36.5667 45.9H45.2334C48.4667 45.9 51.1 43.0667 51.1 39.5333V12.0333C51.1 8.53332 48.4667 5.66666 45.2334 5.66666Z" fill="white"/>
</mask>
<g mask="url(#mask0_62_1063)">
<path d="M8.90005 25.1333C17.9667 22.4 25.6 21.3666 31.1 20.9666C31.7334 20.9333 46.4667 19.9 47.2 23.0333C47.5667 24.6 44.1 25.8333 43.8667 29.2666C43.7 31.7 45.3001 33.6333 45.9001 34.4C50.2 39.6666 59 38.1666 59.7334 38.0333C53.1667 42.5666 46.6 47.1 40.0334 51.6333C36.7 48.7333 34.1001 46.1 32.2667 44.0666C30.1667 41.7666 29.5334 40.9 29.4667 39.7C29.3667 38.0666 30.3001 37.1 33.5334 32.3666C36.2667 28.3666 36.8 27.3 36.4 26.4666C35.8667 25.4 33.9667 25.2666 32.7001 25.2666C25.6001 25.2333 13.4334 28.6666 8.30005 30.1666C8.50005 28.4666 8.70005 26.8 8.90005 25.1V25.1333Z" fill="white"/>
<path d="M41.5001 21.9C40.6334 22.4666 39.3667 22.5 38.5001 21.9C39.1001 21.1333 39.4001 20.2666 39.0334 19.2333C38.0334 19.8 35.4334 20.0666 35.2001 18.8666C35.6334 18.5666 36.2667 18.7 36.7001 18.1666C36.1667 17.8333 35.6334 17.8666 35.2334 17.3333C35.9667 16.8666 36.7667 16.5666 37.2334 15.8333C36.6667 15.5666 36.0667 15.5666 35.7001 15.0333C36.5667 14.3 37.4334 13.8 38.1667 13C37.7667 12.7333 37.3667 12.8 36.9667 12.4333C38.0001 11.1333 38.8667 9.86664 39.6667 8.46664C39.7334 8.33331 39.9001 8.19998 40.0001 8.16664C40.1001 8.13331 40.3001 8.29998 40.4001 8.46664C41.2001 9.86664 42.0667 11.1333 43.1001 12.4333C42.7001 12.8 42.3334 12.7333 41.9001 13C42.3667 13.6666 44.3001 14.7333 44.2667 15.1C44.2667 15.5 42.9001 15.6333 42.8667 15.9C43.4001 16.6 44.1334 16.9 44.8334 17.3333C44.4001 17.8666 43.8667 17.8333 43.3334 18.1666C43.8001 18.6333 44.3667 18.6 44.8667 18.8333C44.6667 19.9666 42.1001 19.8666 41.0667 19.2333C40.6001 20.1 40.8667 21.0666 41.5334 21.9H41.5001Z" fill="white"/>
<path d="M32.2667 22.3333C31.4667 22.8666 30.2667 22.8666 29.4667 22.3333C30.0334 21.6333 30.3 20.8 29.9667 19.8333C29.0334 20.3666 26.6 20.6 26.3667 19.5C26.8 19.2333 27.3667 19.3333 27.7667 18.8666C27.2667 18.5333 26.7667 18.5666 26.4 18.1C27.1 17.6666 27.8334 17.4 28.2667 16.7C27.7334 16.4333 27.1667 16.4333 26.8334 15.9666C27.6334 15.3 28.4667 14.8333 29.1334 14.0666C28.7334 13.8333 28.4 13.9 28.0334 13.5333C29 12.3333 29.8 11.1333 30.5334 9.8333C30.6 9.69996 30.7334 9.59996 30.8334 9.56663C30.9334 9.5333 31.1334 9.69996 31.2 9.8333C31.9334 11.1333 32.7667 12.3333 33.7 13.5333C33.3334 13.9 32.9667 13.8333 32.6 14.0666C33.0334 14.7 34.8334 15.7 34.8 16.0333C34.8 16.4 33.5334 16.5333 33.5 16.8C34 17.4333 34.6667 17.7333 35.3334 18.1333C34.9334 18.6333 34.4334 18.6 33.9334 18.9333C34.3667 19.3666 34.9 19.3333 35.3667 19.5333C35.1667 20.6 32.8 20.5 31.8 19.9C31.3667 20.7 31.6334 21.6 32.2334 22.4L32.2667 22.3333Z" fill="white"/>
<path d="M22.9334 22.7C22.2334 23.1666 21.1667 23.2 20.4334 22.7C20.9334 22.0666 21.1667 21.3333 20.8667 20.5C20.0334 20.9666 17.8667 21.1666 17.6667 20.2C18.0334 19.9666 18.5667 20.0666 18.9334 19.6333C18.5 19.3666 18.0334 19.3666 17.7334 18.9333C18.3334 18.5333 19 18.3 19.4 17.6666C18.9334 17.4333 18.4334 17.4333 18.1334 17C18.8334 16.4 19.5667 16 20.1667 15.3C19.8334 15.1 19.5 15.1333 19.1667 14.8333C20 13.7666 20.7334 12.7 21.4 11.5666C21.4667 11.4666 21.6 11.3333 21.6667 11.3333C21.7334 11.3333 21.9334 11.4666 22 11.5666C22.6667 12.7333 23.3667 13.7666 24.2334 14.8333C23.9 15.1333 23.6 15.1 23.2334 15.3C23.6334 15.8666 25.2 16.7333 25.2 17.0333C25.2 17.3666 24.0667 17.4666 24.0334 17.7C24.5 18.2666 25.0667 18.5333 25.6667 18.9C25.3 19.3333 24.8667 19.3 24.4334 19.6C24.8334 20 25.2667 19.9666 25.7 20.1333C25.5334 21.0666 23.4 20.9666 22.5334 20.4666C22.1667 21.1666 22.3667 21.9666 22.9 22.6666L22.9334 22.7Z" fill="white"/>
</g>
<path d="M45.2334 5.66666H14.7667C11.5334 5.66666 8.90002 8.49999 8.90002 12.0333V39.5333C8.90002 43.0333 11.5334 45.9 14.7667 45.9H23.4334C26.4334 50.9 29.2334 54.3333 30 54.3333C30.7667 54.3333 33.5667 50.8667 36.5667 45.9H45.2334C48.4667 45.9 51.1 43.0667 51.1 39.5333V12.0333C51.1 8.53332 48.4667 5.66666 45.2334 5.66666Z" stroke="white" stroke-width="2" stroke-miterlimit="10"/>
</svg>
