<svg width="27" height="27" viewBox="0 0 27 27" fill="none" xmlns="http://www.w3.org/2000/svg">
<g filter="url(#filter0_d_215_476)">
<rect x="4" width="19" height="19" rx="9.5" fill="#5CA268" shape-rendering="crispEdges"/>
<rect x="4" width="19" height="19" rx="9.5" fill="url(#paint0_linear_215_476)" fill-opacity="0.3" shape-rendering="crispEdges"/>
<rect x="4.5" y="0.5" width="18" height="18" rx="9" stroke="#E6E6E6" shape-rendering="crispEdges"/>
<path d="M14.8655 15.5987C14.0586 16.1184 12.8793 16.1489 12.0724 15.5987C12.631 14.8956 12.9103 14.1008 12.569 13.1531C11.6379 13.6728 9.21724 13.9174 9 12.8168C9.40345 12.5417 9.9931 12.664 10.3966 12.1749C9.9 11.8692 9.40345 11.8997 9.03103 11.4106C9.71379 10.9826 10.4586 10.7075 10.8931 10.035C10.3655 9.79043 9.8069 9.79043 9.46552 9.30131C10.2724 8.62878 11.0793 8.17023 11.7621 7.43655C11.3897 7.192 11.0172 7.25314 10.6448 6.91687C11.6069 5.72465 12.4138 4.56299 13.1586 3.27906C13.2207 3.15678 13.3759 3.0345 13.469 3.00393C13.5621 2.97336 13.7483 3.12621 13.8414 3.27906C14.5862 4.56299 15.3931 5.72465 16.3552 6.91687C15.9828 7.25314 15.6414 7.192 15.2379 7.43655C15.6724 8.04795 17.4724 9.02618 17.4414 9.36245C17.4414 9.72929 16.169 9.85157 16.1379 10.0961C16.6345 10.7381 17.3172 11.0132 17.969 11.4106C17.5655 11.8997 17.069 11.8692 16.5724 12.1749C17.0069 12.6028 17.5345 12.5723 18 12.7863C17.8138 13.8256 15.4241 13.7339 14.4621 13.1531C14.0276 13.9479 14.2759 14.8344 14.8966 15.5987H14.8655Z" fill="white"/>
<path d="M13.5 3.68262C14.1335 4.75944 14.811 5.75557 15.5889 6.75586C15.4337 6.80252 15.2082 6.86959 14.9785 7.00879L14.5186 7.28809L14.8301 7.72656C14.983 7.94167 15.2268 8.15446 15.458 8.33887C15.6985 8.53069 15.9748 8.72885 16.2207 8.90723C16.4084 9.04342 16.5742 9.16847 16.71 9.27637C16.6886 9.2837 16.6668 9.29306 16.6436 9.30078C16.5021 9.34779 16.3085 9.40766 16.1621 9.46875C16.0883 9.49956 15.9941 9.54375 15.9092 9.60547C15.839 9.65652 15.6722 9.79229 15.6416 10.0332L15.6162 10.2383L15.7422 10.4023C16.0388 10.7857 16.3857 11.0514 16.7275 11.2676C16.8214 11.3269 16.9172 11.3825 17.0107 11.4365C16.8222 11.5041 16.5556 11.5982 16.3105 11.749L15.7676 12.083L16.2217 12.5312C16.4839 12.7895 16.769 12.9183 17.0234 13.0029C16.8742 13.0406 16.6977 13.0689 16.499 13.0781C15.8219 13.1096 15.0913 12.9483 14.7207 12.7246L14.2734 12.4551L14.0234 12.9131C13.5641 13.7533 13.7129 14.635 14.1465 15.3887C13.7172 15.5296 13.2326 15.5362 12.8096 15.4023C13.2079 14.7119 13.3716 13.9067 13.0391 12.9834L12.8398 12.4297L12.3252 12.7168C11.9546 12.9236 11.2086 13.1032 10.5244 13.0928C10.3012 13.0894 10.1059 13.0633 9.94531 13.0234C10.2074 12.9443 10.5214 12.8094 10.7822 12.4932L11.1475 12.0498L10.6582 11.749C10.4202 11.6026 10.1591 11.5091 9.97461 11.4424C10.0895 11.3771 10.2076 11.3099 10.3223 11.2373C10.6775 11.0123 11.0407 10.7289 11.3135 10.3066L11.625 9.82324L11.1035 9.58105C10.9425 9.50643 10.7847 9.45291 10.6475 9.40918C10.5024 9.36295 10.3949 9.33201 10.2861 9.29199C10.5074 9.12553 10.7297 8.96437 10.96 8.79199C11.3548 8.49641 11.7557 8.17726 12.1279 7.77734L12.5312 7.34375L12.0361 7.01855C11.8079 6.86873 11.571 6.79992 11.4121 6.75293C12.1892 5.75341 12.867 4.75862 13.5 3.68262Z" stroke="white" stroke-opacity="0.5"/>
</g>
<defs>
<filter id="filter0_d_215_476" x="0" y="0" width="27" height="27" filterUnits="userSpaceOnUse" color-interpolation-filters="sRGB">
<feFlood flood-opacity="0" result="BackgroundImageFix"/>
<feColorMatrix in="SourceAlpha" type="matrix" values="0 0 0 0 0 0 0 0 0 0 0 0 0 0 0 0 0 0 127 0" result="hardAlpha"/>
<feOffset dy="4"/>
<feGaussianBlur stdDeviation="2"/>
<feComposite in2="hardAlpha" operator="out"/>
<feColorMatrix type="matrix" values="0 0 0 0 0 0 0 0 0 0 0 0 0 0 0 0 0 0 0.25 0"/>
<feBlend mode="normal" in2="BackgroundImageFix" result="effect1_dropShadow_215_476"/>
<feBlend mode="normal" in="SourceGraphic" in2="effect1_dropShadow_215_476" result="shape"/>
</filter>
<linearGradient id="paint0_linear_215_476" x1="4" y1="7.09734" x2="23" y2="11.9027" gradientUnits="userSpaceOnUse">
<stop stop-color="white"/>
<stop offset="1" stop-color="#666666" stop-opacity="0"/>
</linearGradient>
</defs>
</svg>
