<svg width="50" height="50" viewBox="0 0 50 50" fill="none" xmlns="http://www.w3.org/2000/svg">
<path d="M37.6944 4.72223H12.3055C9.61107 4.72223 7.41663 7.08334 7.41663 10.0278V32.9444C7.41663 35.8611 9.61107 38.25 12.3055 38.25H19.5277C22.0277 42.4167 24.3611 45.2778 25 45.2778C25.6388 45.2778 27.9722 42.3889 30.4722 38.25H37.6944C40.3888 38.25 42.5833 35.8889 42.5833 32.9444V10.0278C42.5833 7.11112 40.3888 4.72223 37.6944 4.72223Z" fill="#55A462" stroke="black" stroke-miterlimit="10"/>
<mask id="mask0_62_1011" style="mask-type:luminance" maskUnits="userSpaceOnUse" x="7" y="4" width="36" height="42">
<path d="M37.6944 4.72223H12.3055C9.61107 4.72223 7.41663 7.08334 7.41663 10.0278V32.9444C7.41663 35.8611 9.61107 38.25 12.3055 38.25H19.5277C22.0277 42.4167 24.3611 45.2778 25 45.2778C25.6388 45.2778 27.9722 42.3889 30.4722 38.25H37.6944C40.3888 38.25 42.5833 35.8889 42.5833 32.9444V10.0278C42.5833 7.11112 40.3888 4.72223 37.6944 4.72223Z" fill="white"/>
</mask>
<g mask="url(#mask0_62_1011)">
<path d="M7.41663 20.9444C14.9722 18.6667 21.3333 17.8056 25.9166 17.4722C26.4444 17.4444 38.7222 16.5833 39.3333 19.1944C39.6388 20.5 36.75 21.5278 36.5555 24.3889C36.4166 26.4167 37.75 28.0278 38.25 28.6667C41.8333 33.0556 49.1666 31.8056 49.7777 31.6944C44.3055 35.4722 38.8333 39.25 33.3611 43.0278C30.5833 40.6111 28.4166 38.4167 26.8888 36.7222C25.1388 34.8056 24.6111 34.0833 24.5555 33.0833C24.4722 31.7222 25.25 30.9167 27.9444 26.9722C30.2222 23.6389 30.6666 22.75 30.3333 22.0556C29.8888 21.1667 28.3055 21.0556 27.25 21.0556C21.3333 21.0278 11.1944 23.8889 6.91663 25.1389C7.08329 23.7222 7.24996 22.3333 7.41663 20.9167V20.9444Z" fill="white"/>
<path d="M34.5833 18.25C33.861 18.7222 32.8055 18.75 32.0833 18.25C32.5833 17.6111 32.8333 16.8889 32.5277 16.0278C31.6944 16.5 29.5277 16.7222 29.3333 15.7222C29.6944 15.4722 30.2221 15.5833 30.5833 15.1389C30.1388 14.8611 29.6944 14.8889 29.361 14.4444C29.9721 14.0556 30.6388 13.8056 31.0277 13.1945C30.5555 12.9722 30.0555 12.9722 29.7499 12.5278C30.4721 11.9167 31.1944 11.5 31.8055 10.8333C31.4721 10.6111 31.1388 10.6667 30.8055 10.3611C31.6666 9.27778 32.3888 8.22223 33.0555 7.05556C33.111 6.94445 33.2499 6.83334 33.3333 6.80556C33.4166 6.77778 33.5833 6.91667 33.6666 7.05556C34.3333 8.22223 35.0555 9.27778 35.9166 10.3611C35.5833 10.6667 35.2777 10.6111 34.9166 10.8333C35.3055 11.3889 36.9166 12.2778 36.8888 12.5833C36.8888 12.9167 35.7499 13.0278 35.7221 13.25C36.1666 13.8333 36.7777 14.0833 37.361 14.4444C36.9999 14.8889 36.5555 14.8611 36.111 15.1389C36.4999 15.5278 36.9721 15.5 37.3888 15.6945C37.2221 16.6389 35.0832 16.5556 34.2221 16.0278C33.8332 16.75 34.0555 17.5556 34.611 18.25H34.5833Z" fill="white"/>
<path d="M26.8888 18.6111C26.2222 19.0556 25.2222 19.0556 24.5555 18.6111C25.0277 18.0278 25.2499 17.3333 24.9722 16.5278C24.1944 16.9722 22.1666 17.1667 21.9722 16.25C22.3333 16.0278 22.8055 16.1111 23.1388 15.7222C22.7222 15.4444 22.3055 15.4722 21.9999 15.0833C22.5833 14.7222 23.1944 14.5 23.5555 13.9167C23.1111 13.6944 22.6388 13.6944 22.3611 13.3056C23.0277 12.75 23.7222 12.3611 24.2777 11.7222C23.9444 11.5278 23.6666 11.5833 23.3611 11.2778C24.1666 10.2778 24.8333 9.27778 25.4444 8.19444C25.4999 8.08333 25.6111 8 25.6944 7.97222C25.7777 7.94444 25.9444 8.08333 25.9999 8.19444C26.6111 9.27778 27.3055 10.2778 28.0833 11.2778C27.7777 11.5833 27.4722 11.5278 27.1666 11.7222C27.5277 12.25 29.0277 13.0833 28.9999 13.3611C28.9999 13.6667 27.9444 13.7778 27.9166 14C28.3333 14.5278 28.8888 14.7778 29.4444 15.1111C29.1111 15.5278 28.6944 15.5 28.2777 15.7778C28.6388 16.1389 29.0833 16.1111 29.4722 16.2778C29.3055 17.1667 27.3333 17.0833 26.4999 16.5833C26.1388 17.25 26.3611 18 26.8611 18.6667L26.8888 18.6111Z" fill="white"/>
<path d="M19.1111 18.9167C18.5277 19.3056 17.6388 19.3333 17.0277 18.9167C17.4444 18.3889 17.6388 17.7778 17.3888 17.0833C16.6944 17.4722 14.8888 17.6389 14.7222 16.8333C15.0277 16.6389 15.4722 16.7222 15.7777 16.3611C15.4166 16.1389 15.0277 16.1389 14.7777 15.7778C15.2777 15.4445 15.8333 15.25 16.1666 14.7222C15.7777 14.5278 15.3611 14.5278 15.1111 14.1667C15.6944 13.6667 16.3055 13.3333 16.8055 12.75C16.5277 12.5833 16.2499 12.6111 15.9722 12.3611C16.6666 11.4722 17.2777 10.5833 17.8333 9.6389C17.8888 9.55557 17.9999 9.44446 18.0555 9.44446C18.1111 9.44446 18.2777 9.55557 18.3333 9.6389C18.8888 10.6111 19.4722 11.4722 20.1944 12.3611C19.9166 12.6111 19.6666 12.5833 19.3611 12.75C19.6944 13.2222 20.9999 13.9445 20.9999 14.1945C20.9999 14.4722 20.0555 14.5556 20.0277 14.75C20.4166 15.2222 20.8888 15.4445 21.3888 15.75C21.0833 16.1111 20.7222 16.0833 20.3611 16.3333C20.6944 16.6667 21.0555 16.6389 21.4166 16.7778C21.2777 17.5556 19.4999 17.4722 18.7777 17.0556C18.4722 17.6389 18.6388 18.3056 19.0833 18.8889L19.1111 18.9167Z" fill="white"/>
</g>
<path d="M37.6944 4.72223H12.3055C9.61107 4.72223 7.41663 7.08334 7.41663 10.0278V32.9444C7.41663 35.8611 9.61107 38.25 12.3055 38.25H19.5277C22.0277 42.4167 24.3611 45.2778 25 45.2778C25.6388 45.2778 27.9722 42.3889 30.4722 38.25H37.6944C40.3888 38.25 42.5833 35.8889 42.5833 32.9444V10.0278C42.5833 7.11112 40.3888 4.72223 37.6944 4.72223Z" stroke="black" stroke-width="0.75" stroke-miterlimit="10"/>
</svg>
