<svg width="39" height="51" viewBox="0 0 39 51" fill="none" xmlns="http://www.w3.org/2000/svg">
<g filter="url(#filter0_d_215_701)">
<path d="M35 15.5C35 24.0604 19.5 43 19.5 43C19.5 43 4 24.0604 4 15.5C4 6.93959 10.9396 0 19.5 0C28.0604 0 35 6.93959 35 15.5Z" fill="#5DA068"/>
<path d="M35 15.5C35 24.0604 19.5 43 19.5 43C19.5 43 4 24.0604 4 15.5C4 6.93959 10.9396 0 19.5 0C28.0604 0 35 6.93959 35 15.5Z" fill="url(#paint0_linear_215_701)" fill-opacity="0.4"/>
<path d="M19.5 1C27.5081 1 34 7.49187 34 15.5C34 17.3977 33.1224 20.0116 31.6797 22.9697C30.2542 25.8925 28.343 29.0215 26.418 31.9053C24.4954 34.7854 22.5708 37.4033 21.126 39.3018C20.4692 40.1647 19.9116 40.8776 19.5 41.3984C19.0884 40.8776 18.5308 40.1647 17.874 39.3018C16.4292 37.4033 14.5046 34.7854 12.582 31.9053C10.657 29.0215 8.74585 25.8925 7.32031 22.9697C5.87757 20.0116 5 17.3977 5 15.5C5 7.49187 11.4919 1 19.5 1Z" stroke="white" stroke-opacity="0.4" stroke-width="2"/>
<path d="M21.4724 25.3092C20.3069 26.0599 18.6034 26.104 17.4379 25.3092C18.2448 24.2936 18.6483 23.1456 18.1552 21.7767C16.8103 22.5274 13.3138 22.8806 13 21.291C13.5828 20.8936 14.4345 21.0702 15.0172 20.3637C14.3 19.9221 13.5828 19.9663 13.0448 19.2598C14.031 18.6416 15.1069 18.2442 15.7345 17.2728C14.9724 16.9195 14.1655 16.9195 13.6724 16.213C14.8379 15.2416 16.0034 14.5792 16.9897 13.5195C16.4517 13.1662 15.9138 13.2545 15.3759 12.7688C16.7655 11.0467 17.931 9.36877 19.0069 7.5142C19.0965 7.33758 19.3207 7.16095 19.4552 7.1168C19.5897 7.07264 19.8586 7.29342 19.9931 7.5142C21.069 9.36877 22.2345 11.0467 23.6241 12.7688C23.0862 13.2545 22.5931 13.1662 22.0103 13.5195C22.6379 14.4026 25.2379 15.8156 25.1931 16.3013C25.1931 16.8312 23.3552 17.0078 23.3103 17.3611C24.0276 18.2884 25.0138 18.6858 25.9552 19.2598C25.3724 19.9663 24.6552 19.9221 23.9379 20.3637C24.5655 20.9819 25.3276 20.9377 26 21.2468C25.731 22.7482 22.2793 22.6157 20.8897 21.7767C20.2621 22.9248 20.6207 24.2053 21.5172 25.3092H21.4724Z" fill="white"/>
<path d="M19.501 7.68826C19.5274 7.71746 19.5484 7.74628 19.5635 7.77029C20.5608 9.48887 21.6351 11.0566 22.8867 12.6443C22.8232 12.6697 22.7569 12.6938 22.6846 12.7166C22.4515 12.7898 22.1074 12.8755 21.751 13.0916L21.291 13.3709L21.6025 13.8094C21.8037 14.0924 22.1337 14.3835 22.4668 14.6492C22.8093 14.9223 23.2034 15.2056 23.5605 15.4646C23.9259 15.7296 24.248 15.9663 24.4756 16.1638C24.5111 16.1947 24.5417 16.2238 24.5693 16.2498C24.45 16.305 24.2951 16.3616 24.1113 16.4226C23.8983 16.4934 23.6321 16.5759 23.4307 16.6599C23.3294 16.7022 23.212 16.7579 23.1104 16.8318C23.0234 16.8951 22.8467 17.0441 22.8145 17.2986L22.7881 17.5037L22.915 17.6668C23.322 18.1929 23.7997 18.5605 24.2812 18.865C24.5205 19.0163 24.7653 19.1546 25.001 19.2869C25.0258 19.3008 25.0506 19.3151 25.0752 19.3289C24.994 19.3699 24.909 19.4092 24.8164 19.4451C24.5294 19.5563 24.0862 19.6856 23.6758 19.9383L23.1328 20.2722L23.5869 20.7195C23.984 21.1107 24.4206 21.2846 24.8096 21.4002C24.9782 21.4503 25.1224 21.4859 25.2529 21.5203C25.2003 21.558 25.1385 21.5952 25.0654 21.6306C24.7653 21.776 24.3392 21.8664 23.8418 21.8894C22.8355 21.9361 21.7328 21.7011 21.1484 21.3484L20.7012 21.0789L20.4512 21.5369C19.7918 22.7431 20.0583 24.027 20.7627 25.1189C19.9544 25.4643 18.9706 25.4812 18.1719 25.1404C18.8213 24.1361 19.1153 22.9658 18.626 21.6072L18.4258 21.0525L17.9111 21.3406C17.3335 21.6628 16.215 21.9275 15.1982 21.9119C14.6939 21.9041 14.262 21.8273 13.9561 21.6883C13.8529 21.6414 13.7702 21.5894 13.7041 21.5349C13.8349 21.4999 13.953 21.4741 14.1348 21.4265C14.527 21.3239 15.0111 21.1569 15.4033 20.6814L15.7686 20.239L15.2793 19.9383C14.8707 19.6867 14.4254 19.5556 14.1475 19.4461C14.0598 19.4115 13.9796 19.3744 13.9043 19.3357C13.9482 19.3111 13.9926 19.2864 14.0371 19.2615C14.2845 19.1232 14.5432 18.9786 14.792 18.8211C15.292 18.5044 15.785 18.1153 16.1543 17.5437L16.4668 17.0613L15.9443 16.8191C15.7248 16.7174 15.5073 16.6432 15.3115 16.5808C15.1066 16.5155 14.9404 16.467 14.7754 16.406C14.6437 16.3574 14.5296 16.3053 14.4287 16.2449C14.8496 15.9178 15.27 15.6202 15.6982 15.2996C16.2654 14.875 16.8316 14.4231 17.3555 13.8601L17.7588 13.4265L17.2637 13.1013C16.9208 12.8763 16.5673 12.7886 16.3301 12.7156C16.2526 12.6918 16.1816 12.6668 16.1143 12.6404C17.3661 11.0522 18.442 9.48488 19.4395 7.76541L19.4463 7.75272L19.4531 7.741C19.4531 7.741 19.4547 7.73743 19.459 7.73123C19.4632 7.72512 19.4687 7.71705 19.4766 7.70779C19.4828 7.7005 19.4906 7.69301 19.498 7.68533C19.4989 7.6863 19.5001 7.68729 19.501 7.68826Z" stroke="white" stroke-opacity="0.5"/>
</g>
<defs>
<filter id="filter0_d_215_701" x="0" y="0" width="39" height="51" filterUnits="userSpaceOnUse" color-interpolation-filters="sRGB">
<feFlood flood-opacity="0" result="BackgroundImageFix"/>
<feColorMatrix in="SourceAlpha" type="matrix" values="0 0 0 0 0 0 0 0 0 0 0 0 0 0 0 0 0 0 127 0" result="hardAlpha"/>
<feOffset dy="4"/>
<feGaussianBlur stdDeviation="2"/>
<feComposite in2="hardAlpha" operator="out"/>
<feColorMatrix type="matrix" values="0 0 0 0 0 0 0 0 0 0 0 0 0 0 0 0 0 0 0.25 0"/>
<feBlend mode="normal" in2="BackgroundImageFix" result="effect1_dropShadow_215_701"/>
<feBlend mode="normal" in="SourceGraphic" in2="effect1_dropShadow_215_701" result="shape"/>
</filter>
<linearGradient id="paint0_linear_215_701" x1="10.5" y1="5" x2="29" y2="31" gradientUnits="userSpaceOnUse">
<stop stop-color="#D9D9D9"/>
<stop offset="1" stop-color="#737373" stop-opacity="0"/>
</linearGradient>
</defs>
</svg>
