<svg width="59" height="59" viewBox="0 0 59 59" fill="none" xmlns="http://www.w3.org/2000/svg">
<g clip-path="url(#clip0_214_195)">
<g filter="url(#filter0_d_214_195)">
<path d="M44.4794 6.62111H14.5205C11.3411 6.62111 8.75165 9.40722 8.75165 12.8817V39.9233C8.75165 43.365 11.3411 46.1839 14.5205 46.1839H23.0428C25.9928 51.1006 28.7461 54.4767 29.5 54.4767C30.2539 54.4767 33.0072 51.0678 35.9572 46.1839H44.4794C47.6589 46.1839 50.2483 43.3978 50.2483 39.9233V12.8817C50.2483 9.44 47.6589 6.62111 44.4794 6.62111Z" fill="#0071BC" shape-rendering="crispEdges"/>
<path d="M44.4794 6.62111H14.5205C11.3411 6.62111 8.75165 9.40722 8.75165 12.8817V39.9233C8.75165 43.365 11.3411 46.1839 14.5205 46.1839H23.0428C25.9928 51.1006 28.7461 54.4767 29.5 54.4767C30.2539 54.4767 33.0072 51.0678 35.9572 46.1839H44.4794C47.6589 46.1839 50.2483 43.3978 50.2483 39.9233V12.8817C50.2483 9.44 47.6589 6.62111 44.4794 6.62111Z" fill="url(#paint0_linear_214_195)" fill-opacity="0.3" shape-rendering="crispEdges"/>
<path d="M44.4794 6.62111H14.5205C11.3411 6.62111 8.75165 9.40722 8.75165 12.8817V39.9233C8.75165 43.365 11.3411 46.1839 14.5205 46.1839H23.0428C25.9928 51.1006 28.7461 54.4767 29.5 54.4767C30.2539 54.4767 33.0072 51.0678 35.9572 46.1839H44.4794C47.6589 46.1839 50.2483 43.3978 50.2483 39.9233V12.8817C50.2483 9.44 47.6589 6.62111 44.4794 6.62111Z" stroke="#E3E3E3" stroke-opacity="0.5" stroke-width="2" stroke-miterlimit="10" shape-rendering="crispEdges"/>
</g>
<g filter="url(#filter1_d_214_195)">
<path d="M36.5472 25.7306L24.5833 31.3683C23.1411 32.0567 21.6006 31.565 21.4039 30.385L20.3222 23.9278C20.1911 23.0428 20.8467 22.0594 21.8956 21.535L30.4178 17.5361C31.4667 17.0444 32.6467 17.1428 33.2367 17.7983L37.76 22.6494C38.5795 23.5344 37.9895 25.075 36.5145 25.7633L36.5472 25.7306Z" fill="white"/>
<path d="M28.9808 31.6891C28.7498 31.1976 28.164 30.9865 27.6725 31.2176C27.1811 31.4486 26.97 32.0344 27.201 32.5258L28.4561 35.1955C28.6872 35.687 29.2729 35.8981 29.7644 35.667C30.2559 35.436 30.467 34.8503 30.2359 34.3588L28.9808 31.6891Z" fill="white"/>
<path d="M32.4282 30.0824C32.1971 29.5909 31.6114 29.3798 31.1199 29.6109C30.6285 29.842 30.4174 30.4277 30.6484 30.9192L31.9035 33.5888C32.1346 34.0803 32.7203 34.2914 33.2118 34.0604C33.7033 33.8293 33.9144 33.2436 33.6833 32.7521L32.4282 30.0824Z" fill="white"/>
<path d="M35.8617 28.4461C35.6306 27.9546 35.0449 27.7435 34.5534 27.9746C34.0619 28.2056 33.8508 28.7913 34.0819 29.2828L35.337 31.9525C35.5681 32.444 36.1538 32.6551 36.6453 32.424C37.1367 32.193 37.3478 31.6072 37.1168 31.1158L35.8617 28.4461Z" fill="white"/>
<path d="M31.5693 37.2097C31.3383 36.7182 30.7525 36.5071 30.261 36.7382C29.7696 36.9692 29.5585 37.5549 29.7895 38.0464L31.0446 40.7161C31.2757 41.2076 31.8614 41.4187 32.3529 41.1876C32.8444 40.9566 33.0555 40.3708 32.8244 39.8794L31.5693 37.2097Z" fill="white"/>
<path d="M35.0167 35.603C34.7856 35.1115 34.1999 34.9004 33.7084 35.1315C33.217 35.3625 33.0059 35.9483 33.2369 36.4397L34.492 39.1094C34.7231 39.6009 35.3088 39.812 35.8003 39.5809C36.2918 39.3499 36.5029 38.7641 36.2718 38.2727L35.0167 35.603Z" fill="white"/>
<path d="M38.4501 33.9666C38.219 33.4752 37.6333 33.2641 37.1418 33.4951C36.6504 33.7262 36.4393 34.3119 36.6703 34.8034L37.9254 37.4731C38.1565 37.9645 38.7422 38.1757 39.2337 37.9446C39.7252 37.7135 39.9363 37.1278 39.7052 36.6363L38.4501 33.9666Z" fill="white"/>
<path d="M26.4346 14.9123L22.7563 16.6416C21.9045 17.0421 21.5385 18.0574 21.939 18.9092L23.3755 21.9645C23.776 22.8164 24.7912 23.1823 25.6431 22.7818L29.3213 21.0526C30.1732 20.6521 30.5391 19.6368 30.1386 18.7849L28.7022 15.7296C28.3017 14.8777 27.2865 14.5118 26.4346 14.9123Z" fill="white"/>
<path d="M26.0256 16.4217C25.7961 15.7989 25.075 14.2583 23.4033 13.275C20.355 11.4722 17.0444 13.1439 16.815 13.275V15.8317C18.7817 14.6189 21.0106 14.5206 22.42 15.6022C22.7478 15.8317 23.2394 16.3233 23.6 17.1756C24.4194 16.9133 25.2061 16.6511 26.0256 16.3889V16.4217Z" fill="white"/>
</g>
</g>
<defs>
<filter id="filter0_d_214_195" x="3.75165" y="5.62111" width="51.4966" height="57.8556" filterUnits="userSpaceOnUse" color-interpolation-filters="sRGB">
<feFlood flood-opacity="0" result="BackgroundImageFix"/>
<feColorMatrix in="SourceAlpha" type="matrix" values="0 0 0 0 0 0 0 0 0 0 0 0 0 0 0 0 0 0 127 0" result="hardAlpha"/>
<feOffset dy="4"/>
<feGaussianBlur stdDeviation="2"/>
<feComposite in2="hardAlpha" operator="out"/>
<feColorMatrix type="matrix" values="0 0 0 0 0 0 0 0 0 0 0 0 0 0 0 0 0 0 0.25 0"/>
<feBlend mode="normal" in2="BackgroundImageFix" result="effect1_dropShadow_214_195"/>
<feBlend mode="normal" in="SourceGraphic" in2="effect1_dropShadow_214_195" result="shape"/>
</filter>
<filter id="filter1_d_214_195" x="12.815" y="12.4438" width="30.9839" height="36.8375" filterUnits="userSpaceOnUse" color-interpolation-filters="sRGB">
<feFlood flood-opacity="0" result="BackgroundImageFix"/>
<feColorMatrix in="SourceAlpha" type="matrix" values="0 0 0 0 0 0 0 0 0 0 0 0 0 0 0 0 0 0 127 0" result="hardAlpha"/>
<feOffset dy="4"/>
<feGaussianBlur stdDeviation="2"/>
<feComposite in2="hardAlpha" operator="out"/>
<feColorMatrix type="matrix" values="0 0 0 0 0 0 0 0 0 0 0 0 0 0 0 0 0 0 0.25 0"/>
<feBlend mode="normal" in2="BackgroundImageFix" result="effect1_dropShadow_214_195"/>
<feBlend mode="normal" in="SourceGraphic" in2="effect1_dropShadow_214_195" result="shape"/>
</filter>
<linearGradient id="paint0_linear_214_195" x1="8.75165" y1="10.7389" x2="50.2483" y2="50.3589" gradientUnits="userSpaceOnUse">
<stop stop-color="white"/>
<stop offset="1" stop-color="#666666" stop-opacity="0"/>
</linearGradient>
<clipPath id="clip0_214_195">
<rect width="59" height="59" fill="white"/>
</clipPath>
</defs>
</svg>
