<svg width="60" height="60" viewBox="0 0 60 60" fill="none" xmlns="http://www.w3.org/2000/svg">
<path d="M45.2334 6.73334H14.7667C11.5334 6.73334 8.90002 9.56667 8.90002 13.1V40.6C8.90002 44.1 11.5334 46.9667 14.7667 46.9667H23.4334C26.4334 51.9667 29.2334 55.4 30 55.4C30.7667 55.4 33.5667 51.9333 36.5667 46.9667H45.2334C48.4667 46.9667 51.1 44.1333 51.1 40.6V13.1C51.1 9.6 48.4667 6.73334 45.2334 6.73334Z" fill="#0071BC" stroke="white" stroke-width="2" stroke-miterlimit="10"/>
<path d="M37.1667 26.1667L25 31.9C23.5334 32.6 21.9667 32.1 21.7667 30.9L20.6667 24.3333C20.5334 23.4333 21.2 22.4333 22.2667 21.9L30.9334 17.8333C32 17.3333 33.2 17.4333 33.8 18.1L38.4 23.0333C39.2334 23.9333 38.6334 25.5 37.1334 26.2L37.1667 26.1667Z" fill="white"/>
<path d="M29.472 32.2262C29.237 31.7264 28.6414 31.5117 28.1415 31.7467C27.6417 31.9817 27.4271 32.5773 27.662 33.0771L28.9384 35.7921C29.1734 36.2919 29.7691 36.5065 30.2689 36.2716C30.7687 36.0366 30.9834 35.4409 30.7484 34.9411L29.472 32.2262Z" fill="white"/>
<path d="M32.9778 30.5923C32.7429 30.0925 32.1472 29.8778 31.6474 30.1128C31.1476 30.3478 30.9329 30.9434 31.1679 31.4432L32.4443 34.1581C32.6793 34.6579 33.2749 34.8726 33.7747 34.6377C34.2745 34.4027 34.4892 33.807 34.2542 33.3072L32.9778 30.5923Z" fill="white"/>
<path d="M36.4694 28.9282C36.2344 28.4284 35.6388 28.2137 35.139 28.4487C34.6392 28.6837 34.4245 29.2793 34.6595 29.7791L35.9359 32.494C36.1708 32.9939 36.7665 33.2085 37.2663 32.9736C37.7661 32.7386 37.9808 32.1429 37.7458 31.6431L36.4694 28.9282Z" fill="white"/>
<path d="M32.1043 37.8403C31.8693 37.3405 31.2737 37.1258 30.7739 37.3608C30.2741 37.5958 30.0594 38.1915 30.2944 38.6913L31.5707 41.4062C31.8057 41.906 32.4014 42.1207 32.9012 41.8857C33.401 41.6507 33.6157 41.0551 33.3807 40.5553L32.1043 37.8403Z" fill="white"/>
<path d="M35.6102 36.2064C35.3752 35.7066 34.7795 35.4919 34.2797 35.7269C33.7799 35.9619 33.5652 36.5575 33.8002 37.0574L35.0766 39.7723C35.3116 40.2721 35.9072 40.4868 36.407 40.2518C36.9069 40.0168 37.1215 39.4212 36.8866 38.9214L35.6102 36.2064Z" fill="white"/>
<path d="M39.1019 34.5423C38.8669 34.0425 38.2712 33.8278 37.7714 34.0628C37.2716 34.2978 37.0569 34.8935 37.2919 35.3933L38.5683 38.1082C38.8033 38.608 39.3989 38.8227 39.8987 38.5877C40.3985 38.3527 40.6132 37.7571 40.3783 37.2573L39.1019 34.5423Z" fill="white"/>
<path d="M26.8826 15.165L23.142 16.9236C22.2757 17.3309 21.9035 18.3634 22.3108 19.2297L23.7716 22.3368C24.1789 23.2031 25.2114 23.5753 26.0777 23.168L29.8183 21.4094C30.6846 21.0021 31.0567 19.9696 30.6494 19.1033L29.1886 15.9962C28.7814 15.1299 27.7489 14.7578 26.8826 15.165Z" fill="white"/>
<path d="M26.4666 16.7C26.2333 16.0667 25.5 14.5 23.8 13.5C20.7 11.6667 17.3333 13.3667 17.1 13.5V16.1C19.1 14.8667 21.3666 14.7667 22.8 15.8667C23.1333 16.1 23.6333 16.6 24 17.4667C24.8333 17.2 25.6333 16.9333 26.4666 16.6667V16.7Z" fill="white"/>
</svg>
