<svg width="50" height="50" viewBox="0 0 50 50" fill="none" xmlns="http://www.w3.org/2000/svg">
<path d="M37.6944 5.61111H12.3055C9.61107 5.61111 7.41663 7.97223 7.41663 10.9167V33.8333C7.41663 36.75 9.61107 39.1389 12.3055 39.1389H19.5277C22.0277 43.3056 24.3611 46.1667 25 46.1667C25.6388 46.1667 27.9722 43.2778 30.4722 39.1389H37.6944C40.3888 39.1389 42.5833 36.7778 42.5833 33.8333V10.9167C42.5833 8 40.3888 5.61111 37.6944 5.61111Z" fill="#0071BC" stroke="black" stroke-width="0.75" stroke-miterlimit="10"/>
<path d="M30.9722 21.8056L20.8333 26.5833C19.6111 27.1667 18.3056 26.75 18.1389 25.75L17.2222 20.2778C17.1111 19.5278 17.6667 18.6944 18.5556 18.25L25.7778 14.8611C26.6667 14.4444 27.6667 14.5278 28.1667 15.0833L32 19.1944C32.6944 19.9444 32.1944 21.25 30.9444 21.8333L30.9722 21.8056Z" fill="white"/>
<path d="M24.56 26.8552C24.3642 26.4387 23.8678 26.2598 23.4513 26.4556C23.0348 26.6514 22.8559 27.1478 23.0517 27.5643L24.1154 29.8267C24.3112 30.2432 24.8076 30.4221 25.2241 30.2263C25.6406 30.0305 25.8195 29.5341 25.6236 29.1176L24.56 26.8552Z" fill="white"/>
<path d="M27.4815 25.4936C27.2857 25.0771 26.7893 24.8982 26.3728 25.094C25.9563 25.2898 25.7774 25.7862 25.9732 26.2027L27.0369 28.4651C27.2327 28.8816 27.7291 29.0605 28.1456 28.8647C28.5621 28.6689 28.741 28.1725 28.5452 27.756L27.4815 25.4936Z" fill="white"/>
<path d="M30.3913 24.1068C30.1955 23.6903 29.6991 23.5114 29.2826 23.7073C28.8661 23.9031 28.6872 24.3994 28.883 24.816L29.9467 27.0784C30.1425 27.4949 30.6388 27.6738 31.0554 27.478C31.4719 27.2822 31.6508 26.7858 31.4549 26.3693L30.3913 24.1068Z" fill="white"/>
<path d="M26.7536 31.5336C26.5578 31.1171 26.0614 30.9382 25.6449 31.134C25.2284 31.3298 25.0495 31.8262 25.2453 32.2427L26.309 34.5052C26.5048 34.9217 27.0012 35.1006 27.4177 34.9048C27.8342 34.709 28.0131 34.2126 27.8173 33.7961L26.7536 31.5336Z" fill="white"/>
<path d="M29.6751 30.172C29.4793 29.7555 28.9829 29.5766 28.5664 29.7724C28.1499 29.9683 27.971 30.4646 28.1668 30.8811L29.2305 33.1436C29.4263 33.5601 29.9227 33.739 30.3392 33.5432C30.7557 33.3474 30.9346 32.851 30.7388 32.4345L29.6751 30.172Z" fill="white"/>
<path d="M32.5849 28.7853C32.3891 28.3688 31.8927 28.1899 31.4762 28.3857C31.0597 28.5815 30.8808 29.0779 31.0766 29.4944L32.1403 31.7568C32.3361 32.1733 32.8325 32.3523 33.249 32.1564C33.6655 31.9606 33.8444 31.4642 33.6485 31.0477L32.5849 28.7853Z" fill="white"/>
<path d="M22.4021 12.6375L19.285 14.103C18.563 14.4424 18.2529 15.3028 18.5923 16.0248L19.8096 18.614C20.1491 19.336 21.0094 19.6461 21.7314 19.3066L24.8485 17.8412C25.5705 17.5017 25.8806 16.6414 25.5412 15.9194L24.3239 13.3302C23.9844 12.6082 23.124 12.2981 22.4021 12.6375Z" fill="white"/>
<path d="M22.0556 13.9167C21.8611 13.3889 21.25 12.0833 19.8333 11.25C17.25 9.72222 14.4444 11.1389 14.25 11.25V13.4167C15.9167 12.3889 17.8056 12.3056 19 13.2222C19.2778 13.4167 19.6944 13.8333 20 14.5556C20.6944 14.3333 21.3611 14.1111 22.0556 13.8889V13.9167Z" fill="white"/>
</svg>
