<svg width="27" height="27" viewBox="0 0 27 27" fill="none" xmlns="http://www.w3.org/2000/svg">
<g filter="url(#filter0_d_215_309)">
<rect x="4" width="19" height="19" rx="9.5" fill="#1F7DBC" shape-rendering="crispEdges"/>
<rect x="4" width="19" height="19" rx="9.5" fill="url(#paint0_linear_215_309)" fill-opacity="0.4" shape-rendering="crispEdges"/>
<rect x="4.5" y="0.5" width="18" height="18" rx="9" stroke="#E6E6E6" shape-rendering="crispEdges"/>
<path d="M16.1191 9.50022L11.4995 11.6771C10.9427 11.9429 10.3478 11.753 10.2719 11.2974L9.85423 8.80413C9.8036 8.46241 10.0567 8.08272 10.4617 7.88022L13.7523 6.33616C14.1573 6.14632 14.613 6.18429 14.8408 6.43741L16.5873 8.31053C16.9037 8.65225 16.6759 9.24709 16.1064 9.51287L16.1191 9.50022Z" fill="white"/>
<path d="M13.1975 11.8009C13.1083 11.6112 12.8821 11.5297 12.6923 11.6189C12.5026 11.7081 12.421 11.9343 12.5103 12.124L12.9949 13.1549C13.0841 13.3446 13.3103 13.4261 13.5 13.3369C13.6898 13.2477 13.7713 13.0215 13.6821 12.8318L13.1975 11.8009Z" fill="white"/>
<path d="M14.5286 11.1806C14.4394 10.9908 14.2132 10.9093 14.0234 10.9985C13.8337 11.0877 13.7522 11.3139 13.8414 11.5037L14.326 12.5345C14.4152 12.7243 14.6414 12.8058 14.8312 12.7165C15.0209 12.6273 15.1024 12.4012 15.0132 12.2114L14.5286 11.1806Z" fill="white"/>
<path d="M15.8544 10.5487C15.7652 10.359 15.539 10.2775 15.3492 10.3667C15.1595 10.4559 15.0779 10.6821 15.1672 10.8718L15.6518 11.9027C15.741 12.0924 15.9672 12.1739 16.1569 12.0847C16.3467 11.9955 16.4282 11.7693 16.339 11.5796L15.8544 10.5487Z" fill="white"/>
<path d="M14.1969 13.9326C14.1077 13.7428 13.8815 13.6613 13.6918 13.7505C13.502 13.8397 13.4205 14.0659 13.5097 14.2557L13.9943 15.2865C14.0835 15.4762 14.3097 15.5578 14.4995 15.4685C14.6892 15.3793 14.7707 15.1532 14.6815 14.9634L14.1969 13.9326Z" fill="white"/>
<path d="M15.5281 13.3122C15.4389 13.1224 15.2127 13.0409 15.0229 13.1301C14.8332 13.2193 14.7516 13.4455 14.8409 13.6353L15.3255 14.6661C15.4147 14.8559 15.6409 14.9374 15.8306 14.8482C16.0204 14.7589 16.1019 14.5328 16.0127 14.343L15.5281 13.3122Z" fill="white"/>
<path d="M16.8539 12.6804C16.7646 12.4906 16.5385 12.4091 16.3487 12.4983C16.1589 12.5875 16.0774 12.8137 16.1666 13.0034L16.6513 14.0343C16.7405 14.224 16.9666 14.3055 17.1564 14.2163C17.3462 14.1271 17.4277 13.9009 17.3385 13.7112L16.8539 12.6804Z" fill="white"/>
<path d="M12.2143 5.32306L10.7941 5.99077C10.4651 6.14541 10.3238 6.53743 10.4785 6.86636L11.0331 8.04608C11.1878 8.37501 11.5798 8.5163 11.9087 8.36166L13.329 7.69395C13.6579 7.5393 13.7992 7.14729 13.6445 6.81835L13.0899 5.63864C12.9353 5.3097 12.5432 5.16841 12.2143 5.32306Z" fill="white"/>
<path d="M12.0564 5.90585C11.9678 5.66539 11.6894 5.07054 11.0439 4.69086C9.86687 3.99477 8.58859 4.64023 8.5 4.69086V5.67804C9.25937 5.20976 10.12 5.17179 10.6642 5.58945C10.7908 5.67804 10.9806 5.86789 11.1198 6.19695C11.4362 6.0957 11.74 5.99445 12.0564 5.8932V5.90585Z" fill="white"/>
</g>
<defs>
<filter id="filter0_d_215_309" x="0" y="0" width="27" height="27" filterUnits="userSpaceOnUse" color-interpolation-filters="sRGB">
<feFlood flood-opacity="0" result="BackgroundImageFix"/>
<feColorMatrix in="SourceAlpha" type="matrix" values="0 0 0 0 0 0 0 0 0 0 0 0 0 0 0 0 0 0 127 0" result="hardAlpha"/>
<feOffset dy="4"/>
<feGaussianBlur stdDeviation="2"/>
<feComposite in2="hardAlpha" operator="out"/>
<feColorMatrix type="matrix" values="0 0 0 0 0 0 0 0 0 0 0 0 0 0 0 0 0 0 0.25 0"/>
<feBlend mode="normal" in2="BackgroundImageFix" result="effect1_dropShadow_215_309"/>
<feBlend mode="normal" in="SourceGraphic" in2="effect1_dropShadow_215_309" result="shape"/>
</filter>
<linearGradient id="paint0_linear_215_309" x1="4" y1="7.09734" x2="23" y2="11.9027" gradientUnits="userSpaceOnUse">
<stop stop-color="white"/>
<stop offset="1" stop-color="#666666" stop-opacity="0"/>
</linearGradient>
</defs>
</svg>
