<svg width="39" height="51" viewBox="0 0 39 51" fill="none" xmlns="http://www.w3.org/2000/svg">
<g filter="url(#filter0_d_215_697)">
<path d="M35 15.5C35 24.0604 19.5 43 19.5 43C19.5 43 4 24.0604 4 15.5C4 6.93959 10.9396 0 19.5 0C28.0604 0 35 6.93959 35 15.5Z" fill="#237DB9"/>
<path d="M35 15.5C35 24.0604 19.5 43 19.5 43C19.5 43 4 24.0604 4 15.5C4 6.93959 10.9396 0 19.5 0C28.0604 0 35 6.93959 35 15.5Z" fill="url(#paint0_linear_215_697)" fill-opacity="0.4"/>
<path d="M19.5 1C27.5081 1 34 7.49187 34 15.5C34 17.3977 33.1224 20.0116 31.6797 22.9697C30.2542 25.8925 28.343 29.0215 26.418 31.9053C24.4954 34.7854 22.5708 37.4033 21.126 39.3018C20.4692 40.1647 19.9116 40.8776 19.5 41.3984C19.0884 40.8776 18.5308 40.1647 17.874 39.3018C16.4292 37.4033 14.5046 34.7854 12.582 31.9053C10.657 29.0215 8.74585 25.8925 7.32031 22.9697C5.87757 20.0116 5 17.3977 5 15.5C5 7.49187 11.4919 1 19.5 1Z" stroke="white" stroke-opacity="0.4" stroke-width="2"/>
<path d="M23.8518 16.9805L16.6659 20.3667C15.7997 20.7801 14.8744 20.4848 14.7562 19.7761L14.1065 15.8977C14.0278 15.3661 14.4215 14.7755 15.0515 14.4605L20.1703 12.0586C20.8003 11.7633 21.509 11.8224 21.8634 12.2161L24.5803 15.1298C25.0725 15.6614 24.7181 16.5867 23.8322 17.0002L23.8518 16.9805Z" fill="white"/>
<path d="M19.3072 20.5594C19.1684 20.2642 18.8166 20.1374 18.5214 20.2762C18.2262 20.415 18.0994 20.7668 18.2382 21.062L18.9921 22.6655C19.1309 22.9607 19.4827 23.0875 19.7779 22.9487C20.0731 22.8099 20.1999 22.4581 20.0611 22.1629L19.3072 20.5594Z" fill="white"/>
<path d="M21.3778 19.5944C21.239 19.2992 20.8872 19.1724 20.592 19.3111C20.2968 19.4499 20.17 19.8017 20.3088 20.0969L21.0627 21.7004C21.2014 21.9956 21.5532 22.1224 21.8484 21.9836C22.1436 21.8449 22.2704 21.4931 22.1317 21.1979L21.3778 19.5944Z" fill="white"/>
<path d="M23.4402 18.6115C23.3014 18.3163 22.9496 18.1895 22.6544 18.3283C22.3592 18.4671 22.2324 18.8189 22.3712 19.1141L23.125 20.7176C23.2638 21.0128 23.6156 21.1396 23.9108 21.0008C24.206 20.862 24.3328 20.5102 24.194 20.215L23.4402 18.6115Z" fill="white"/>
<path d="M20.8619 23.8752C20.7231 23.58 20.3713 23.4532 20.0761 23.592C19.7809 23.7308 19.6541 24.0826 19.7929 24.3778L20.5467 25.9813C20.6855 26.2765 21.0373 26.4033 21.3325 26.2645C21.6277 26.1257 21.7545 25.7739 21.6157 25.4787L20.8619 23.8752Z" fill="white"/>
<path d="M22.9326 22.9102C22.7938 22.615 22.442 22.4882 22.1468 22.627C21.8516 22.7658 21.7248 23.1176 21.8636 23.4128L22.6175 25.0163C22.7562 25.3115 23.1081 25.4383 23.4032 25.2995C23.6984 25.1607 23.8252 24.8089 23.6865 24.5137L22.9326 22.9102Z" fill="white"/>
<path d="M24.9948 21.9274C24.8561 21.6322 24.5043 21.5054 24.2091 21.6441C23.9139 21.7829 23.7871 22.1347 23.9258 22.4299L24.6797 24.0334C24.8185 24.3286 25.1703 24.4554 25.4655 24.3166C25.7607 24.1779 25.8875 23.8261 25.7487 23.5309L24.9948 21.9274Z" fill="white"/>
<path d="M17.7778 10.4827L15.5686 11.5213C15.0569 11.7619 14.8371 12.3717 15.0777 12.8834L15.9404 14.7185C16.181 15.2301 16.7908 15.4499 17.3025 15.2094L19.5117 14.1707C20.0234 13.9302 20.2432 13.3204 20.0026 12.8087L19.1399 10.9736C18.8993 10.4619 18.2895 10.2421 17.7778 10.4827Z" fill="white"/>
<path d="M17.5322 11.3892C17.3944 11.0152 16.9612 10.0899 15.9572 9.49923C14.1262 8.41642 12.1378 9.42048 12 9.49923V11.0349C13.1812 10.3064 14.52 10.2474 15.3666 10.897C15.5634 11.0349 15.8587 11.3302 16.0753 11.842C16.5675 11.6845 17.04 11.527 17.5322 11.3695V11.3892Z" fill="white"/>
</g>
<defs>
<filter id="filter0_d_215_697" x="0" y="0" width="39" height="51" filterUnits="userSpaceOnUse" color-interpolation-filters="sRGB">
<feFlood flood-opacity="0" result="BackgroundImageFix"/>
<feColorMatrix in="SourceAlpha" type="matrix" values="0 0 0 0 0 0 0 0 0 0 0 0 0 0 0 0 0 0 127 0" result="hardAlpha"/>
<feOffset dy="4"/>
<feGaussianBlur stdDeviation="2"/>
<feComposite in2="hardAlpha" operator="out"/>
<feColorMatrix type="matrix" values="0 0 0 0 0 0 0 0 0 0 0 0 0 0 0 0 0 0 0.25 0"/>
<feBlend mode="normal" in2="BackgroundImageFix" result="effect1_dropShadow_215_697"/>
<feBlend mode="normal" in="SourceGraphic" in2="effect1_dropShadow_215_697" result="shape"/>
</filter>
<linearGradient id="paint0_linear_215_697" x1="10.5" y1="5" x2="29" y2="31" gradientUnits="userSpaceOnUse">
<stop stop-color="#D9D9D9"/>
<stop offset="1" stop-color="#737373" stop-opacity="0"/>
</linearGradient>
</defs>
</svg>
