<svg width="27" height="27" viewBox="0 0 27 27" fill="none" xmlns="http://www.w3.org/2000/svg">
<g filter="url(#filter0_d_215_365)">
<rect x="4" width="19" height="19" rx="9.5" fill="#F1B845" shape-rendering="crispEdges"/>
<rect x="4" width="19" height="19" rx="9.5" fill="url(#paint0_linear_215_365)" fill-opacity="0.4" shape-rendering="crispEdges"/>
<rect x="4.5" y="0.5" width="18" height="18" rx="9" stroke="#E6E6E6" shape-rendering="crispEdges"/>
<path d="M16.3248 6.89716C17.1249 6.89716 17.7734 6.24861 17.7734 5.44858C17.7734 4.64855 17.1249 4 16.3248 4C15.5248 4 14.8763 4.64855 14.8763 5.44858C14.8763 6.24861 15.5248 6.89716 16.3248 6.89716Z" fill="#0C0C0C"/>
<path d="M16.4709 12.0341C16.2152 11.9246 15.9231 12.0342 15.8014 12.2776L14.4989 15.1139C14.3893 15.3695 14.4989 15.6617 14.7423 15.7834C14.9979 15.893 15.2901 15.7834 15.4118 15.54L16.7143 12.7037C16.8239 12.448 16.7143 12.1559 16.4709 12.0341Z" fill="#0C0C0C"/>
<path d="M18.4063 15.1869L16.7873 13.1419L16.3126 14.1644L17.6151 15.8078C17.7855 16.0269 18.102 16.0634 18.3211 15.893C18.5402 15.7226 18.5768 15.4061 18.4063 15.1869Z" fill="#0C0C0C"/>
<path d="M9.34968 10.7925L8.54627 10.3665C8.65582 10.6464 8.76538 10.9264 8.87494 11.2064C8.42454 11.5837 7.97414 11.9611 7.53591 12.3506C7.51156 12.4115 7.43853 12.6063 7.53591 12.7645C7.64547 12.9593 7.9011 12.9715 8.09587 12.9836C8.2176 12.9836 8.44888 12.9836 8.71669 12.8619C8.81407 12.9958 8.91145 13.1297 9.00884 13.2636L10.4331 12.2411C10.0679 11.7663 9.71487 11.2794 9.34968 10.8047V10.7925Z" fill="#0C0C0C"/>
<path d="M13.2085 12.0098L12.5147 12.5819H10.567L9.25231 13.5314L9.10623 15.5887C9.10623 15.7712 9.25231 15.9173 9.42273 15.9173C9.58098 15.9173 9.71488 15.7956 9.73923 15.6373L9.70271 14.5174C10.3844 14.5418 11.0783 14.5661 11.7599 14.5905C11.5895 14.8826 11.4191 15.1626 11.2487 15.4548C11.1878 15.6373 11.273 15.8321 11.4313 15.893C11.553 15.9417 11.6991 15.9052 11.7965 15.8078L12.3077 14.7974L12.8312 15.7469C12.9529 15.9173 13.172 15.9417 13.2816 15.8443C13.3668 15.7712 13.4033 15.6495 13.3668 15.5278C13.1842 15.1626 13.0016 14.7974 12.8312 14.4322C12.8312 13.9453 12.8312 13.4584 12.819 12.9593L13.5737 12.3141C13.6467 12.2167 13.6346 12.0828 13.5737 12.0098C13.4885 11.9124 13.3181 11.9002 13.1963 12.0098H13.2085Z" fill="#0C0C0C"/>
<path d="M14.6084 10.756L15.6431 9.72129L15.8622 11.669H16.8969L17.4204 7.21366H15.3631L15.497 8.4553L13.9024 10.05C13.732 10.2204 13.732 10.476 13.8659 10.6708C13.8415 10.6708 13.8293 10.6708 13.805 10.6708L10.9565 11.9855C10.8713 12.022 10.8348 12.1194 10.8713 12.2046C10.9078 12.2898 11.0052 12.3263 11.0904 12.2898L13.9389 10.9873C13.9998 10.9629 14.0241 10.8899 14.0241 10.829C14.2189 10.9386 14.4502 10.9386 14.6084 10.7803V10.756Z" fill="#0C0C0C"/>
</g>
<defs>
<filter id="filter0_d_215_365" x="0" y="0" width="27" height="27" filterUnits="userSpaceOnUse" color-interpolation-filters="sRGB">
<feFlood flood-opacity="0" result="BackgroundImageFix"/>
<feColorMatrix in="SourceAlpha" type="matrix" values="0 0 0 0 0 0 0 0 0 0 0 0 0 0 0 0 0 0 127 0" result="hardAlpha"/>
<feOffset dy="4"/>
<feGaussianBlur stdDeviation="2"/>
<feComposite in2="hardAlpha" operator="out"/>
<feColorMatrix type="matrix" values="0 0 0 0 0 0 0 0 0 0 0 0 0 0 0 0 0 0 0.25 0"/>
<feBlend mode="normal" in2="BackgroundImageFix" result="effect1_dropShadow_215_365"/>
<feBlend mode="normal" in="SourceGraphic" in2="effect1_dropShadow_215_365" result="shape"/>
</filter>
<linearGradient id="paint0_linear_215_365" x1="4" y1="7.09734" x2="23" y2="11.9027" gradientUnits="userSpaceOnUse">
<stop stop-color="white"/>
<stop offset="1" stop-color="#666666" stop-opacity="0"/>
</linearGradient>
</defs>
</svg>
