<svg width="59" height="60" viewBox="0 0 59 60" fill="none" xmlns="http://www.w3.org/2000/svg">
<g clip-path="url(#clip0_214_271)">
<g filter="url(#filter0_d_214_271)">
<path d="M44.4794 5.66667H14.5205C11.3411 5.66667 8.75165 8.5 8.75165 12.0333V39.5333C8.75165 43.0333 11.3411 45.9 14.5205 45.9H23.0428C25.9928 50.9 28.7461 54.3333 29.5 54.3333C30.2539 54.3333 33.0072 50.8667 35.9572 45.9H44.4794C47.6589 45.9 50.2483 43.0667 50.2483 39.5333V12.0333C50.2483 8.53333 47.6589 5.66667 44.4794 5.66667Z" fill="#F9BC3F" shape-rendering="crispEdges"/>
<path d="M44.4794 5.66667H14.5205C11.3411 5.66667 8.75165 8.5 8.75165 12.0333V39.5333C8.75165 43.0333 11.3411 45.9 14.5205 45.9H23.0428C25.9928 50.9 28.7461 54.3333 29.5 54.3333C30.2539 54.3333 33.0072 50.8667 35.9572 45.9H44.4794C47.6589 45.9 50.2483 43.0667 50.2483 39.5333V12.0333C50.2483 8.53333 47.6589 5.66667 44.4794 5.66667Z" fill="url(#paint0_linear_214_271)" fill-opacity="0.3" shape-rendering="crispEdges"/>
<path d="M44.4794 5.66667H14.5205C11.3411 5.66667 8.75165 8.5 8.75165 12.0333V39.5333C8.75165 43.0333 11.3411 45.9 14.5205 45.9H23.0428C25.9928 50.9 28.7461 54.3333 29.5 54.3333C30.2539 54.3333 33.0072 50.8667 35.9572 45.9H44.4794C47.6589 45.9 50.2483 43.0667 50.2483 39.5333V12.0333C50.2483 8.53333 47.6589 5.66667 44.4794 5.66667Z" stroke="#E3E3E3" stroke-opacity="0.5" stroke-width="2" stroke-miterlimit="10" shape-rendering="crispEdges"/>
</g>
<g filter="url(#filter1_d_214_271)">
<path d="M38.4483 16.3C40.6026 16.3 42.3489 14.5241 42.3489 12.3333C42.3489 10.1426 40.6026 8.36667 38.4483 8.36667C36.2941 8.36667 34.5478 10.1426 34.5478 12.3333C34.5478 14.5241 36.2941 16.3 38.4483 16.3Z" fill="black"/>
<path d="M38.8417 30.3667C38.1533 30.0667 37.3667 30.3667 37.0389 31.0333L33.5317 38.8C33.2367 39.5 33.5317 40.3 34.1872 40.6333C34.8756 40.9333 35.6622 40.6333 35.99 39.9667L39.4972 32.2C39.7922 31.5 39.4972 30.7 38.8417 30.3667Z" fill="black"/>
<path d="M44.0534 39L39.6939 33.4L38.4156 36.2L41.9228 40.7C42.3817 41.3 43.2339 41.4 43.8239 40.9333C44.4139 40.4667 44.5123 39.6 44.0534 39Z" fill="black"/>
<path d="M19.6667 26.9667L17.5033 25.8C17.7983 26.5667 18.0933 27.3333 18.3883 28.1C17.1756 29.1333 15.9628 30.1667 14.7828 31.2333C14.7172 31.4 14.5206 31.9333 14.7828 32.3667C15.0778 32.9 15.7661 32.9333 16.2906 32.9667C16.6183 32.9667 17.2411 32.9667 17.9622 32.6333C18.2245 33 18.4867 33.3667 18.7489 33.7333L22.5839 30.9333C21.6006 29.6333 20.65 28.3 19.6667 27V26.9667Z" fill="black"/>
<path d="M30.0572 30.3L28.1889 31.8667H22.9444L19.4044 34.4667L19.0111 40.1C19.0111 40.6 19.4044 41 19.8633 41C20.2894 41 20.65 40.6667 20.7156 40.2333L20.6172 37.1667C22.4528 37.2333 24.3211 37.3 26.1567 37.3667C25.6978 38.1667 25.2389 38.9333 24.78 39.7333C24.6161 40.2333 24.8456 40.7667 25.2717 40.9333C25.5994 41.0667 25.9928 40.9667 26.255 40.7L27.6317 37.9333L29.0411 40.5333C29.3689 41 29.9589 41.0667 30.2539 40.8C30.4833 40.6 30.5817 40.2667 30.4833 39.9333C29.9917 38.9333 29.5 37.9333 29.0411 36.9333C29.0411 35.6 29.0411 34.2667 29.0083 32.9L31.0406 31.1333C31.2372 30.8667 31.2044 30.5 31.0406 30.3C30.8111 30.0333 30.3522 30 30.0244 30.3H30.0572Z" fill="black"/>
<path d="M33.8267 26.8667L36.6128 24.0333L37.2028 29.3667H39.9889L41.3984 17.1667H35.8589L36.2195 20.5667L31.9256 24.9333C31.4667 25.4 31.4667 26.1 31.8273 26.6333C31.7617 26.6333 31.7289 26.6333 31.6634 26.6333L23.9934 30.2333C23.7639 30.3333 23.6656 30.6 23.7639 30.8333C23.8623 31.0667 24.1245 31.1667 24.3539 31.0667L32.0239 27.5C32.1878 27.4333 32.2534 27.2333 32.2534 27.0667C32.7778 27.3667 33.4006 27.3667 33.8267 26.9333V26.8667Z" fill="black"/>
</g>
</g>
<defs>
<filter id="filter0_d_214_271" x="3.75165" y="4.66667" width="51.4966" height="58.6667" filterUnits="userSpaceOnUse" color-interpolation-filters="sRGB">
<feFlood flood-opacity="0" result="BackgroundImageFix"/>
<feColorMatrix in="SourceAlpha" type="matrix" values="0 0 0 0 0 0 0 0 0 0 0 0 0 0 0 0 0 0 127 0" result="hardAlpha"/>
<feOffset dy="4"/>
<feGaussianBlur stdDeviation="2"/>
<feComposite in2="hardAlpha" operator="out"/>
<feColorMatrix type="matrix" values="0 0 0 0 0 0 0 0 0 0 0 0 0 0 0 0 0 0 0.25 0"/>
<feBlend mode="normal" in2="BackgroundImageFix" result="effect1_dropShadow_214_271"/>
<feBlend mode="normal" in="SourceGraphic" in2="effect1_dropShadow_214_271" result="shape"/>
</filter>
<filter id="filter1_d_214_271" x="10.6503" y="8.36667" width="37.6913" height="40.8597" filterUnits="userSpaceOnUse" color-interpolation-filters="sRGB">
<feFlood flood-opacity="0" result="BackgroundImageFix"/>
<feColorMatrix in="SourceAlpha" type="matrix" values="0 0 0 0 0 0 0 0 0 0 0 0 0 0 0 0 0 0 127 0" result="hardAlpha"/>
<feOffset dy="4"/>
<feGaussianBlur stdDeviation="2"/>
<feComposite in2="hardAlpha" operator="out"/>
<feColorMatrix type="matrix" values="0 0 0 0 0 0 0 0 0 0 0 0 0 0 0 0 0 0 0.25 0"/>
<feBlend mode="normal" in2="BackgroundImageFix" result="effect1_dropShadow_214_271"/>
<feBlend mode="normal" in="SourceGraphic" in2="effect1_dropShadow_214_271" result="shape"/>
</filter>
<linearGradient id="paint0_linear_214_271" x1="8.75165" y1="11.4995" x2="50.8532" y2="47.7989" gradientUnits="userSpaceOnUse">
<stop stop-color="white"/>
<stop offset="1" stop-color="#666666" stop-opacity="0"/>
</linearGradient>
<clipPath id="clip0_214_271">
<rect width="59" height="60" fill="white"/>
</clipPath>
</defs>
</svg>
