<svg width="60" height="60" viewBox="0 0 60 60" fill="none" xmlns="http://www.w3.org/2000/svg">
<path d="M45.2334 5.66666H14.7667C11.5334 5.66666 8.90002 8.49999 8.90002 12.0333V39.5333C8.90002 43.0333 11.5334 45.9 14.7667 45.9H23.4334C26.4334 50.9 29.2334 54.3333 30 54.3333C30.7667 54.3333 33.5667 50.8667 36.5667 45.9H45.2334C48.4667 45.9 51.1 43.0667 51.1 39.5333V12.0333C51.1 8.53332 48.4667 5.66666 45.2334 5.66666Z" fill="#F9BC3F" stroke="white" stroke-width="2" stroke-miterlimit="10"/>
<path d="M39.1 16.3C41.2907 16.3 43.0666 14.5241 43.0666 12.3333C43.0666 10.1426 41.2907 8.36667 39.1 8.36667C36.9092 8.36667 35.1333 10.1426 35.1333 12.3333C35.1333 14.5241 36.9092 16.3 39.1 16.3Z" fill="black"/>
<path d="M39.5 30.3667C38.8 30.0667 38 30.3667 37.6666 31.0333L34.1 38.8C33.8 39.5 34.1 40.3 34.7666 40.6333C35.4666 40.9333 36.2666 40.6333 36.6 39.9667L40.1666 32.2C40.4666 31.5 40.1666 30.7 39.5 30.3667Z" fill="black"/>
<path d="M44.8 39L40.3666 33.4L39.0667 36.2L42.6333 40.7C43.1 41.3 43.9666 41.4 44.5666 40.9333C45.1666 40.4667 45.2666 39.6 44.8 39Z" fill="black"/>
<path d="M20 26.9667L17.8 25.8C18.1 26.5667 18.4 27.3333 18.7 28.1C17.4667 29.1333 16.2333 30.1667 15.0333 31.2333C14.9667 31.4 14.7667 31.9333 15.0333 32.3667C15.3333 32.9 16.0333 32.9333 16.5667 32.9667C16.9 32.9667 17.5333 32.9667 18.2667 32.6333C18.5333 33 18.8 33.3667 19.0667 33.7333L22.9667 30.9333C21.9667 29.6333 21 28.3 20 27V26.9667Z" fill="black"/>
<path d="M30.5667 30.3L28.6667 31.8667H23.3334L19.7334 34.4667L19.3334 40.1C19.3334 40.6 19.7334 41 20.2 41C20.6334 41 21 40.6667 21.0667 40.2333L20.9667 37.1667C22.8334 37.2333 24.7334 37.3 26.6 37.3667C26.1334 38.1667 25.6667 38.9333 25.2 39.7333C25.0334 40.2333 25.2667 40.7667 25.7 40.9333C26.0334 41.0667 26.4334 40.9667 26.7 40.7L28.1 37.9333L29.5334 40.5333C29.8667 41 30.4667 41.0667 30.7667 40.8C31 40.6 31.1 40.2667 31 39.9333C30.5 38.9333 30 37.9333 29.5334 36.9333C29.5334 35.6 29.5334 34.2667 29.5 32.9L31.5667 31.1333C31.7667 30.8667 31.7334 30.5 31.5667 30.3C31.3334 30.0333 30.8667 30 30.5334 30.3H30.5667Z" fill="black"/>
<path d="M34.4 26.8667L37.2333 24.0333L37.8333 29.3667H40.6667L42.1 17.1667H36.4667L36.8333 20.5667L32.4667 24.9333C32 25.4 32 26.1 32.3667 26.6333C32.3 26.6333 32.2667 26.6333 32.2 26.6333L24.4 30.2333C24.1667 30.3333 24.0667 30.6 24.1667 30.8333C24.2667 31.0667 24.5333 31.1667 24.7667 31.0667L32.5667 27.5C32.7333 27.4333 32.8 27.2333 32.8 27.0667C33.3333 27.3667 33.9667 27.3667 34.4 26.9333V26.8667Z" fill="black"/>
</svg>
