<svg width="39" height="51" viewBox="0 0 39 51" fill="none" xmlns="http://www.w3.org/2000/svg">
<g filter="url(#filter0_d_215_698)">
<path d="M35 15.5C35 24.0604 19.5 43 19.5 43C19.5 43 4 24.0604 4 15.5C4 6.93959 10.9396 0 19.5 0C28.0604 0 35 6.93959 35 15.5Z" fill="#EBB548"/>
<path d="M35 15.5C35 24.0604 19.5 43 19.5 43C19.5 43 4 24.0604 4 15.5C4 6.93959 10.9396 0 19.5 0C28.0604 0 35 6.93959 35 15.5Z" fill="url(#paint0_linear_215_698)" fill-opacity="0.4"/>
<path d="M19.5 1C27.5081 1 34 7.49187 34 15.5C34 17.3977 33.1224 20.0116 31.6797 22.9697C30.2542 25.8925 28.343 29.0215 26.418 31.9053C24.4954 34.7854 22.5708 37.4033 21.126 39.3018C20.4692 40.1647 19.9116 40.8776 19.5 41.3984C19.0884 40.8776 18.5308 40.1647 17.874 39.3018C16.4292 37.4033 14.5046 34.7854 12.582 31.9053C10.657 29.0215 8.74585 25.8925 7.32031 22.9697C5.87757 20.0116 5 17.3977 5 15.5C5 7.49187 11.4919 1 19.5 1Z" stroke="white" stroke-opacity="0.4" stroke-width="2"/>
<path d="M23.8243 12.2039C24.9851 12.2039 25.9262 11.2628 25.9262 10.1019C25.9262 8.94106 24.9851 8 23.8243 8C22.6634 8 21.7224 8.94106 21.7224 10.1019C21.7224 11.2628 22.6634 12.2039 23.8243 12.2039Z" fill="#0C0C0C"/>
<path d="M24.0363 19.6577C23.6654 19.4988 23.2415 19.6577 23.0648 20.011L21.1749 24.1265C21.0159 24.4975 21.1749 24.9214 21.5281 25.098C21.8991 25.257 22.323 25.098 22.4996 24.7448L24.3896 20.6292C24.5485 20.2583 24.3896 19.8344 24.0363 19.6577Z" fill="#0C0C0C"/>
<path d="M26.8447 24.2325L24.4955 21.2651L23.8066 22.7488L25.6966 25.1333C25.9439 25.4513 26.4031 25.5043 26.7211 25.257C27.039 25.0097 27.092 24.5505 26.8447 24.2325Z" fill="#0C0C0C"/>
<path d="M13.7032 17.8561L12.5375 17.2379C12.6964 17.6441 12.8554 18.0504 13.0144 18.4566C12.3608 19.0042 11.7073 19.5518 11.0714 20.117C11.0361 20.2053 10.9301 20.4879 11.0714 20.7175C11.2304 21.0001 11.6013 21.0178 11.8839 21.0355C12.0606 21.0355 12.3962 21.0355 12.7847 20.8588C12.9261 21.0531 13.0674 21.2474 13.2087 21.4417L15.2753 19.958C14.7454 19.2691 14.2331 18.5626 13.7032 17.8738V17.8561Z" fill="#0C0C0C"/>
<path d="M19.3024 19.6224L18.2956 20.4526H15.4695L13.5619 21.8303L13.3499 24.8154C13.3499 25.0804 13.5619 25.2923 13.8092 25.2923C14.0388 25.2923 14.2331 25.1157 14.2684 24.8861L14.2154 23.261C15.2046 23.2964 16.2114 23.3317 17.2005 23.367C16.9532 23.7909 16.7059 24.1972 16.4586 24.6211C16.3703 24.8861 16.494 25.1687 16.7236 25.257C16.9002 25.3276 17.1122 25.2747 17.2535 25.1333L17.9953 23.6673L18.7549 25.045C18.9315 25.2923 19.2494 25.3276 19.4084 25.1863C19.532 25.0804 19.585 24.9037 19.5321 24.7271C19.2671 24.1972 19.0022 23.6673 18.7549 23.1374C18.7549 22.4309 18.7549 21.7243 18.7372 21.0001L19.8323 20.064C19.9383 19.9227 19.9206 19.7284 19.8323 19.6224C19.7087 19.4811 19.4614 19.4634 19.2848 19.6224H19.3024Z" fill="#0C0C0C"/>
<path d="M21.3338 17.8031L22.8352 16.3017L23.1531 19.1278H24.6545L25.414 12.6631H22.4289L22.6232 14.4647L20.3094 16.7786C20.0621 17.0259 20.0621 17.3968 20.2564 17.6795C20.221 17.6795 20.2034 17.6795 20.168 17.6795L16.0349 19.5871C15.9112 19.6401 15.8582 19.7814 15.9112 19.905C15.9642 20.0287 16.1055 20.0817 16.2291 20.0287L20.3623 18.1387C20.4507 18.1034 20.486 17.9974 20.486 17.9091C20.7686 18.068 21.1042 18.068 21.3338 17.8384V17.8031Z" fill="#0C0C0C"/>
</g>
<defs>
<filter id="filter0_d_215_698" x="0" y="0" width="39" height="51" filterUnits="userSpaceOnUse" color-interpolation-filters="sRGB">
<feFlood flood-opacity="0" result="BackgroundImageFix"/>
<feColorMatrix in="SourceAlpha" type="matrix" values="0 0 0 0 0 0 0 0 0 0 0 0 0 0 0 0 0 0 127 0" result="hardAlpha"/>
<feOffset dy="4"/>
<feGaussianBlur stdDeviation="2"/>
<feComposite in2="hardAlpha" operator="out"/>
<feColorMatrix type="matrix" values="0 0 0 0 0 0 0 0 0 0 0 0 0 0 0 0 0 0 0.25 0"/>
<feBlend mode="normal" in2="BackgroundImageFix" result="effect1_dropShadow_215_698"/>
<feBlend mode="normal" in="SourceGraphic" in2="effect1_dropShadow_215_698" result="shape"/>
</filter>
<linearGradient id="paint0_linear_215_698" x1="10.5" y1="5" x2="29" y2="31" gradientUnits="userSpaceOnUse">
<stop stop-color="#D9D9D9"/>
<stop offset="1" stop-color="#737373" stop-opacity="0"/>
</linearGradient>
</defs>
</svg>
