<svg width="50" height="50" viewBox="0 0 50 50" fill="none" xmlns="http://www.w3.org/2000/svg">
<path d="M37.6944 4.72222H12.3055C9.61107 4.72222 7.41663 7.08333 7.41663 10.0278V32.9444C7.41663 35.8611 9.61107 38.25 12.3055 38.25H19.5277C22.0277 42.4167 24.3611 45.2778 25 45.2778C25.6388 45.2778 27.9722 42.3889 30.4722 38.25H37.6944C40.3888 38.25 42.5833 35.8889 42.5833 32.9444V10.0278C42.5833 7.11111 40.3888 4.72222 37.6944 4.72222Z" fill="#F9BC3F" stroke="black" stroke-width="0.75" stroke-miterlimit="10"/>
<path d="M32.5834 13.5833C34.409 13.5833 35.8889 12.1034 35.8889 10.2778C35.8889 8.45217 34.409 6.97222 32.5834 6.97222C30.7578 6.97222 29.2778 8.45217 29.2778 10.2778C29.2778 12.1034 30.7578 13.5833 32.5834 13.5833Z" fill="black"/>
<path d="M32.9167 25.3056C32.3334 25.0556 31.6667 25.3056 31.389 25.8611L28.4167 32.3333C28.1667 32.9167 28.4167 33.5833 28.9723 33.8611C29.5556 34.1111 30.2223 33.8611 30.5001 33.3056L33.4723 26.8333C33.7223 26.25 33.4723 25.5833 32.9167 25.3056Z" fill="black"/>
<path d="M37.3334 32.5L33.639 27.8333L32.5557 30.1667L35.5279 33.9167C35.9168 34.4167 36.639 34.5 37.139 34.1111C37.639 33.7222 37.7223 33 37.3334 32.5Z" fill="black"/>
<path d="M16.6667 22.4722L14.8334 21.5C15.0834 22.1389 15.3334 22.7778 15.5834 23.4167C14.5556 24.2778 13.5278 25.1389 12.5278 26.0278C12.4723 26.1667 12.3056 26.6111 12.5278 26.9722C12.7778 27.4167 13.3612 27.4444 13.8056 27.4722C14.0834 27.4722 14.6112 27.4722 15.2223 27.1944C15.4445 27.5 15.6667 27.8056 15.8889 28.1111L19.1389 25.7778C18.3056 24.6944 17.5001 23.5833 16.6667 22.5V22.4722Z" fill="black"/>
<path d="M25.4723 25.25L23.889 26.5556H19.4445L16.4445 28.7222L16.1112 33.4167C16.1112 33.8333 16.4445 34.1667 16.8334 34.1667C17.1945 34.1667 17.5001 33.8889 17.5557 33.5278L17.4723 30.9722C19.0279 31.0278 20.6112 31.0833 22.1668 31.1389C21.7779 31.8056 21.389 32.4444 21.0001 33.1111C20.8612 33.5278 21.0557 33.9722 21.4168 34.1111C21.6945 34.2222 22.0279 34.1389 22.2501 33.9167L23.4168 31.6111L24.6112 33.7778C24.889 34.1667 25.389 34.2222 25.639 34C25.8334 33.8333 25.9168 33.5556 25.8334 33.2778C25.4168 32.4444 25.0001 31.6111 24.6112 30.7778C24.6112 29.6667 24.6112 28.5556 24.5834 27.4167L26.3057 25.9444C26.4723 25.7222 26.4445 25.4167 26.3057 25.25C26.1112 25.0278 25.7223 25 25.4445 25.25H25.4723Z" fill="black"/>
<path d="M28.6668 22.3889L31.0279 20.0278L31.5279 24.4722H33.889L35.0834 14.3056H30.389L30.6945 17.1389L27.0557 20.7778C26.6668 21.1667 26.6668 21.75 26.9723 22.1944C26.9168 22.1944 26.889 22.1944 26.8334 22.1944L20.3334 25.1944C20.139 25.2778 20.0557 25.5 20.139 25.6944C20.2223 25.8889 20.4445 25.9722 20.639 25.8889L27.139 22.9167C27.2779 22.8611 27.3334 22.6944 27.3334 22.5556C27.7779 22.8056 28.3057 22.8056 28.6668 22.4444V22.3889Z" fill="black"/>
</svg>
