<svg width="39" height="51" viewBox="0 0 39 51" fill="none" xmlns="http://www.w3.org/2000/svg">
<g filter="url(#filter0_d_215_700)">
<path d="M35 15.5C35 24.0604 19.5 43 19.5 43C19.5 43 4 24.0604 4 15.5C4 6.93959 10.9396 0 19.5 0C28.0604 0 35 6.93959 35 15.5Z" fill="#DBDBDB"/>
<path d="M35 15.5C35 24.0604 19.5 43 19.5 43C19.5 43 4 24.0604 4 15.5C4 6.93959 10.9396 0 19.5 0C28.0604 0 35 6.93959 35 15.5Z" fill="url(#paint0_linear_215_700)" fill-opacity="0.4"/>
<path d="M19.5 1C27.5081 1 34 7.49187 34 15.5C34 17.3977 33.1224 20.0116 31.6797 22.9697C30.2542 25.8925 28.343 29.0215 26.418 31.9053C24.4954 34.7854 22.5708 37.4033 21.126 39.3018C20.4692 40.1647 19.9116 40.8776 19.5 41.3984C19.0884 40.8776 18.5308 40.1647 17.874 39.3018C16.4292 37.4033 14.5046 34.7854 12.582 31.9053C10.657 29.0215 8.74585 25.8925 7.32031 22.9697C5.87757 20.0116 5 17.3977 5 15.5C5 7.49187 11.4919 1 19.5 1Z" stroke="white" stroke-opacity="0.4" stroke-width="2"/>
<path d="M12.8555 16.0782C13.8802 16.0782 14.7109 15.2475 14.7109 14.2228C14.7109 13.198 13.8802 12.3673 12.8555 12.3673C11.8307 12.3673 11 13.198 11 14.2228C11 15.2475 11.8307 16.0782 12.8555 16.0782Z" fill="black"/>
<path d="M17.2535 12.7109C18.2783 12.7109 19.109 11.8802 19.109 10.8555C19.109 9.83072 18.2783 9 17.2535 9C16.2288 9 15.3981 9.83072 15.3981 10.8555C15.3981 11.8802 16.2288 12.7109 17.2535 12.7109Z" fill="black"/>
<path d="M22.6597 12.7109C23.6844 12.7109 24.5151 11.8802 24.5151 10.8555C24.5151 9.83072 23.6844 9 22.6597 9C21.6349 9 20.8042 9.83072 20.8042 10.8555C20.8042 11.8802 21.6349 12.7109 22.6597 12.7109Z" fill="black"/>
<path d="M26.7371 16.0782C27.7619 16.0782 28.5926 15.2475 28.5926 14.2228C28.5926 13.198 27.7619 12.3673 26.7371 12.3673C25.7124 12.3673 24.8817 13.198 24.8817 14.2228C24.8817 15.2475 25.7124 16.0782 26.7371 16.0782Z" fill="black"/>
<path d="M19.6818 13.9479C16.2915 13.9479 13.5198 16.6051 13.5198 19.8808C13.5198 23.1565 16.4519 23.8438 19.8421 23.8438C23.2324 23.8438 25.8438 23.1565 25.8438 19.8808C25.8438 16.6051 23.0949 13.9479 19.6818 13.9479ZM22.8429 19.9267H20.7126V22.057H18.6509V19.9267H16.5206V17.865H18.6509V15.7347H20.7126V17.865H22.8429V19.9267Z" fill="black"/>
</g>
<defs>
<filter id="filter0_d_215_700" x="0" y="0" width="39" height="51" filterUnits="userSpaceOnUse" color-interpolation-filters="sRGB">
<feFlood flood-opacity="0" result="BackgroundImageFix"/>
<feColorMatrix in="SourceAlpha" type="matrix" values="0 0 0 0 0 0 0 0 0 0 0 0 0 0 0 0 0 0 127 0" result="hardAlpha"/>
<feOffset dy="4"/>
<feGaussianBlur stdDeviation="2"/>
<feComposite in2="hardAlpha" operator="out"/>
<feColorMatrix type="matrix" values="0 0 0 0 0 0 0 0 0 0 0 0 0 0 0 0 0 0 0.25 0"/>
<feBlend mode="normal" in2="BackgroundImageFix" result="effect1_dropShadow_215_700"/>
<feBlend mode="normal" in="SourceGraphic" in2="effect1_dropShadow_215_700" result="shape"/>
</filter>
<linearGradient id="paint0_linear_215_700" x1="10.5" y1="5" x2="29" y2="31" gradientUnits="userSpaceOnUse">
<stop stop-color="#040404"/>
<stop offset="1" stop-color="#737373" stop-opacity="0"/>
</linearGradient>
</defs>
</svg>
