<svg width="59" height="60" viewBox="0 0 59 60" fill="none" xmlns="http://www.w3.org/2000/svg">
<g clip-path="url(#clip0_214_255)">
<g filter="url(#filter0_d_214_255)">
<path d="M44.4794 6.73334H14.5205C11.3411 6.73334 8.75165 9.56667 8.75165 13.1V40.6C8.75165 44.1 11.3411 46.9667 14.5205 46.9667H23.0428C25.9928 51.9667 28.7461 55.4 29.5 55.4C30.2539 55.4 33.0072 51.9333 35.9572 46.9667H44.4794C47.6589 46.9667 50.2483 44.1333 50.2483 40.6V13.1C50.2483 9.6 47.6589 6.73334 44.4794 6.73334Z" fill="#E6E6E6" shape-rendering="crispEdges"/>
<path d="M44.4794 6.73334H14.5205C11.3411 6.73334 8.75165 9.56667 8.75165 13.1V40.6C8.75165 44.1 11.3411 46.9667 14.5205 46.9667H23.0428C25.9928 51.9667 28.7461 55.4 29.5 55.4C30.2539 55.4 33.0072 51.9333 35.9572 46.9667H44.4794C47.6589 46.9667 50.2483 44.1333 50.2483 40.6V13.1C50.2483 9.6 47.6589 6.73334 44.4794 6.73334Z" fill="url(#paint0_linear_214_255)" fill-opacity="0.3" shape-rendering="crispEdges"/>
<path d="M44.4794 6.73334H14.5205C11.3411 6.73334 8.75165 9.56667 8.75165 13.1V40.6C8.75165 44.1 11.3411 46.9667 14.5205 46.9667H23.0428C25.9928 51.9667 28.7461 55.4 29.5 55.4C30.2539 55.4 33.0072 51.9333 35.9572 46.9667H44.4794C47.6589 46.9667 50.2483 44.1333 50.2483 40.6V13.1C50.2483 9.6 47.6589 6.73334 44.4794 6.73334Z" stroke="#E3E3E3" stroke-opacity="0.5" stroke-width="2" stroke-miterlimit="10" shape-rendering="crispEdges"/>
</g>
<g filter="url(#filter1_d_214_255)">
<path d="M19.5683 27.4C21.0346 27.4 22.2233 26.1912 22.2233 24.7C22.2233 23.2088 21.0346 22 19.5683 22C18.102 22 16.9133 23.2088 16.9133 24.7C16.9133 26.1912 18.102 27.4 19.5683 27.4Z" fill="black"/>
<path d="M25.8617 22.5C27.328 22.5 28.5167 21.2912 28.5167 19.8C28.5167 18.3088 27.328 17.1 25.8617 17.1C24.3953 17.1 23.2067 18.3088 23.2067 19.8C23.2067 21.2912 24.3953 22.5 25.8617 22.5Z" fill="black"/>
<path d="M33.5972 22.5C35.0635 22.5 36.2522 21.2912 36.2522 19.8C36.2522 18.3088 35.0635 17.1 33.5972 17.1C32.1309 17.1 30.9422 18.3088 30.9422 19.8C30.9422 21.2912 32.1309 22.5 33.5972 22.5Z" fill="black"/>
<path d="M39.4317 27.4C40.898 27.4 42.0867 26.1912 42.0867 24.7C42.0867 23.2088 40.898 22 39.4317 22C37.9654 22 36.7767 23.2088 36.7767 24.7C36.7767 26.1912 37.9654 27.4 39.4317 27.4Z" fill="black"/>
<path d="M29.3361 24.3C24.485 24.3 20.5189 28.1667 20.5189 32.9333C20.5189 37.7 24.7144 38.7 29.5655 38.7C34.4166 38.7 38.1533 37.7 38.1533 32.9333C38.1533 28.1667 34.22 24.3 29.3361 24.3ZM33.8594 33H30.8111V36.1H27.8611V33H24.8127V30H27.8611V26.9H30.8111V30H33.8594V33Z" fill="black"/>
</g>
</g>
<defs>
<filter id="filter0_d_214_255" x="3.75165" y="5.73334" width="51.4966" height="58.6667" filterUnits="userSpaceOnUse" color-interpolation-filters="sRGB">
<feFlood flood-opacity="0" result="BackgroundImageFix"/>
<feColorMatrix in="SourceAlpha" type="matrix" values="0 0 0 0 0 0 0 0 0 0 0 0 0 0 0 0 0 0 127 0" result="hardAlpha"/>
<feOffset dy="4"/>
<feGaussianBlur stdDeviation="2"/>
<feComposite in2="hardAlpha" operator="out"/>
<feColorMatrix type="matrix" values="0 0 0 0 0 0 0 0 0 0 0 0 0 0 0 0 0 0 0.25 0"/>
<feBlend mode="normal" in2="BackgroundImageFix" result="effect1_dropShadow_214_255"/>
<feBlend mode="normal" in="SourceGraphic" in2="effect1_dropShadow_214_255" result="shape"/>
</filter>
<filter id="filter1_d_214_255" x="12.9133" y="17.1" width="33.1733" height="29.6" filterUnits="userSpaceOnUse" color-interpolation-filters="sRGB">
<feFlood flood-opacity="0" result="BackgroundImageFix"/>
<feColorMatrix in="SourceAlpha" type="matrix" values="0 0 0 0 0 0 0 0 0 0 0 0 0 0 0 0 0 0 127 0" result="hardAlpha"/>
<feOffset dy="4"/>
<feGaussianBlur stdDeviation="2"/>
<feComposite in2="hardAlpha" operator="out"/>
<feColorMatrix type="matrix" values="0 0 0 0 0 0 0 0 0 0 0 0 0 0 0 0 0 0 0.25 0"/>
<feBlend mode="normal" in2="BackgroundImageFix" result="effect1_dropShadow_214_255"/>
<feBlend mode="normal" in="SourceGraphic" in2="effect1_dropShadow_214_255" result="shape"/>
</filter>
<linearGradient id="paint0_linear_214_255" x1="8.75165" y1="10.996" x2="50.9103" y2="50.4296" gradientUnits="userSpaceOnUse">
<stop/>
<stop offset="1" stop-color="#666666" stop-opacity="0"/>
</linearGradient>
<clipPath id="clip0_214_255">
<rect width="59" height="60" fill="white"/>
</clipPath>
</defs>
</svg>
