<svg width="50" height="50" viewBox="0 0 50 50" fill="none" xmlns="http://www.w3.org/2000/svg">
<path d="M37.6944 5.61111H12.3055C9.61107 5.61111 7.41663 7.97223 7.41663 10.9167V33.8333C7.41663 36.75 9.61107 39.1389 12.3055 39.1389H19.5277C22.0277 43.3056 24.3611 46.1667 25 46.1667C25.6388 46.1667 27.9722 43.2778 30.4722 39.1389H37.6944C40.3888 39.1389 42.5833 36.7778 42.5833 33.8333V10.9167C42.5833 8 40.3888 5.61111 37.6944 5.61111Z" fill="#E6E6E6" stroke="black" stroke-width="0.75" stroke-miterlimit="10"/>
<path d="M16.5834 22.8333C17.826 22.8333 18.8334 21.826 18.8334 20.5833C18.8334 19.3407 17.826 18.3333 16.5834 18.3333C15.3407 18.3333 14.3334 19.3407 14.3334 20.5833C14.3334 21.826 15.3407 22.8333 16.5834 22.8333Z" fill="black"/>
<path d="M21.9167 18.75C23.1594 18.75 24.1667 17.7426 24.1667 16.5C24.1667 15.2574 23.1594 14.25 21.9167 14.25C20.6741 14.25 19.6667 15.2574 19.6667 16.5C19.6667 17.7426 20.6741 18.75 21.9167 18.75Z" fill="black"/>
<path d="M28.4723 18.75C29.7149 18.75 30.7223 17.7426 30.7223 16.5C30.7223 15.2574 29.7149 14.25 28.4723 14.25C27.2297 14.25 26.2223 15.2574 26.2223 16.5C26.2223 17.7426 27.2297 18.75 28.4723 18.75Z" fill="black"/>
<path d="M33.4167 22.8333C34.6594 22.8333 35.6667 21.826 35.6667 20.5833C35.6667 19.3407 34.6594 18.3333 33.4167 18.3333C32.1741 18.3333 31.1667 19.3407 31.1667 20.5833C31.1667 21.826 32.1741 22.8333 33.4167 22.8333Z" fill="black"/>
<path d="M24.8611 20.25C20.75 20.25 17.3889 23.4722 17.3889 27.4444C17.3889 31.4167 20.9445 32.25 25.0556 32.25C29.1667 32.25 32.3334 31.4167 32.3334 27.4444C32.3334 23.4722 29 20.25 24.8611 20.25ZM28.6945 27.5H26.1111V30.0833H23.6111V27.5H21.0278V25H23.6111V22.4167H26.1111V25H28.6945V27.5Z" fill="black"/>
</svg>
