<svg width="26" height="26" viewBox="0 0 26 26" fill="none" xmlns="http://www.w3.org/2000/svg">
<g filter="url(#filter0_d_215_460)">
<rect x="4" width="17.8519" height="18" rx="8.92593" fill="#DFDFDF" shape-rendering="crispEdges"/>
<rect x="4" width="17.8519" height="18" rx="8.92593" fill="url(#paint0_linear_215_460)" fill-opacity="0.4" shape-rendering="crispEdges"/>
<rect x="4.5" y="0.5" width="16.8519" height="17" rx="8.42593" stroke="#E6E6E6" shape-rendering="crispEdges"/>
<path d="M8.26562 8.70311C8.96461 8.70311 9.53125 8.13647 9.53125 7.43748C9.53125 6.7385 8.96461 6.17186 8.26562 6.17186C7.56664 6.17186 7 6.7385 7 7.43748C7 8.13647 7.56664 8.70311 8.26562 8.70311Z" fill="black"/>
<path d="M11.2656 6.40625C11.9645 6.40625 12.5312 5.83961 12.5312 5.14062C12.5312 4.44164 11.9645 3.875 11.2656 3.875C10.5666 3.875 9.99994 4.44164 9.99994 5.14062C9.99994 5.83961 10.5666 6.40625 11.2656 6.40625Z" fill="black"/>
<path d="M14.9531 6.40625C15.6521 6.40625 16.2188 5.83961 16.2188 5.14062C16.2188 4.44164 15.6521 3.875 14.9531 3.875C14.2541 3.875 13.6875 4.44164 13.6875 5.14062C13.6875 5.83961 14.2541 6.40625 14.9531 6.40625Z" fill="black"/>
<path d="M17.7344 8.70311C18.4334 8.70311 19 8.13647 19 7.43748C19 6.7385 18.4334 6.17186 17.7344 6.17186C17.0354 6.17186 16.4688 6.7385 16.4688 7.43748C16.4688 8.13647 17.0354 8.70311 17.7344 8.70311Z" fill="black"/>
<path d="M12.9219 7.25C10.6094 7.25 8.71875 9.0625 8.71875 11.2969C8.71875 13.5312 10.7188 14 13.0313 14C15.3438 14 17.125 13.5312 17.125 11.2969C17.125 9.0625 15.25 7.25 12.9219 7.25ZM15.0781 11.3281H13.625V12.7812H12.2187V11.3281H10.7656V9.92187H12.2187V8.46875H13.625V9.92187H15.0781V11.3281Z" fill="black"/>
</g>
<defs>
<filter id="filter0_d_215_460" x="0" y="0" width="25.8519" height="26" filterUnits="userSpaceOnUse" color-interpolation-filters="sRGB">
<feFlood flood-opacity="0" result="BackgroundImageFix"/>
<feColorMatrix in="SourceAlpha" type="matrix" values="0 0 0 0 0 0 0 0 0 0 0 0 0 0 0 0 0 0 127 0" result="hardAlpha"/>
<feOffset dy="4"/>
<feGaussianBlur stdDeviation="2"/>
<feComposite in2="hardAlpha" operator="out"/>
<feColorMatrix type="matrix" values="0 0 0 0 0 0 0 0 0 0 0 0 0 0 0 0 0 0 0.25 0"/>
<feBlend mode="normal" in2="BackgroundImageFix" result="effect1_dropShadow_215_460"/>
<feBlend mode="normal" in="SourceGraphic" in2="effect1_dropShadow_215_460" result="shape"/>
</filter>
<linearGradient id="paint0_linear_215_460" x1="4" y1="6.7238" x2="21.8695" y2="11.206" gradientUnits="userSpaceOnUse">
<stop stop-color="#0A0A0A"/>
<stop offset="1" stop-color="#666666" stop-opacity="0"/>
</linearGradient>
</defs>
</svg>
