<svg width="60" height="60" viewBox="0 0 60 60" fill="none" xmlns="http://www.w3.org/2000/svg">
<path d="M45.2334 6.73334H14.7667C11.5334 6.73334 8.90002 9.56667 8.90002 13.1V40.6C8.90002 44.1 11.5334 46.9667 14.7667 46.9667H23.4334C26.4334 51.9667 29.2334 55.4 30 55.4C30.7667 55.4 33.5667 51.9333 36.5667 46.9667H45.2334C48.4667 46.9667 51.1 44.1333 51.1 40.6V13.1C51.1 9.6 48.4667 6.73334 45.2334 6.73334Z" fill="#E6E6E6" stroke="white" stroke-width="2" stroke-miterlimit="10"/>
<path d="M19.9 27.4C21.3911 27.4 22.6 26.1912 22.6 24.7C22.6 23.2088 21.3911 22 19.9 22C18.4088 22 17.2 23.2088 17.2 24.7C17.2 26.1912 18.4088 27.4 19.9 27.4Z" fill="black"/>
<path d="M26.3 22.5C27.7911 22.5 29 21.2912 29 19.8C29 18.3088 27.7911 17.1 26.3 17.1C24.8088 17.1 23.6 18.3088 23.6 19.8C23.6 21.2912 24.8088 22.5 26.3 22.5Z" fill="black"/>
<path d="M34.1667 22.5C35.6578 22.5 36.8667 21.2912 36.8667 19.8C36.8667 18.3088 35.6578 17.1 34.1667 17.1C32.6755 17.1 31.4667 18.3088 31.4667 19.8C31.4667 21.2912 32.6755 22.5 34.1667 22.5Z" fill="black"/>
<path d="M40.0999 27.4C41.5911 27.4 42.7999 26.1912 42.7999 24.7C42.7999 23.2088 41.5911 22 40.0999 22C38.6087 22 37.3999 23.2088 37.3999 24.7C37.3999 26.1912 38.6087 27.4 40.0999 27.4Z" fill="black"/>
<path d="M29.8332 24.3C24.8999 24.3 20.8666 28.1667 20.8666 32.9334C20.8666 37.7 25.1332 38.7 30.0666 38.7C34.9999 38.7 38.7999 37.7 38.7999 32.9334C38.7999 28.1667 34.7999 24.3 29.8332 24.3ZM34.4332 33H31.3332V36.1H28.3332V33H25.2332V30H28.3332V26.9H31.3332V30H34.4332V33Z" fill="black"/>
</svg>
