<svg width="4" height="10" viewBox="0 0 4 10" fill="none" xmlns="http://www.w3.org/2000/svg">
<path d="M2.85742 0C3.4885 9.69585e-05 3.99993 0.511493 4 1.14258C4 1.67512 3.63551 2.12117 3.14258 2.24805V7.17969C3.63561 7.3065 4 7.75352 4 8.28613C3.99983 8.91713 3.48844 9.42861 2.85742 9.42871C2.51532 9.42871 2.20945 9.27724 2 9.03906C1.79055 9.2772 1.48465 9.42871 1.14258 9.42871C0.511628 9.42854 0.000174721 8.91708 0 8.28613C0 7.75357 0.364458 7.30654 0.857422 7.17969V2.24805C0.364554 2.12112 0 1.67507 0 1.14258C6.99969e-05 0.511539 0.511563 0.00017232 1.14258 0C1.4847 0 1.79055 0.151445 2 0.389648C2.20946 0.151405 2.51527 0 2.85742 0Z" fill="url(#paint0_linear_132_266)"/>
<defs>
<linearGradient id="paint0_linear_132_266" x1="2.35722" y1="4.92864" x2="3.42869" y2="4.92864" gradientUnits="userSpaceOnUse">
<stop stop-color="#D9D9D9"/>
<stop offset="1" stop-color="#737373"/>
</linearGradient>
</defs>
</svg>
