<svg width="12" height="12" viewBox="0 0 12 12" fill="none" xmlns="http://www.w3.org/2000/svg">
<path d="M1.46484 6.01758C1.70327 4.57984 3.06226 3.60727 4.5 3.8457L6.95312 4.25293C8.39087 4.49136 9.36343 5.85035 9.125 7.28809L9.03711 7.81836C8.6862 9.93337 6.68733 11.3633 4.57227 11.0127C2.45703 10.6619 1.02624 8.66308 1.37695 6.54785L1.46484 6.01758ZM10.5879 3.5293C11.3675 3.5293 11.9999 4.16085 12 4.94043C12 5.72013 11.3676 6.35254 10.5879 6.35254C9.80834 6.35237 9.17676 5.72002 9.17676 4.94043C9.1769 4.16096 9.80843 3.52947 10.5879 3.5293ZM1.41211 1.41113C2.19165 1.41132 2.82324 2.04366 2.82324 2.82324C2.82314 3.60274 2.19158 4.23419 1.41211 4.23438C0.632476 4.23438 0.000101976 3.60285 0 2.82324C0 2.04355 0.632413 1.41113 1.41211 1.41113ZM8.4707 0.705078C9.25034 0.705145 9.88281 1.33753 9.88281 2.11719C9.8828 2.89683 9.25034 3.52923 8.4707 3.5293C7.69101 3.5293 7.05861 2.89687 7.05859 2.11719C7.05859 1.33749 7.69101 0.705078 8.4707 0.705078ZM4.94141 0C5.72095 0.000126358 6.35246 0.631581 6.35254 1.41113C6.35254 2.19075 5.721 2.82312 4.94141 2.82324C4.16171 2.82324 3.5293 2.19083 3.5293 1.41113C3.52937 0.631503 4.16176 0 4.94141 0Z" fill="#ED8422"/>
</svg>
